{
.appVersion = "3133";
copyright = "Copyright (c) 2020 by P22/HWT. HWT Etta is a trademark of P22/HWT. All rights reserved.";
customParameters = (
{
name = fsType;
value = (
2
);
},
{
name = glyphOrder;
value = (
.notdef,
null,
CR,
space
);
},
{
name = "Use Typo Metrics";
value = 1;
},
{
name = description;
value = "Copyright (c) 2020 by P22/HWT. HWT Etta is a trademark of P22/HWT. All rights reserved.";
},
{
name = Axes;
value = (
{
Name = Style;
Tag = wght;
}
);
}
);
date = "2020-09-10 00:09:14 +0000";
designer = "Lynne Yun, Maxime Gau";
familyName = "HWT Etta";
featurePrefixes = (
{
automatic = 1;
code = "languagesystem DFLT dflt;\012\012languagesystem latn dflt;\012languagesystem latn AZE;\012languagesystem latn CRT;\012languagesystem latn KAZ;\012languagesystem latn TAT;\012languagesystem latn TRK;\012languagesystem latn ROM;\012languagesystem latn MOL;\012languagesystem latn CAT;\012";
name = Languagesystems;
}
);
features = (
{
automatic = 1;
code = "feature locl;\012feature sups;\012feature ordn;\012feature salt;\012feature ss01;\012";
name = aalt;
},
{
automatic = 1;
code = "lookup ccmp_Other_1 {\012	@CombiningTopAccents = [acutecomb brevecomb caroncomb circumflexcomb commaturnedabovecomb dieresiscomb dotaccentcomb gravecomb hungarumlautcomb macroncomb ringcomb tildecomb];\012	@CombiningNonTopAccents = [cedillacomb ogonekcomb];\012	sub [i]' @CombiningTopAccents by [idotless];\012	sub [i]' @CombiningNonTopAccents @CombiningTopAccents by [idotless];\012} ccmp_Other_1;\012";
name = ccmp;
},
{
automatic = 1;

glyphs = (
{
glyphname = .notdef;
lastChange = "2020-09-01 14:54:45 +0000";
layers = (
{
layerId = "97739396-C0BE-473D-A663-6DBDEFF9DADD";
paths = (
{
closed = 1;
nodes = (
"334 0 LINE SMOOTH",
"406 0 OFFCURVE",
"434 28 OFFCURVE",
"434 100 CURVE SMOOTH",
"434 600 LINE SMOOTH",
"434 672 OFFCURVE",
"406 700 OFFCURVE",
"334 700 CURVE SMOOTH",
"150 700 LINE SMOOTH",
"78 700 OFFCURVE",
"50 672 OFFCURVE",
"50 600 CURVE SMOOTH",
"50 100 LINE SMOOTH",
"50 28 OFFCURVE",
"78 0 OFFCURVE",
"150 0 CURVE SMOOTH"
);
},
{
closed = 1;
nodes = (
"186 100 OFFCURVE",
"173 113 OFFCURVE",
"173 143 CURVE SMOOTH",
"173 164 LINE SMOOTH",
"173 194 OFFCURVE",
"186 207 OFFCURVE",
"216 207 CURVE SMOOTH",
"238 207 LINE SMOOTH",
"268 207 OFFCURVE",
"280 194 OFFCURVE",
"280 164 CURVE SMOOTH",
"280 143 LINE SMOOTH",
"280 113 OFFCURVE",
"268 100 OFFCURVE",
"238 100 CURVE SMOOTH",
"216 100 LINE SMOOTH"
);
},
{
closed = 1;
nodes = (
"209 314 OFFCURVE",
"216 332 OFFCURVE",
"240 356 CURVE SMOOTH",
"263 379 LINE SMOOTH",
"283 399 OFFCURVE",
"290 413 OFFCURVE",
"290 431 CURVE SMOOTH",
"290 451 OFFCURVE",
"274 461 OFFCURVE",
"243 461 CURVE SMOOTH",
"215 461 LINE SMOOTH",
"170 461 OFFCURVE",
"160 446 OFFCURVE",
"160 406 CURVE",
"124 406 LINE",
"124 509 LINE SMOOTH",
"124 566 OFFCURVE",
"157 600 OFFCURVE",
"207 600 CURVE SMOOTH",
"268 600 LINE SMOOTH",
"343 600 OFFCURVE",
"381 572 OFFCURVE",
"381 509 CURVE SMOOTH",
"381 460 OFFCURVE",
"365 430 OFFCURVE",
"303 368 CURVE SMOOTH",
"267 332 LINE SMOOTH",
"250 315 OFFCURVE",
"245 301 OFFCURVE",
"245 279 CURVE",
"209 279 LINE"
);
}
);
width = 484;
},
{
layerId = "57E3185A-4375-48AC-BD50-0CEDF403F65C";
paths = (
{
closed = 1;
nodes = (
"334 0 LINE SMOOTH",
"406 0 OFFCURVE",
"434 28 OFFCURVE",
"434 100 CURVE SMOOTH",
"434 600 LINE SMOOTH",
"434 672 OFFCURVE",
"406 700 OFFCURVE",
"334 700 CURVE SMOOTH",
"150 700 LINE SMOOTH",
"78 700 OFFCURVE",
"50 672 OFFCURVE",
"50 600 CURVE SMOOTH",
"50 100 LINE SMOOTH",
"50 28 OFFCURVE",
"78 0 OFFCURVE",
"150 0 CURVE SMOOTH"
);
},
{
closed = 1;
nodes = (
"186 100 OFFCURVE",
"173 113 OFFCURVE",
"173 143 CURVE SMOOTH",
"173 164 LINE SMOOTH",
"173 194 OFFCURVE",
"186 207 OFFCURVE",
"216 207 CURVE SMOOTH",
"238 207 LINE SMOOTH",
"268 207 OFFCURVE",
"280 194 OFFCURVE",
"280 164 CURVE SMOOTH",
"280 143 LINE SMOOTH",
"280 113 OFFCURVE",
"268 100 OFFCURVE",
"238 100 CURVE SMOOTH",
"216 100 LINE SMOOTH"
);
},
{
closed = 1;
nodes = (
"209 314 OFFCURVE",
"216 332 OFFCURVE",
"240 356 CURVE SMOOTH",
"263 379 LINE SMOOTH",
"283 399 OFFCURVE",
"290 413 OFFCURVE",
"290 431 CURVE SMOOTH",
"290 451 OFFCURVE",
"274 461 OFFCURVE",
"243 461 CURVE SMOOTH",
"215 461 LINE SMOOTH",
"170 461 OFFCURVE",
"160 446 OFFCURVE",
"160 406 CURVE",
"124 406 LINE",
"124 509 LINE SMOOTH",
"124 566 OFFCURVE",
"157 600 OFFCURVE",
"207 600 CURVE SMOOTH",
"268 600 LINE SMOOTH",
"343 600 OFFCURVE",
"381 572 OFFCURVE",
"381 509 CURVE SMOOTH",
"381 460 OFFCURVE",
"366 431 OFFCURVE",
"303 368 CURVE SMOOTH",
"267 332 LINE SMOOTH",
"250 315 OFFCURVE",
"245 301 OFFCURVE",
"245 279 CURVE",
"209 279 LINE"
);
}
);
width = 484;
}
);
leftKerningGroup = .notdef;
rightKerningGroup = .notdef;
},
{
color = 4;
glyphname = A;
lastChange = "2020-09-01 18:50:37 +0000";
layers = (
{
anchors = (
{
name = bottom;
position = "{353, 0}";
},
{
name = ogonek;
position = "{695, 0}";
},
{
name = top;
position = "{353, 700}";
}
);
layerId = "97739396-C0BE-473D-A663-6DBDEFF9DADD";
paths = (
{
closed = 1;
nodes = (
"308 0 LINE",
"308 200 LINE",
"292 200 LINE SMOOTH",
"273 200 OFFCURVE",
"259 217 OFFCURVE",
"259 245 CURVE SMOOTH",
"259 254 OFFCURVE",
"260 264 OFFCURVE",
"263 275 CURVE SMOOTH",
"305 422 LINE SMOOTH",
"323 484 OFFCURVE",
"335 500 OFFCURVE",
"352 500 CURVE SMOOTH",
"353 500 LINE SMOOTH",
"370 500 OFFCURVE",
"382 484 OFFCURVE",
"400 422 CURVE SMOOTH",
"442 275 LINE SMOOTH",
"445 264 OFFCURVE",
"446 254 OFFCURVE",
"446 245 CURVE SMOOTH",
"446 217 OFFCURVE",
"432 200 OFFCURVE",
"413 200 CURVE SMOOTH",
"397 200 LINE",
"397 0 LINE",
"426 0 LINE SMOOTH",
"483 0 OFFCURVE",
"535 29 OFFCURVE",
"535 91 CURVE SMOOTH",
"535 105 OFFCURVE",
"532 121 OFFCURVE",
"525 147 CURVE SMOOTH",
"374 670 LINE SMOOTH",
"368 691 OFFCURVE",
"362 700 OFFCURVE",
"353 700 CURVE SMOOTH",
"344 700 OFFCURVE",
"337 691 OFFCURVE",
"331 670 CURVE SMOOTH",
"180 147 LINE SMOOTH",
"172 121 OFFCURVE",
"170 105 OFFCURVE",
"170 91 CURVE SMOOTH",
"170 29 OFFCURVE",
"222 0 OFFCURVE",
"279 0 CURVE SMOOTH"
);
},
{
closed = 1;
nodes = (
"53 0 OFFCURVE",
"85 75 OFFCURVE",
"105 143 CURVE SMOOTH",
"216 525 LINE SMOOTH",
"227 563 OFFCURVE",
"237 598 OFFCURVE",
"237 619 CURVE SMOOTH",
"237 663 OFFCURVE",
"208 700 OFFCURVE",
"161 700 CURVE SMOOTH",
"132 700 LINE",
"82 500 LINE",
"103 500 LINE SMOOTH",
"126 500 OFFCURVE",
"140 492 OFFCURVE",
"140 465 CURVE SMOOTH",
"140 453 OFFCURVE",
"138 438 OFFCURVE",
"132 418 CURVE SMOOTH",
"91 275 LINE SMOOTH",
"77 225 OFFCURVE",
"65 200 OFFCURVE",
"26 200 CURVE SMOOTH",
"10 200 LINE",
"10 0 LINE"
);
},
{
closed = 1;
nodes = (
"164 30 LINE",
"158 44 OFFCURVE",
"152 61 OFFCURVE",
"152 87 CURVE SMOOTH",
"152 103 OFFCURVE",
"155 121 OFFCURVE",
"162 146 CURVE SMOOTH",
"315 670 LINE",
"241 670 LINE",
"247 657 OFFCURVE",
"252 641 OFFCURVE",
"252 619 CURVE SMOOTH",
"252 597 OFFCURVE",
"243 564 OFFCURVE",
"229 515 CURVE SMOOTH",
"120 137 LINE SMOOTH",
"103 79 OFFCURVE",
"92 50 OFFCURVE",
"81 30 CURVE"
);
},
{
closed = 1;
nodes = (
"454 278 LINE",
"451 328 LINE",
"240 328 LINE",
"249 278 LINE"
);
},
{
closed = 1;
nodes = (
"624 30 LINE",
"613 50 OFFCURVE",
"602 79 OFFCURVE",
"585 137 CURVE SMOOTH",
"476 515 LINE SMOOTH",
"462 564 OFFCURVE",
"453 597 OFFCURVE",
"453 619 CURVE SMOOTH",
"453 641 OFFCURVE",
"458 657 OFFCURVE",
"464 670 CURVE",
"390 670 LINE",
"543 146 LINE SMOOTH",
"550 121 OFFCURVE",
"553 103 OFFCURVE",
"553 87 CURVE SMOOTH",
"553 61 OFFCURVE",
"547 44 OFFCURVE",
"541 30 CURVE"
);
},
{
closed = 1;
nodes = (
"695 200 LINE",
"679 200 LINE SMOOTH",
"640 200 OFFCURVE",
"628 225 OFFCURVE",
"614 275 CURVE SMOOTH",
"573 418 LINE SMOOTH",
"567 438 OFFCURVE",
"565 453 OFFCURVE",
"565 465 CURVE SMOOTH",
"565 492 OFFCURVE",
"579 500 OFFCURVE",
"602 500 CURVE SMOOTH",
"623 500 LINE",
"573 700 LINE",
"544 700 LINE SMOOTH",
"497 700 OFFCURVE",
"468 663 OFFCURVE",
"468 619 CURVE SMOOTH",
"468 598 OFFCURVE",
"478 563 OFFCURVE",
"489 525 CURVE SMOOTH",
"600 143 LINE SMOOTH",
"619 79 OFFCURVE",
"651 0 OFFCURVE",
"695 0 CURVE"
);
}
);
width = 705;
},
{
anchors = (
{
name = bottom;
position = "{220, 0}";
},
{
name = ogonek;
position = "{423, 0}";
},
{
name = top;
position = "{220, 700}";
}
);
layerId = "57E3185A-4375-48AC-BD50-0CEDF403F65C";
paths = (
{
closed = 1;
nodes = (
"180 0 LINE",
"180 200 LINE",
"136 200 LINE SMOOTH",
"112 200 OFFCURVE",
"98 213 OFFCURVE",
"98 239 CURVE SMOOTH",
"98 249 OFFCURVE",
"101 261 OFFCURVE",
"105 275 CURVE SMOOTH",
"143 406 LINE SMOOTH",
"162 473 OFFCURVE",
"182 490 OFFCURVE",
"220 490 CURVE SMOOTH",
"258 490 OFFCURVE",
"278 473 OFFCURVE",
"297 406 CURVE SMOOTH",
"335 275 LINE SMOOTH",
"339 261 OFFCURVE",
"342 249 OFFCURVE",
"342 239 CURVE SMOOTH",
"342 213 OFFCURVE",
"328 200 OFFCURVE",
"304 200 CURVE SMOOTH",
"260 200 LINE",
"260 0 LINE",
"340 0 LINE SMOOTH",
"403 0 OFFCURVE",
"430 35 OFFCURVE",
"430 87 CURVE SMOOTH",
"430 115 OFFCURVE",
"426 137 OFFCURVE",
"413 183 CURVE SMOOTH",
"296 590 LINE SMOOTH",
"268 688 OFFCURVE",
"250 710 OFFCURVE",
"220 710 CURVE SMOOTH",
"190 710 OFFCURVE",
"172 688 OFFCURVE",
"144 590 CURVE SMOOTH",
"27 183 LINE SMOOTH",
"14 137 OFFCURVE",
"10 115 OFFCURVE",
"10 87 CURVE SMOOTH",
"10 35 OFFCURVE",
"37 0 OFFCURVE",
"100 0 CURVE SMOOTH"
);
},
{
closed = 1;
nodes = (
"353 294 LINE",
"353 344 LINE",
"87 344 LINE",
"87 294 LINE"
);
}
);
width = 440;
},
{
anchors = (
{
name = bottom;
position = "{243, 0}";
},
{
name = ogonek;
position = "{468, 0}";
},
{
name = top;
position = "{243, 700}";
}
);
associatedMasterId = "57E3185A-4375-48AC-BD50-0CEDF403F65C";
layerId = "F065F48B-28A0-40BE-B922-EAD5D38E6146";
name = "Sep 1 20, 13:24";
paths = (
{
closed = 1;
nodes = (
"198 0 LINE",
"198 200 LINE",
"159 200 LINE SMOOTH",
"135 200 OFFCURVE",
"121 213 OFFCURVE",
"121 239 CURVE SMOOTH",
"121 249 OFFCURVE",
"124 261 OFFCURVE",
"128 275 CURVE SMOOTH",
"161 387 LINE SMOOTH",
"185 469 OFFCURVE",
"205 490 OFFCURVE",
"243 490 CURVE SMOOTH",
"281 490 OFFCURVE",
"301 469 OFFCURVE",
"325 387 CURVE SMOOTH",
"358 275 LINE SMOOTH",
"362 261 OFFCURVE",
"365 249 OFFCURVE",
"365 239 CURVE SMOOTH",
"365 213 OFFCURVE",
"351 200 OFFCURVE",
"327 200 CURVE SMOOTH",
"288 200 LINE",
"288 0 LINE",
"363 0 LINE SMOOTH",
"426 0 OFFCURVE",
"453 35 OFFCURVE",
"453 87 CURVE SMOOTH",
"453 115 OFFCURVE",
"449 137 OFFCURVE",
"436 183 CURVE SMOOTH",
"319 590 LINE SMOOTH",
"292 684 OFFCURVE",
"272 706 OFFCURVE",
"243 706 CURVE SMOOTH",
"214 706 OFFCURVE",
"194 684 OFFCURVE",
"167 590 CURVE SMOOTH",
"50 183 LINE SMOOTH",
"37 137 OFFCURVE",
"33 115 OFFCURVE",
"33 87 CURVE SMOOTH",
"33 35 OFFCURVE",
"60 0 OFFCURVE",
"123 0 CURVE SMOOTH"
);
},
{
closed = 1;
nodes = (
"376 294 LINE",
"376 344 LINE",
"110 344 LINE",
"110 294 LINE"
);
}
);
width = 486;
},
{
anchors = (
{
name = bottom;
position = "{243, 0}";
},
{
name = ogonek;
position = "{468, 0}";
},
{
name = top;
position = "{243, 700}";
}
);
associatedMasterId = "57E3185A-4375-48AC-BD50-0CEDF403F65C";
layerId = "C73CA83A-4613-4A72-962D-B47E5DC79D47";
name = "Sep 1 20, 13:25";
paths = (
{
closed = 1;
nodes = (
"198 0 LINE",
"198 200 LINE",
"149 200 LINE SMOOTH",
"125 200 OFFCURVE",
"111 213 OFFCURVE",
"111 239 CURVE SMOOTH",
"111 249 OFFCURVE",
"114 261 OFFCURVE",
"118 275 CURVE SMOOTH",
"153 387 LINE SMOOTH",
"178 467 OFFCURVE",
"200 490 OFFCURVE",
"243 490 CURVE SMOOTH",
"286 490 OFFCURVE",
"308 467 OFFCURVE",
"333 387 CURVE SMOOTH",
"368 275 LINE SMOOTH",
"372 261 OFFCURVE",
"375 249 OFFCURVE",
"375 239 CURVE SMOOTH",
"375 213 OFFCURVE",
"361 200 OFFCURVE",
"337 200 CURVE SMOOTH",
"288 200 LINE",
"288 0 LINE",
"379 0 LINE SMOOTH",
"442 0 OFFCURVE",
"476 29 OFFCURVE",
"476 85 CURVE SMOOTH",
"476 109 OFFCURVE",
"467 138 OFFCURVE",
"452 183 CURVE SMOOTH",
"319 590 LINE SMOOTH",
"289 683 OFFCURVE",
"272 706 OFFCURVE",
"243 706 CURVE SMOOTH",
"214 706 OFFCURVE",
"197 683 OFFCURVE",
"167 590 CURVE SMOOTH",
"34 183 LINE SMOOTH",
"19 138 OFFCURVE",
"10 109 OFFCURVE",
"10 85 CURVE SMOOTH",
"10 29 OFFCURVE",
"44 0 OFFCURVE",
"107 0 CURVE SMOOTH"
);
},
{
closed = 1;
nodes = (
"376 294 LINE",
"376 344 LINE",
"110 344 LINE",
"110 294 LINE"
);
}
);
width = 486;
}
);
leftKerningGroup = A;
rightKerningGroup = A;
unicode = 0041;
},
{
color = 4;
glyphname = Aogonek;
lastChange = "2020-09-01 17:33:56 +0000";
layers = (
{
anchors = (
{
name = _ogonek;
position = "{690, 0}";
}
);
components = (
{
name = A;
}
);
layerId = "97739396-C0BE-473D-A663-6DBDEFF9DADD";
paths = (
{
closed = 1;
nodes = (
"690 -200 LINE",
"690 -150 LINE",
"650 -150 LINE SMOOTH",
"614 -150 OFFCURVE",
"599 -137 OFFCURVE",
"599 -109 CURVE SMOOTH",
"599 -75 OFFCURVE",
"622 -40 OFFCURVE",
"690 0 CURVE",
"668 33 LINE",
"579 -15 OFFCURVE",
"544 -58 OFFCURVE",
"544 -109 CURVE SMOOTH",
"544 -167 OFFCURVE",
"576 -200 OFFCURVE",
"650 -200 CURVE SMOOTH"
);
}
);
width = 695;
},
{
components = (
{
name = A;
},
{
name = ogonekcomb;
transform = "{1, 0, 0, 1, 247, 0}";
}
);
layerId = "57E3185A-4375-48AC-BD50-0CEDF403F65C";
width = 440;
}
);
leftKerningGroup = A;
rightKerningGroup = A;
unicode = 0104;
},
{
color = 4;
glyphname = AE;
lastChange = "2020-09-01 18:12:26 +0000";
layers = (
{
layerId = "97739396-C0BE-473D-A663-6DBDEFF9DADD";
paths = (
{
closed = 1;
nodes = (
"304 0 LINE",
"304 202 LINE",
"277 202 OFFCURVE",
"265 214 OFFCURVE",
"265 236 CURVE SMOOTH",
"265 247 OFFCURVE",
"267 260 OFFCURVE",
"276 284 CURVE SMOOTH",
"339 459 LINE SMOOTH",
"349 487 OFFCURVE",
"364 500 OFFCURVE",
"386 500 CURVE SMOOTH",
"414 500 OFFCURVE",
"430 479 OFFCURVE",
"430 438 CURVE SMOOTH",
"430 275 LINE SMOOTH",
"430 224 OFFCURVE",
"416 202 OFFCURVE",
"384 202 CURVE SMOOTH",
"368 202 LINE",
"368 0 LINE",
"377 0 LINE SMOOTH",
"448 0 OFFCURVE",
"480 42 OFFCURVE",
"480 138 CURVE SMOOTH",
"480 582 LINE SMOOTH",
"480 669 OFFCURVE",
"453 700 OFFCURVE",
"415 700 CURVE SMOOTH",
"382 700 OFFCURVE",
"365 683 OFFCURVE",
"351 643 CURVE SMOOTH",
"179 147 LINE SMOOTH",
"170 121 OFFCURVE",
"169 105 OFFCURVE",
"169 91 CURVE SMOOTH",
"169 29 OFFCURVE",
"218 0 OFFCURVE",
"275 0 CURVE SMOOTH"
);
},
{
closed = 1;
nodes = (
"23 0 OFFCURVE",
"33 3 OFFCURVE",
"42 14 CURVE SMOOTH",
"56 31 OFFCURVE",
"73 73 OFFCURVE",
"100 143 CURVE SMOOTH",
"245 525 LINE SMOOTH",
"259 563 OFFCURVE",
"264 594 OFFCURVE",
"264 619 CURVE SMOOTH",
"264 663 OFFCURVE",
"231 700 OFFCURVE",
"184 700 CURVE SMOOTH",
"155 700 LINE",
"105 498 LINE",
"126 498 LINE SMOOTH",
"149 498 OFFCURVE",
"166 491 OFFCURVE",
"166 465 CURVE SMOOTH",
"166 453 OFFCURVE",
"163 438 OFFCURVE",
"155 418 CURVE SMOOTH",
"100 275 LINE SMOOTH",
"82 227 OFFCURVE",
"64 202 OFFCURVE",
"26 202 CURVE SMOOTH",
"10 202 LINE",
"10 0 LINE"
);
},
{
closed = 1;
nodes = (
"167 30 LINE",
"157 46 OFFCURVE",
"150 60 OFFCURVE",
"150 92 CURVE SMOOTH",
"150 106 OFFCURVE",
"153 125 OFFCURVE",
"160 146 CURVE SMOOTH",
"344 670 LINE",
"267 670 LINE",
"276 657 OFFCURVE",
"282 641 OFFCURVE",
"282 619 CURVE SMOOTH",
"282 597 OFFCURVE",
"277 564 OFFCURVE",
"259 515 CURVE SMOOTH",
"117 137 LINE SMOOTH",
"95 79 OFFCURVE",
"84 50 OFFCURVE",
"77 30 CURVE"
);
},
{
closed = 1;
nodes = (
"435 278 LINE",
"432 328 LINE",
"266 328 LINE",
"245 278 LINE"
);
},
{
closed = 1;
nodes = (
"553 30 LINE",
"540 51 OFFCURVE",
"535 78 OFFCURVE",
"535 119 CURVE SMOOTH",
"535 581 LINE SMOOTH",
"535 622 OFFCURVE",
"540 649 OFFCURVE",
"553 670 CURVE",
"481 670 LINE",
"490 649 OFFCURVE",
"495 622 OFFCURVE",
"495 581 CURVE SMOOTH",
"495 119 LINE SMOOTH",
"495 78 OFFCURVE",
"490 51 OFFCURVE",
"477 30 CURVE"
);
},
{
closed = 1;
nodes = (
"760 305 LINE",
"760 415 LINE",
"726 415 LINE",
"720 392 OFFCURVE",
"701 385 OFFCURVE",
"679 385 CURVE SMOOTH",
"586 385 LINE",
"586 335 LINE",
"679 335 LINE SMOOTH",
"701 335 OFFCURVE",
"720 328 OFFCURVE",
"726 305 CURVE"
);
},
{
closed = 1;
nodes = (
"760 0 LINE SMOOTH",
"833 0 OFFCURVE",
"858 24 OFFCURVE",
"858 67 CURVE SMOOTH",
"858 256 LINE",
"818 256 LINE",
"818 220 OFFCURVE",
"801 200 OFFCURVE",
"767 200 CURVE SMOOTH",
"656 200 LINE SMOOTH",
"614 200 OFFCURVE",
"600 224 OFFCURVE",
"600 275 CURVE SMOOTH",
"600 413 LINE SMOOTH",
"600 482 OFFCURVE",
"614 505 OFFCURVE",
"655 505 CURVE SMOOTH",
"748 505 LINE SMOOTH",
"797 505 OFFCURVE",
"818 480 OFFCURVE",
"818 425 CURVE",
"858 425 LINE",
"858 626 LINE SMOOTH",
"858 670 OFFCURVE",
"837 700 OFFCURVE",
"768 700 CURVE SMOOTH",
"653 700 LINE SMOOTH",
"587 700 OFFCURVE",
"550 669 OFFCURVE",
"550 582 CURVE SMOOTH",
"550 138 LINE SMOOTH",
"550 42 OFFCURVE",
"582 0 OFFCURVE",
"653 0 CURVE SMOOTH"
);
}
);
width = 893;
},
{
layerId = "57E3185A-4375-48AC-BD50-0CEDF403F65C";
paths = (
{
closed = 1;
nodes = (
"261 0 LINE",
"261 205 LINE",
"145 205 LINE SMOOTH",
"120 205 OFFCURVE",
"109 214 OFFCURVE",
"109 232 CURVE SMOOTH",
"109 248 OFFCURVE",
"117 268 OFFCURVE",
"137 298 CURVE SMOOTH",
"222 422 LINE SMOOTH",
"266 486 OFFCURVE",
"288 507 OFFCURVE",
"316 507 CURVE SMOOTH",
"347 507 OFFCURVE",
"358 490 OFFCURVE",
"358 415 CURVE SMOOTH",
"358 100 LINE SMOOTH",
"358 28 OFFCURVE",
"386 0 OFFCURVE",
"458 0 CURVE SMOOTH",
"589 0 LINE SMOOTH",
"665 0 OFFCURVE",
"687 40 OFFCURVE",
"687 95 CURVE SMOOTH",
"687 290 LINE",
"637 290 LINE",
"637 220 OFFCURVE",
"621 200 OFFCURVE",
"567 200 CURVE SMOOTH",
"478 200 LINE SMOOTH",
"424 200 OFFCURVE",
"408 221 OFFCURVE",
"408 290 CURVE SMOOTH",
"408 415 LINE SMOOTH",
"408 485 OFFCURVE",
"424 505 OFFCURVE",
"478 505 CURVE SMOOTH",
"567 505 LINE SMOOTH",
"621 505 OFFCURVE",
"637 485 OFFCURVE",
"637 415 CURVE",
"687 415 LINE",
"687 606 LINE SMOOTH",
"687 671 OFFCURVE",
"666 700 OFFCURVE",
"597 700 CURVE SMOOTH",
"458 700 LINE SMOOTH",
"376 700 OFFCURVE",
"348 691 OFFCURVE",
"293 612 CURVE SMOOTH",
"77 299 LINE SMOOTH",
"28 228 OFFCURVE",
"15 192 OFFCURVE",
"15 142 CURVE SMOOTH",
"15 100 LINE SMOOTH",
"15 28 OFFCURVE",
"43 0 OFFCURVE",
"115 0 CURVE SMOOTH"
);
},
{
closed = 1;
nodes = (
"577 315 LINE",
"577 365 LINE",
"133 365 LINE",
"133 315 LINE"
);
}
);
width = 727;
},
{
associatedMasterId = "57E3185A-4375-48AC-BD50-0CEDF403F65C";
layerId = "13A7CD68-27C8-4155-958A-41040C2F7859";
name = "Sep 1 20, 14:09";
paths = (
{
closed = 1;
nodes = (
"291 0 LINE",
"291 205 LINE",
"175 205 LINE SMOOTH",
"150 205 OFFCURVE",
"139 214 OFFCURVE",
"139 232 CURVE SMOOTH",
"139 248 OFFCURVE",
"147 268 OFFCURVE",
"167 298 CURVE SMOOTH",
"252 423 LINE SMOOTH",
"295 487 OFFCURVE",
"318 507 OFFCURVE",
"346 507 CURVE SMOOTH",
"377 507 OFFCURVE",
"388 490 OFFCURVE",
"388 415 CURVE SMOOTH",
"388 100 LINE SMOOTH",
"388 28 OFFCURVE",
"416 0 OFFCURVE",
"488 0 CURVE SMOOTH",
"619 0 LINE SMOOTH",
"695 0 OFFCURVE",
"717 40 OFFCURVE",
"717 95 CURVE SMOOTH",
"717 290 LINE",
"667 290 LINE",
"667 220 OFFCURVE",
"651 200 OFFCURVE",
"597 200 CURVE SMOOTH",
"508 200 LINE SMOOTH",
"454 200 OFFCURVE",
"438 221 OFFCURVE",
"438 290 CURVE SMOOTH",
"438 415 LINE SMOOTH",
"438 485 OFFCURVE",
"454 505 OFFCURVE",
"508 505 CURVE SMOOTH",
"597 505 LINE SMOOTH",
"651 505 OFFCURVE",
"667 485 OFFCURVE",
"667 415 CURVE",
"717 415 LINE",
"717 606 LINE SMOOTH",
"717 671 OFFCURVE",
"696 700 OFFCURVE",
"627 700 CURVE SMOOTH",
"488 700 LINE SMOOTH",
"406 700 OFFCURVE",
"378 691 OFFCURVE",
"323 612 CURVE SMOOTH",
"83 265 LINE SMOOTH",
"21 176 OFFCURVE",
"10 142 OFFCURVE",
"10 92 CURVE SMOOTH",
"10 29 OFFCURVE",
"44 0 OFFCURVE",
"118 0 CURVE SMOOTH"
);
},
{
closed = 1;
nodes = (
"607 315 LINE",
"607 365 LINE",
"163 365 LINE",
"163 315 LINE"
);
}
);
width = 757;
}
);
leftKerningGroup = AE;
rightKerningGroup = E;
rightMetricsKey = E;
unicode = 00C6;
},
{
color = 4;
glyphname = B;
lastChange = "2020-09-01 14:43:31 +0000";
layers = (
{
layerId = "97739396-C0BE-473D-A663-6DBDEFF9DADD";
paths = (
{
closed = 1;
nodes = (
"437 0 LINE SMOOTH",
"493 0 OFFCURVE",
"545 26 OFFCURVE",
"545 87 CURVE SMOOTH",
"545 276 LINE SMOOTH",
"545 333 OFFCURVE",
"484 361 OFFCURVE",
"450 361 CURVE SMOOTH",
"446 361 OFFCURVE",
"446 366 OFFCURVE",
"450 366 CURVE SMOOTH",
"494 366 OFFCURVE",
"530 400 OFFCURVE",
"530 450 CURVE SMOOTH",
"530 556 LINE SMOOTH",
"530 671 OFFCURVE",
"519 700 OFFCURVE",
"430 700 CURVE SMOOTH",
"325 700 LINE SMOOTH",
"259 700 OFFCURVE",
"222 669 OFFCURVE",
"222 582 CURVE SMOOTH",
"222 138 LINE SMOOTH",
"222 42 OFFCURVE",
"249 0 OFFCURVE",
"325 0 CURVE SMOOTH"
);
},
{
closed = 1;
nodes = (
"49 0 LINE SMOOTH",
"125 0 OFFCURVE",
"152 42 OFFCURVE",
"152 138 CURVE SMOOTH",
"152 582 LINE SMOOTH",
"152 669 OFFCURVE",
"119 700 OFFCURVE",
"49 700 CURVE SMOOTH",
"40 700 LINE",
"40 500 LINE",
"51 500 LINE SMOOTH",
"92 500 OFFCURVE",
"102 483 OFFCURVE",
"102 415 CURVE SMOOTH",
"102 273 LINE SMOOTH",
"102 222 OFFCURVE",
"88 200 OFFCURVE",
"56 200 CURVE SMOOTH",
"40 200 LINE",
"40 0 LINE"
);
},
{
closed = 1;
nodes = (
"225 30 LINE",
"212 51 OFFCURVE",
"207 78 OFFCURVE",
"207 119 CURVE SMOOTH",
"207 581 LINE SMOOTH",
"207 622 OFFCURVE",
"212 649 OFFCURVE",
"225 670 CURVE",
"149 670 LINE",
"162 649 OFFCURVE",
"167 622 OFFCURVE",
"167 581 CURVE SMOOTH",
"167 119 LINE SMOOTH",
"167 78 OFFCURVE",
"162 51 OFFCURVE",
"149 30 CURVE"
);
},
{
closed = 1;
nodes = (
"286 200 OFFCURVE",
"272 222 OFFCURVE",
"272 273 CURVE SMOOTH",
"272 420 LINE SMOOTH",
"272 488 OFFCURVE",
"282 505 OFFCURVE",
"323 505 CURVE SMOOTH",
"410 505 LINE SMOOTH",
"459 505 OFFCURVE",
"480 490 OFFCURVE",
"480 450 CURVE SMOOTH",
"480 399 OFFCURVE",
"449 385 OFFCURVE",
"381 385 CURVE SMOOTH",
"263 385 LINE",
"263 335 LINE",
"381 335 LINE SMOOTH",
"470 335 OFFCURVE",
"495 318 OFFCURVE",
"495 277 CURVE SMOOTH",
"495 267 LINE SMOOTH",
"495 227 OFFCURVE",
"476 200 OFFCURVE",
"437 200 CURVE SMOOTH",
"318 200 LINE SMOOTH"
);
},
{
closed = 1;
nodes = (
"581 46 OFFCURVE",
"600 70 OFFCURVE",
"600 128 CURVE SMOOTH",
"600 208 LINE SMOOTH",
"600 296 OFFCURVE",
"581 320 OFFCURVE",
"549 328 CURVE",
"560 295 OFFCURVE",
"560 263 OFFCURVE",
"560 218 CURVE SMOOTH",
"560 109 LINE SMOOTH",
"560 82 OFFCURVE",
"560 58 OFFCURVE",
"549 38 CURVE"
);
},
{
closed = 1;
nodes = (
"639 95 OFFCURVE",
"660 121 OFFCURVE",
"660 185 CURVE SMOOTH",
"660 246 OFFCURVE",
"643 273 OFFCURVE",
"607 287 CURVE",
"612 267 OFFCURVE",
"615 227 OFFCURVE",
"615 200 CURVE SMOOTH",
"615 150 LINE SMOOTH",
"615 123 OFFCURVE",
"615 103 OFFCURVE",
"612 83 CURVE"
);
},
{
closed = 1;
nodes = (
"566 391 OFFCURVE",
"585 415 OFFCURVE",
"585 473 CURVE SMOOTH",
"585 553 LINE SMOOTH",
"585 641 OFFCURVE",
"566 665 OFFCURVE",
"534 673 CURVE",
"545 640 OFFCURVE",
"545 608 OFFCURVE",
"545 563 CURVE SMOOTH",
"545 454 LINE SMOOTH",
"545 427 OFFCURVE",
"545 405 OFFCURVE",
"534 383 CURVE"
);
},
{
closed = 1;
nodes = (
"618 440 OFFCURVE",
"635 462 OFFCURVE",
"635 521 CURVE SMOOTH",
"635 578 OFFCURVE",
"617 606 OFFCURVE",
"592 625 CURVE",
"597 605 OFFCURVE",
"600 572 OFFCURVE",
"600 545 CURVE SMOOTH",
"600 505 LINE SMOOTH",
"600 478 OFFCURVE",
"597 438 OFFCURVE",
"592 426 CURVE"
);
}
);
width = 670;
},
{
layerId = "57E3185A-4375-48AC-BD50-0CEDF403F65C";
paths = (
{
closed = 1;
nodes = (
"247 0 LINE SMOOTH",
"358 0 OFFCURVE",
"408 41 OFFCURVE",
"408 134 CURVE SMOOTH",
"408 276 LINE SMOOTH",
"408 333 OFFCURVE",
"373 361 OFFCURVE",
"313 361 CURVE SMOOTH",
"309 361 OFFCURVE",
"309 366 OFFCURVE",
"313 366 CURVE SMOOTH",
"367 366 OFFCURVE",
"393 396 OFFCURVE",
"393 450 CURVE SMOOTH",
"393 566 LINE SMOOTH",
"393 659 OFFCURVE",
"343 700 OFFCURVE",
"232 700 CURVE SMOOTH",
"155 700 LINE SMOOTH",
"83 700 OFFCURVE",
"55 672 OFFCURVE",
"55 600 CURVE SMOOTH",
"55 100 LINE SMOOTH",
"55 28 OFFCURVE",
"83 0 OFFCURVE",
"155 0 CURVE SMOOTH"
);
},
{
closed = 1;
nodes = (
"121 200 OFFCURVE",
"105 221 OFFCURVE",
"105 290 CURVE SMOOTH",
"105 410 LINE SMOOTH",
"105 480 OFFCURVE",
"121 500 OFFCURVE",
"175 500 CURVE SMOOTH",
"273 500 LINE SMOOTH",
"322 500 OFFCURVE",
"343 485 OFFCURVE",
"343 446 CURVE SMOOTH",
"343 403 OFFCURVE",
"322 385 OFFCURVE",
"244 385 CURVE SMOOTH",
"96 385 LINE",
"96 335 LINE",
"244 335 LINE SMOOTH",
"333 335 OFFCURVE",
"358 318 OFFCURVE",
"358 272 CURVE SMOOTH",
"358 223 OFFCURVE",
"339 200 OFFCURVE",
"290 200 CURVE SMOOTH",
"175 200 LINE SMOOTH"
);
}
);
width = 443;
},
{
associatedMasterId = "57E3185A-4375-48AC-BD50-0CEDF403F65C";
layerId = "A8CDF8E7-34F1-4DCF-B37D-020E6FDD9DC9";
name = "Aug 27 20, 15:38";
paths = (
{
closed = 1;
nodes = (
"271 0 LINE SMOOTH",
"377 0 OFFCURVE",
"408 49 OFFCURVE",
"408 150 CURVE SMOOTH",
"408 276 LINE SMOOTH",
"408 333 OFFCURVE",
"347 361 OFFCURVE",
"313 361 CURVE SMOOTH",
"309 361 OFFCURVE",
"309 366 OFFCURVE",
"313 366 CURVE SMOOTH",
"357 366 OFFCURVE",
"393 400 OFFCURVE",
"393 450 CURVE SMOOTH",
"393 546 LINE SMOOTH",
"393 651 OFFCURVE",
"362 700 OFFCURVE",
"253 700 CURVE SMOOTH",
"155 700 LINE SMOOTH",
"83 700 OFFCURVE",
"55 672 OFFCURVE",
"55 600 CURVE SMOOTH",
"55 100 LINE SMOOTH",
"55 28 OFFCURVE",
"83 0 OFFCURVE",
"155 0 CURVE SMOOTH"
);
},
{
closed = 1;
nodes = (
"105 415 LINE SMOOTH",
"105 485 OFFCURVE",
"121 505 OFFCURVE",
"175 505 CURVE SMOOTH",
"273 505 LINE SMOOTH",
"322 505 OFFCURVE",
"343 490 OFFCURVE",
"343 450 CURVE SMOOTH",
"343 399 OFFCURVE",
"312 385 OFFCURVE",
"244 385 CURVE SMOOTH",
"96 385 LINE",
"96 335 LINE",
"244 335 LINE SMOOTH",
"333 335 OFFCURVE",
"358 318 OFFCURVE",
"358 277 CURVE SMOOTH",
"358 267 LINE SMOOTH",
"358 227 OFFCURVE",
"339 200 OFFCURVE",
"300 200 CURVE SMOOTH",
"175 200 LINE SMOOTH",
"121 200 OFFCURVE",
"105 221 OFFCURVE",
"105 290 CURVE SMOOTH"
);
}
);
width = 443;
}
);
leftKerningGroup = H;
leftMetricsKey = H;
rightKerningGroup = B;
unicode = 0042;
},
{
color = 4;
glyphname = C;
lastChange = "2020-09-01 19:05:50 +0000";
layers = (
{
anchors = (
{
name = bottom;
position = "{362, 0}";
},
{
name = top;
position = "{362, 700}";
}
);
layerId = "97739396-C0BE-473D-A663-6DBDEFF9DADD";
paths = (
{
closed = 1;
nodes = (
"498 -10 OFFCURVE",
"548 31 OFFCURVE",
"548 124 CURVE SMOOTH",
"548 285 LINE",
"498 285 LINE",
"498 267 LINE SMOOTH",
"498 218 OFFCURVE",
"464 190 OFFCURVE",
"383 190 CURVE SMOOTH",
"317 190 LINE SMOOTH",
"237 190 OFFCURVE",
"206 237 OFFCURVE",
"206 320 CURVE SMOOTH",
"206 380 LINE SMOOTH",
"206 463 OFFCURVE",
"237 510 OFFCURVE",
"317 510 CURVE SMOOTH",
"393 510 LINE SMOOTH",
"472 510 OFFCURVE",
"498 489 OFFCURVE",
"498 425 CURVE",
"548 425 LINE",
"548 576 LINE SMOOTH",
"548 669 OFFCURVE",
"498 710 OFFCURVE",
"362 710 CURVE SMOOTH",
"223 710 OFFCURVE",
"151 666 OFFCURVE",
"151 517 CURVE SMOOTH",
"151 183 LINE SMOOTH",
"151 34 OFFCURVE",
"223 -10 OFFCURVE",
"362 -10 CURVE SMOOTH"
);
},
{
closed = 1;
nodes = (
"84 125 OFFCURVE",
"81 154 OFFCURVE",
"81 190 CURVE SMOOTH",
"81 510 LINE SMOOTH",
"81 546 OFFCURVE",
"84 575 OFFCURVE",
"89 593 CURVE",
"45 565 OFFCURVE",
"25 503 OFFCURVE",
"25 388 CURVE SMOOTH",
"25 312 LINE SMOOTH",
"25 197 OFFCURVE",
"45 135 OFFCURVE",
"89 107 CURVE"
);
},
{
closed = 1;
nodes = (
"142 95 OFFCURVE",
"136 126 OFFCURVE",
"136 172 CURVE SMOOTH",
"136 528 LINE SMOOTH",
"136 574 OFFCURVE",
"142 605 OFFCURVE",
"153 630 CURVE",
"116 625 OFFCURVE",
"96 593 OFFCURVE",
"96 520 CURVE SMOOTH",
"96 180 LINE SMOOTH",
"96 107 OFFCURVE",
"116 75 OFFCURVE",
"153 70 CURVE"
);
},
{
closed = 1;
nodes = (
"583 35 OFFCURVE",
"603 67 OFFCURVE",
"603 140 CURVE SMOOTH",
"603 285 LINE",
"563 285 LINE",
"563 132 LINE SMOOTH",
"563 86 OFFCURVE",
"557 55 OFFCURVE",
"546 30 CURVE"
);
},
{
closed = 1;
nodes = (
"603 425 LINE",
"603 540 LINE SMOOTH",
"603 613 OFFCURVE",
"589 645 OFFCURVE",
"553 650 CURVE",
"563 625 OFFCURVE",
"563 594 OFFCURVE",
"563 548 CURVE SMOOTH",
"563 425 LINE"
);
}
);
width = 643;
},
{
associatedMasterId = "97739396-C0BE-473D-A663-6DBDEFF9DADD";
layerId = "F971058F-E91E-45A3-BCA3-92DC2007A961";
name = "Jun 2 20, 11:55";
paths = (
{
closed = 1;
nodes = (
"76 510 LINE SMOOTH",
"76 537 OFFCURVE",
"79 577 OFFCURVE",
"84 597 CURVE",
"42 565 OFFCURVE",
"20 503 OFFCURVE",
"20 388 CURVE SMOOTH",
"20 312 LINE SMOOTH",
"20 197 OFFCURVE",
"42 135 OFFCURVE",
"84 103 CURVE",
"79 123 OFFCURVE",
"76 163 OFFCURVE",
"76 190 CURVE SMOOTH"
);
},
{
closed = 1;
nodes = (
"96 94 OFFCURVE",
"110 70 OFFCURVE",
"142 62 CURVE",
"131 95 OFFCURVE",
"126 127 OFFCURVE",
"126 172 CURVE SMOOTH",
"126 528 LINE SMOOTH",
"126 573 OFFCURVE",
"131 605 OFFCURVE",
"142 638 CURVE",
"110 630 OFFCURVE",
"96 606 OFFCURVE",
"96 518 CURVE SMOOTH",
"96 182 LINE SMOOTH"
);
},
{
closed = 1;
nodes = (
"302 190 LINE SMOOTH",
"232 190 OFFCURVE",
"201 237 OFFCURVE",
"201 320 CURVE SMOOTH",
"201 380 LINE SMOOTH",
"201 463 OFFCURVE",
"232 510 OFFCURVE",
"302 510 CURVE SMOOTH",
"338 510 LINE SMOOTH",
"394 510 OFFCURVE",
"428 482 OFFCURVE",
"428 430 CURVE SMOOTH",
"428 405 LINE",
"478 405 LINE",
"478 576 LINE SMOOTH",
"478 669 OFFCURVE",
"428 710 OFFCURVE",
"327 710 CURVE SMOOTH",
"218 710 OFFCURVE",
"146 666 OFFCURVE",
"146 517 CURVE SMOOTH",
"146 183 LINE SMOOTH",
"146 34 OFFCURVE",
"218 -10 OFFCURVE",
"327 -10 CURVE SMOOTH",
"428 -10 OFFCURVE",
"478 31 OFFCURVE",
"478 124 CURVE SMOOTH",
"478 295 LINE",
"428 295 LINE",
"428 270 LINE SMOOTH",
"428 222 OFFCURVE",
"394 190 OFFCURVE",
"338 190 CURVE SMOOTH"
);
}
);
width = 498;
},
{
associatedMasterId = "97739396-C0BE-473D-A663-6DBDEFF9DADD";
layerId = "03CC0B9A-6E1B-4EE1-A242-EA1488981008";
name = "Jun 29 20, 15:20";
paths = (
{
closed = 1;
nodes = (
"76 510 LINE SMOOTH",
"76 537 OFFCURVE",
"79 577 OFFCURVE",
"84 597 CURVE",
"42 565 OFFCURVE",
"20 503 OFFCURVE",
"20 388 CURVE SMOOTH",
"20 312 LINE SMOOTH",
"20 197 OFFCURVE",
"42 135 OFFCURVE",
"84 103 CURVE",
"79 123 OFFCURVE",
"76 163 OFFCURVE",
"76 190 CURVE SMOOTH"
);
},
{
closed = 1;
nodes = (
"91 94 OFFCURVE",
"110 70 OFFCURVE",
"142 62 CURVE",
"131 95 OFFCURVE",
"131 127 OFFCURVE",
"131 172 CURVE SMOOTH",
"131 528 LINE SMOOTH",
"131 573 OFFCURVE",
"131 605 OFFCURVE",
"142 638 CURVE",
"110 630 OFFCURVE",
"91 606 OFFCURVE",
"91 518 CURVE SMOOTH",
"91 182 LINE SMOOTH"
);
},
{
closed = 1;
nodes = (
"146 34 OFFCURVE",
"218 -10 OFFCURVE",
"357 -10 CURVE SMOOTH",
"493 -10 OFFCURVE",
"543 31 OFFCURVE",
"543 124 CURVE SMOOTH",
"543 295 LINE",
"493 295 LINE",
"493 270 LINE SMOOTH",
"493 218 OFFCURVE",
"459 190 OFFCURVE",
"378 190 CURVE SMOOTH",
"312 190 LINE SMOOTH",
"232 190 OFFCURVE",
"201 237 OFFCURVE",
"201 320 CURVE SMOOTH",
"201 380 LINE SMOOTH",
"201 463 OFFCURVE",
"232 510 OFFCURVE",
"312 510 CURVE SMOOTH",
"378 510 LINE SMOOTH",
"459 510 OFFCURVE",
"493 482 OFFCURVE",
"493 440 CURVE SMOOTH",
"493 415 LINE",
"543 415 LINE",
"543 576 LINE SMOOTH",
"543 669 OFFCURVE",
"493 710 OFFCURVE",
"357 710 CURVE SMOOTH",
"218 710 OFFCURVE",
"146 666 OFFCURVE",
"146 517 CURVE SMOOTH",
"146 183 LINE SMOOTH"
);
}
);
width = 563;
},
{
anchors = (
{
name = bottom;
position = "{222, 0}";
},
{
name = top;
position = "{222, 700}";
}
);
layerId = "57E3185A-4375-48AC-BD50-0CEDF403F65C";
paths = (
{
closed = 1;
nodes = (
"347 -10 OFFCURVE",
"397 31 OFFCURVE",
"397 124 CURVE SMOOTH",
"397 295 LINE",
"347 295 LINE",
"347 280 LINE SMOOTH",
"347 218 OFFCURVE",
"313 190 OFFCURVE",
"242 190 CURVE SMOOTH",
"216 190 LINE SMOOTH",
"136 190 OFFCURVE",
"100 227 OFFCURVE",
"100 315 CURVE SMOOTH",
"100 385 LINE SMOOTH",
"100 473 OFFCURVE",
"136 510 OFFCURVE",
"216 510 CURVE SMOOTH",
"242 510 LINE SMOOTH",
"313 510 OFFCURVE",
"347 482 OFFCURVE",
"347 420 CURVE SMOOTH",
"347 405 LINE",
"397 405 LINE",
"397 576 LINE SMOOTH",
"397 669 OFFCURVE",
"347 710 OFFCURVE",
"236 710 CURVE SMOOTH",
"106 710 OFFCURVE",
"50 656 OFFCURVE",
"50 537 CURVE SMOOTH",
"50 163 LINE SMOOTH",
"50 44 OFFCURVE",
"106 -10 OFFCURVE",
"236 -10 CURVE SMOOTH"
);
}
);
width = 442;
},
{
associatedMasterId = "57E3185A-4375-48AC-BD50-0CEDF403F65C";
layerId = "7D1DFE1B-6F46-4E6F-BC1B-5CEDD005038A";
name = "Jun 2 20, 11:55";
paths = (
{
closed = 1;
nodes = (
"76 510 LINE SMOOTH",
"76 537 OFFCURVE",
"79 577 OFFCURVE",
"84 597 CURVE",
"42 565 OFFCURVE",
"20 503 OFFCURVE",
"20 388 CURVE SMOOTH",
"20 312 LINE SMOOTH",
"20 197 OFFCURVE",
"42 135 OFFCURVE",
"84 103 CURVE",
"79 123 OFFCURVE",
"76 163 OFFCURVE",
"76 190 CURVE SMOOTH"
);
},
{
closed = 1;
nodes = (
"96 94 OFFCURVE",
"110 70 OFFCURVE",
"142 62 CURVE",
"131 95 OFFCURVE",
"126 127 OFFCURVE",
"126 172 CURVE SMOOTH",
"126 528 LINE SMOOTH",
"126 573 OFFCURVE",
"131 605 OFFCURVE",
"142 638 CURVE",
"110 630 OFFCURVE",
"96 606 OFFCURVE",
"96 518 CURVE SMOOTH",
"96 182 LINE SMOOTH"
);
},
{
closed = 1;
nodes = (
"302 190 LINE SMOOTH",
"232 190 OFFCURVE",
"201 237 OFFCURVE",
"201 320 CURVE SMOOTH",
"201 380 LINE SMOOTH",
"201 463 OFFCURVE",
"232 510 OFFCURVE",
"302 510 CURVE SMOOTH",
"338 510 LINE SMOOTH",
"394 510 OFFCURVE",
"428 482 OFFCURVE",
"428 430 CURVE SMOOTH",
"428 405 LINE",
"478 405 LINE",
"478 576 LINE SMOOTH",
"478 669 OFFCURVE",
"428 710 OFFCURVE",
"327 710 CURVE SMOOTH",
"218 710 OFFCURVE",
"146 666 OFFCURVE",
"146 517 CURVE SMOOTH",
"146 183 LINE SMOOTH",
"146 34 OFFCURVE",
"218 -10 OFFCURVE",
"327 -10 CURVE SMOOTH",
"428 -10 OFFCURVE",
"478 31 OFFCURVE",
"478 124 CURVE SMOOTH",
"478 295 LINE",
"428 295 LINE",
"428 270 LINE SMOOTH",
"428 222 OFFCURVE",
"394 190 OFFCURVE",
"338 190 CURVE SMOOTH"
);
}
);
width = 498;
},
{
associatedMasterId = "57E3185A-4375-48AC-BD50-0CEDF403F65C";
layerId = "2C1D4062-4F23-4BA6-8D08-8EFB165CBE84";
name = "Jun 29 20, 15:20";
paths = (
{
closed = 1;
nodes = (
"76 510 LINE SMOOTH",
"76 537 OFFCURVE",
"79 577 OFFCURVE",
"84 597 CURVE",
"42 565 OFFCURVE",
"20 503 OFFCURVE",
"20 388 CURVE SMOOTH",
"20 312 LINE SMOOTH",
"20 197 OFFCURVE",
"42 135 OFFCURVE",
"84 103 CURVE",
"79 123 OFFCURVE",
"76 163 OFFCURVE",
"76 190 CURVE SMOOTH"
);
},
{
closed = 1;
nodes = (
"91 94 OFFCURVE",
"110 70 OFFCURVE",
"142 62 CURVE",
"131 95 OFFCURVE",
"131 127 OFFCURVE",
"131 172 CURVE SMOOTH",
"131 528 LINE SMOOTH",
"131 573 OFFCURVE",
"131 605 OFFCURVE",
"142 638 CURVE",
"110 630 OFFCURVE",
"91 606 OFFCURVE",
"91 518 CURVE SMOOTH",
"91 182 LINE SMOOTH"
);
},
{
closed = 1;
nodes = (
"146 34 OFFCURVE",
"218 -10 OFFCURVE",
"357 -10 CURVE SMOOTH",
"493 -10 OFFCURVE",
"543 31 OFFCURVE",
"543 124 CURVE SMOOTH",
"543 295 LINE",
"493 295 LINE",
"493 270 LINE SMOOTH",
"493 218 OFFCURVE",
"459 190 OFFCURVE",
"378 190 CURVE SMOOTH",
"312 190 LINE SMOOTH",
"232 190 OFFCURVE",
"201 237 OFFCURVE",
"201 320 CURVE SMOOTH",
"201 380 LINE SMOOTH",
"201 463 OFFCURVE",
"232 510 OFFCURVE",
"312 510 CURVE SMOOTH",
"378 510 LINE SMOOTH",
"459 510 OFFCURVE",
"493 482 OFFCURVE",
"493 440 CURVE SMOOTH",
"493 415 LINE",
"543 415 LINE",
"543 576 LINE SMOOTH",
"543 669 OFFCURVE",
"493 710 OFFCURVE",
"357 710 CURVE SMOOTH",
"218 710 OFFCURVE",
"146 666 OFFCURVE",
"146 517 CURVE SMOOTH",
"146 183 LINE SMOOTH"
);
}
);
width = 563;
},
{
anchors = (
{
name = bottom;
position = "{222, 0}";
},
{
name = top;
position = "{222, 700}";
}
);
associatedMasterId = "57E3185A-4375-48AC-BD50-0CEDF403F65C";
layerId = "24C031CD-BF0D-4F40-8AF6-1F2B7748D744";
name = "Aug 27 20, 21:21";
paths = (
{
closed = 1;
nodes = (
"50 34 OFFCURVE",
"122 -10 OFFCURVE",
"236 -10 CURVE SMOOTH",
"347 -10 OFFCURVE",
"397 31 OFFCURVE",
"397 124 CURVE SMOOTH",
"397 295 LINE",
"347 295 LINE",
"347 280 LINE SMOOTH",
"347 218 OFFCURVE",
"313 190 OFFCURVE",
"242 190 CURVE SMOOTH",
"216 190 LINE SMOOTH",
"136 190 OFFCURVE",
"105 237 OFFCURVE",
"105 330 CURVE SMOOTH",
"105 370 LINE SMOOTH",
"105 463 OFFCURVE",
"136 510 OFFCURVE",
"216 510 CURVE SMOOTH",
"242 510 LINE SMOOTH",
"313 510 OFFCURVE",
"347 482 OFFCURVE",
"347 420 CURVE SMOOTH",
"347 405 LINE",
"397 405 LINE",
"397 576 LINE SMOOTH",
"397 669 OFFCURVE",
"347 710 OFFCURVE",
"236 710 CURVE SMOOTH",
"122 710 OFFCURVE",
"50 666 OFFCURVE",
"50 517 CURVE SMOOTH",
"50 183 LINE SMOOTH"
);
}
);
width = 442;
},
{
anchors = (
{
name = bottom;
position = "{222, 0}";
},
{
name = top;
position = "{222, 700}";
}
);
associatedMasterId = "57E3185A-4375-48AC-BD50-0CEDF403F65C";
layerId = "1A816F26-8DFC-4F14-B6F9-CE2913BC8B8D";
name = "Aug 27 20, 21:24";
paths = (
{
closed = 1;
nodes = (
"105 467 OFFCURVE",
"136 510 OFFCURVE",
"213 510 CURVE SMOOTH",
"233 510 LINE SMOOTH",
"313 510 OFFCURVE",
"346 482 OFFCURVE",
"346 420 CURVE SMOOTH",
"346 405 LINE",
"396 405 LINE",
"396 517 LINE SMOOTH",
"396 666 OFFCURVE",
"354 710 OFFCURVE",
"223 710 CURVE SMOOTH",
"112 710 OFFCURVE",
"50 666 OFFCURVE",
"50 517 CURVE SMOOTH",
"50 183 LINE SMOOTH",
"50 34 OFFCURVE",
"112 -10 OFFCURVE",
"223 -10 CURVE SMOOTH",
"354 -10 OFFCURVE",
"396 34 OFFCURVE",
"396 183 CURVE SMOOTH",
"396 295 LINE",
"346 295 LINE",
"346 280 LINE SMOOTH",
"346 218 OFFCURVE",
"313 190 OFFCURVE",
"233 190 CURVE SMOOTH",
"213 190 LINE SMOOTH",
"136 190 OFFCURVE",
"105 233 OFFCURVE",
"105 330 CURVE SMOOTH",
"105 370 LINE SMOOTH"
);
}
);
width = 442;
}
);
leftKerningGroup = O;
leftMetricsKey = O;
rightKerningGroup = C;
unicode = 0043;
},
{
color = 4;
glyphname = D;
lastChange = "2020-09-01 14:43:42 +0000";
layers = (
{
anchors = (
{
name = bottom;
position = "{361, 0}";
},
{
name = center;
position = "{361, 350}";
},
{
name = top;
position = "{361, 700}";
}
);
background = {
paths = (
{
closed = 1;
nodes = (
"349 705 LINE SMOOTH",
"284 705 OFFCURVE",
"223 666 OFFCURVE",
"223 547 CURVE SMOOTH",
"222 153 LINE SMOOTH",
"222 34 OFFCURVE",
"280 -5 OFFCURVE",
"340 -5 CURVE SMOOTH",
"373 -5 LINE SMOOTH",
"502 -5 OFFCURVE",
"574 39 OFFCURVE",
"574 188 CURVE SMOOTH",
"574 512 LINE SMOOTH",
"574 661 OFFCURVE",
"502 705 OFFCURVE",
"373 705 CURVE SMOOTH"
);
},
{
closed = 1;
nodes = (
"54 0 LINE SMOOTH",
"116 0 OFFCURVE",
"147 42 OFFCURVE",
"147 138 CURVE SMOOTH",
"147 582 LINE SMOOTH",
"147 669 OFFCURVE",
"109 700 OFFCURVE",
"54 700 CURVE SMOOTH",
"25 700 LINE",
"25 498 LINE",
"36 498 LINE SMOOTH",
"84 498 OFFCURVE",
"101 481 OFFCURVE",
"101 413 CURVE SMOOTH",
"101 275 LINE SMOOTH",
"101 224 OFFCURVE",
"80 202 OFFCURVE",
"41 202 CURVE SMOOTH",
"25 202 LINE",
"25 0 LINE"
);
},
{
closed = 1;
nodes = (
"225 30 LINE",
"212 51 OFFCURVE",
"207 78 OFFCURVE",
"207 119 CURVE SMOOTH",
"207 581 LINE SMOOTH",
"207 622 OFFCURVE",
"212 649 OFFCURVE",
"225 670 CURVE",
"144 670 LINE",
"157 649 OFFCURVE",
"162 622 OFFCURVE",
"162 581 CURVE SMOOTH",
"162 119 LINE SMOOTH",
"162 78 OFFCURVE",
"157 51 OFFCURVE",
"144 30 CURVE"
);
},
{
closed = 1;
nodes = (
"470 510 OFFCURVE",
"519 473 OFFCURVE",
"519 400 CURVE SMOOTH",
"519 300 LINE SMOOTH",
"519 227 OFFCURVE",
"470 190 OFFCURVE",
"388 190 CURVE SMOOTH",
"349 190 LINE SMOOTH",
"300 190 OFFCURVE",
"273 230 OFFCURVE",
"273 310 CURVE SMOOTH",
"273 390 LINE SMOOTH",
"273 470 OFFCURVE",
"300 510 OFFCURVE",
"349 510 CURVE SMOOTH",
"388 510 LINE SMOOTH"
);
},
{
closed = 1;
nodes = (
"644 168 OFFCURVE",
"641 128 OFFCURVE",
"636 108 CURVE",
"678 140 OFFCURVE",
"700 202 OFFCURVE",
"700 317 CURVE SMOOTH",
"700 383 LINE SMOOTH",
"700 498 OFFCURVE",
"678 560 OFFCURVE",
"636 592 CURVE",
"641 572 OFFCURVE",
"644 532 OFFCURVE",
"644 505 CURVE SMOOTH",
"644 195 LINE SMOOTH"
);
},
{
closed = 1;
nodes = (
"624 513 LINE SMOOTH",
"624 601 OFFCURVE",
"610 625 OFFCURVE",
"578 633 CURVE",
"589 600 OFFCURVE",
"594 568 OFFCURVE",
"594 523 CURVE SMOOTH",
"594 177 LINE SMOOTH",
"594 132 OFFCURVE",
"589 100 OFFCURVE",
"578 67 CURVE",
"610 75 OFFCURVE",
"624 99 OFFCURVE",
"624 187 CURVE SMOOTH"
);
}
);
};
layerId = "97739396-C0BE-473D-A663-6DBDEFF9DADD";
paths = (
{
closed = 1;
nodes = (
"373 -5 LINE SMOOTH",
"502 -5 OFFCURVE",
"575 34 OFFCURVE",
"575 183 CURVE SMOOTH",
"575 517 LINE SMOOTH",
"575 666 OFFCURVE",
"502 705 OFFCURVE",
"373 705 CURVE SMOOTH",
"349 705 LINE SMOOTH",
"283 705 OFFCURVE",
"222 669 OFFCURVE",
"222 582 CURVE SMOOTH",
"222 138 LINE SMOOTH",
"222 42 OFFCURVE",
"269 -5 OFFCURVE",
"340 -5 CURVE SMOOTH"
);
},
{
closed = 1;
nodes = (
"49 0 LINE SMOOTH",
"120 0 OFFCURVE",
"152 42 OFFCURVE",
"152 138 CURVE SMOOTH",
"152 582 LINE SMOOTH",
"152 669 OFFCURVE",
"114 700 OFFCURVE",
"49 700 CURVE SMOOTH",
"40 700 LINE",
"40 500 LINE",
"51 500 LINE SMOOTH",
"92 500 OFFCURVE",
"102 483 OFFCURVE",
"102 415 CURVE SMOOTH",
"102 273 LINE SMOOTH",
"102 222 OFFCURVE",
"88 200 OFFCURVE",
"56 200 CURVE SMOOTH",
"40 200 LINE",
"40 0 LINE"
);
},
{
closed = 1;
nodes = (
"225 30 LINE",
"212 51 OFFCURVE",
"207 78 OFFCURVE",
"207 119 CURVE SMOOTH",
"207 581 LINE SMOOTH",
"207 622 OFFCURVE",
"212 649 OFFCURVE",
"225 670 CURVE",
"149 670 LINE",
"162 649 OFFCURVE",
"167 622 OFFCURVE",
"167 581 CURVE SMOOTH",
"167 119 LINE SMOOTH",
"167 78 OFFCURVE",
"162 51 OFFCURVE",
"149 30 CURVE"
);
},
{
closed = 1;
nodes = (
"317 190 OFFCURVE",
"272 224 OFFCURVE",
"272 275 CURVE SMOOTH",
"272 413 LINE SMOOTH",
"272 482 OFFCURVE",
"308 510 OFFCURVE",
"367 510 CURVE SMOOTH",
"399 510 LINE SMOOTH",
"461 510 OFFCURVE",
"520 473 OFFCURVE",
"520 400 CURVE SMOOTH",
"520 300 LINE SMOOTH",
"520 227 OFFCURVE",
"461 190 OFFCURVE",
"399 190 CURVE SMOOTH",
"369 190 LINE SMOOTH"
);
},
{
closed = 1;
nodes = (
"610 75 OFFCURVE",
"630 107 OFFCURVE",
"630 180 CURVE SMOOTH",
"630 520 LINE SMOOTH",
"630 593 OFFCURVE",
"610 625 OFFCURVE",
"573 630 CURVE",
"584 605 OFFCURVE",
"590 574 OFFCURVE",
"590 528 CURVE SMOOTH",
"590 172 LINE SMOOTH",
"590 126 OFFCURVE",
"584 95 OFFCURVE",
"573 70 CURVE"
);
},
{
closed = 1;
nodes = (
"681 135 OFFCURVE",
"701 197 OFFCURVE",
"701 312 CURVE SMOOTH",
"701 388 LINE SMOOTH",
"701 503 OFFCURVE",
"681 565 OFFCURVE",
"637 593 CURVE",
"642 575 OFFCURVE",
"645 546 OFFCURVE",
"645 510 CURVE SMOOTH",
"645 190 LINE SMOOTH",
"645 154 OFFCURVE",
"642 125 OFFCURVE",
"637 107 CURVE"
);
}
);
width = 721;
},
{
associatedMasterId = "97739396-C0BE-473D-A663-6DBDEFF9DADD";
background = {
paths = (
{
closed = 1;
nodes = (
"128 572 LINE SMOOTH",
"128 671 OFFCURVE",
"80 700 OFFCURVE",
"30 700 CURVE SMOOTH",
"1 700 LINE",
"1 568 LINE",
"12 568 LINE SMOOTH",
"60 568 OFFCURVE",
"77 551 OFFCURVE",
"77 483 CURVE SMOOTH",
"77 215 LINE SMOOTH",
"77 164 OFFCURVE",
"56 142 OFFCURVE",
"17 142 CURVE SMOOTH",
"1 142 LINE",
"1 0 LINE",
"30 0 LINE SMOOTH",
"92 0 OFFCURVE",
"128 42 OFFCURVE",
"128 138 CURVE SMOOTH"
);
},
{
closed = 1;
nodes = (
"172 0 LINE",
"193 0 LINE",
"193 700 LINE",
"172 700 LINE"
);
},
{
closed = 1;
nodes = (
"237 42 OFFCURVE",
"264 0 OFFCURVE",
"340 0 CURVE SMOOTH",
"349 0 LINE",
"349 131 LINE",
"333 131 LINE SMOOTH",
"301 131 OFFCURVE",
"288 164 OFFCURVE",
"288 215 CURVE SMOOTH",
"288 483 LINE SMOOTH",
"288 551 OFFCURVE",
"297 568 OFFCURVE",
"338 568 CURVE SMOOTH",
"349 568 LINE",
"349 700 LINE",
"340 700 LINE SMOOTH",
"275 700 OFFCURVE",
"237 671 OFFCURVE",
"237 572 CURVE SMOOTH",
"237 138 LINE SMOOTH"
);
},
{
closed = 1;
nodes = (
"555 603 OFFCURVE",
"542 627 OFFCURVE",
"528 650 CURVE",
"501 666 LINE",
"520 635 OFFCURVE",
"534 604 OFFCURVE",
"534 534 CURVE SMOOTH",
"535 166 LINE SMOOTH",
"535 96 OFFCURVE",
"521 65 OFFCURVE",
"502 34 CURVE",
"529 50 LINE",
"543 73 OFFCURVE",
"556 97 OFFCURVE",
"556 177 CURVE SMOOTH",
"555 523 LINE SMOOTH"
);
},
{
closed = 1;
nodes = (
"490 671 OFFCURVE",
"442 700 OFFCURVE",
"377 700 CURVE SMOOTH",
"328 700 LINE",
"328 568 LINE",
"379 568 LINE SMOOTH",
"420 568 OFFCURVE",
"438 496 OFFCURVE",
"439 408 CURVE SMOOTH",
"440 292 LINE SMOOTH",
"441 204 OFFCURVE",
"421 131 OFFCURVE",
"380 131 CURVE SMOOTH",
"329 131 LINE",
"329 0 LINE",
"378 0 LINE SMOOTH",
"443 0 OFFCURVE",
"491 29 OFFCURVE",
"491 148 CURVE SMOOTH",
"490 552 LINE SMOOTH"
);
},
{
closed = 1;
nodes = (
"650 480 OFFCURVE",
"634 567 OFFCURVE",
"579 620 CURVE",
"597 575 OFFCURVE",
"598 533 OFFCURVE",
"599 435 CURVE SMOOTH",
"600 265 LINE SMOOTH",
"601 167 OFFCURVE",
"598 125 OFFCURVE",
"580 80 CURVE",
"634 133 OFFCURVE",
"650 218 OFFCURVE",
"650 315 CURVE SMOOTH",
"650 383 LINE SMOOTH"
);
}
);
};
layerId = "47678F15-4F6C-4B94-8DAB-40CC053CA5C2";
name = "Jun 1 20, 16:03";
paths = (
{
closed = 1;
nodes = (
"364 705 LINE SMOOTH",
"299 705 OFFCURVE",
"238 666 OFFCURVE",
"238 547 CURVE SMOOTH",
"238 419 OFFCURVE",
"237 281 OFFCURVE",
"237 153 CURVE SMOOTH",
"237 34 OFFCURVE",
"295 -5 OFFCURVE",
"355 -5 CURVE SMOOTH",
"420 -5 LINE SMOOTH",
"505 -5 OFFCURVE",
"589 74 OFFCURVE",
"589 173 CURVE SMOOTH",
"589 517 LINE SMOOTH",
"589 656 OFFCURVE",
"505 705 OFFCURVE",
"420 705 CURVE SMOOTH"
);
},
{
closed = 1;
nodes = (
"69 0 LINE SMOOTH",
"131 0 OFFCURVE",
"167 42 OFFCURVE",
"167 138 CURVE SMOOTH",
"167 582 LINE SMOOTH",
"167 669 OFFCURVE",
"124 700 OFFCURVE",
"69 700 CURVE SMOOTH",
"40 700 LINE",
"40 498 LINE",
"51 498 LINE SMOOTH",
"99 498 OFFCURVE",
"116 481 OFFCURVE",
"116 413 CURVE SMOOTH",
"116 275 LINE SMOOTH",
"116 224 OFFCURVE",
"95 202 OFFCURVE",
"56 202 CURVE SMOOTH",
"40 202 LINE",
"40 0 LINE"
);
},
{
closed = 1;
nodes = (
"235 30 LINE",
"222 51 OFFCURVE",
"217 78 OFFCURVE",
"217 119 CURVE SMOOTH",
"217 581 LINE SMOOTH",
"217 622 OFFCURVE",
"222 649 OFFCURVE",
"235 670 CURVE",
"169 670 LINE",
"182 649 OFFCURVE",
"187 622 OFFCURVE",
"187 581 CURVE SMOOTH",
"187 119 LINE SMOOTH",
"187 78 OFFCURVE",
"182 51 OFFCURVE",
"169 30 CURVE"
);
},
{
closed = 1;
nodes = (
"364 190 LINE SMOOTH",
"307 190 OFFCURVE",
"287 242 OFFCURVE",
"288 310 CURVE SMOOTH",
"289 395 LINE SMOOTH",
"290 468 OFFCURVE",
"315 510 OFFCURVE",
"364 510 CURVE SMOOTH",
"413 510 LINE SMOOTH",
"475 510 OFFCURVE",
"534 473 OFFCURVE",
"534 400 CURVE SMOOTH",
"534 300 LINE SMOOTH",
"534 227 OFFCURVE",
"475 190 OFFCURVE",
"413 190 CURVE SMOOTH"
);
},
{
closed = 1;
nodes = (
"677 130 OFFCURVE",
"715 215 OFFCURVE",
"715 332 CURVE SMOOTH",
"715 368 LINE SMOOTH",
"715 485 OFFCURVE",
"677 570 OFFCURVE",
"626 627 CURVE",
"642 595 OFFCURVE",
"659 548 OFFCURVE",
"659 490 CURVE SMOOTH",
"659 211 LINE SMOOTH",
"659 153 OFFCURVE",
"642 105 OFFCURVE",
"626 73 CURVE"
);
},
{
closed = 1;
nodes = (
"579 41 LINE",
"607 73 OFFCURVE",
"639 112 OFFCURVE",
"639 202 CURVE SMOOTH",
"639 498 LINE SMOOTH",
"639 598 OFFCURVE",
"597 649 OFFCURVE",
"577 663 CURVE",
"537 687 LINE",
"588 643 OFFCURVE",
"609 599 OFFCURVE",
"609 508 CURVE SMOOTH",
"609 186 LINE SMOOTH",
"609 119 OFFCURVE",
"591 69 OFFCURVE",
"537 18 CURVE"
);
}
);
width = 735;
},
{
associatedMasterId = "97739396-C0BE-473D-A663-6DBDEFF9DADD";
background = {
paths = (
{
closed = 1;
nodes = (
"349 705 LINE SMOOTH",
"284 705 OFFCURVE",
"223 666 OFFCURVE",
"223 547 CURVE SMOOTH",
"222 153 LINE SMOOTH",
"222 34 OFFCURVE",
"280 -5 OFFCURVE",
"340 -5 CURVE SMOOTH",
"373 -5 LINE SMOOTH",
"502 -5 OFFCURVE",
"574 39 OFFCURVE",
"574 188 CURVE SMOOTH",
"574 512 LINE SMOOTH",
"574 661 OFFCURVE",
"502 705 OFFCURVE",
"373 705 CURVE SMOOTH"
);
},
{
closed = 1;
nodes = (
"54 0 LINE SMOOTH",
"116 0 OFFCURVE",
"147 42 OFFCURVE",
"147 138 CURVE SMOOTH",
"147 582 LINE SMOOTH",
"147 669 OFFCURVE",
"109 700 OFFCURVE",
"54 700 CURVE SMOOTH",
"25 700 LINE",
"25 498 LINE",
"36 498 LINE SMOOTH",
"84 498 OFFCURVE",
"101 481 OFFCURVE",
"101 413 CURVE SMOOTH",
"101 275 LINE SMOOTH",
"101 224 OFFCURVE",
"80 202 OFFCURVE",
"41 202 CURVE SMOOTH",
"25 202 LINE",
"25 0 LINE"
);
},
{
closed = 1;
nodes = (
"225 30 LINE",
"212 51 OFFCURVE",
"207 78 OFFCURVE",
"207 119 CURVE SMOOTH",
"207 581 LINE SMOOTH",
"207 622 OFFCURVE",
"212 649 OFFCURVE",
"225 670 CURVE",
"144 670 LINE",
"157 649 OFFCURVE",
"162 622 OFFCURVE",
"162 581 CURVE SMOOTH",
"162 119 LINE SMOOTH",
"162 78 OFFCURVE",
"157 51 OFFCURVE",
"144 30 CURVE"
);
},
{
closed = 1;
nodes = (
"470 510 OFFCURVE",
"519 473 OFFCURVE",
"519 400 CURVE SMOOTH",
"519 300 LINE SMOOTH",
"519 227 OFFCURVE",
"470 190 OFFCURVE",
"388 190 CURVE SMOOTH",
"349 190 LINE SMOOTH",
"300 190 OFFCURVE",
"273 230 OFFCURVE",
"273 310 CURVE SMOOTH",
"273 390 LINE SMOOTH",
"273 470 OFFCURVE",
"300 510 OFFCURVE",
"349 510 CURVE SMOOTH",
"388 510 LINE SMOOTH"
);
},
{
closed = 1;
nodes = (
"644 168 OFFCURVE",
"641 128 OFFCURVE",
"636 108 CURVE",
"678 140 OFFCURVE",
"700 202 OFFCURVE",
"700 317 CURVE SMOOTH",
"700 383 LINE SMOOTH",
"700 498 OFFCURVE",
"678 560 OFFCURVE",
"636 592 CURVE",
"641 572 OFFCURVE",
"644 532 OFFCURVE",
"644 505 CURVE SMOOTH",
"644 195 LINE SMOOTH"
);
},
{
closed = 1;
nodes = (
"624 513 LINE SMOOTH",
"624 601 OFFCURVE",
"610 625 OFFCURVE",
"578 633 CURVE",
"589 600 OFFCURVE",
"594 568 OFFCURVE",
"594 523 CURVE SMOOTH",
"594 177 LINE SMOOTH",
"594 132 OFFCURVE",
"589 100 OFFCURVE",
"578 67 CURVE",
"610 75 OFFCURVE",
"624 99 OFFCURVE",
"624 187 CURVE SMOOTH"
);
}
);
};
layerId = "F101E04F-ED2A-4BC4-B8A1-156B338CBC72";
name = "Jun 29 20, 15:22";
paths = (
{
closed = 1;
nodes = (
"373 -5 LINE SMOOTH",
"465 -5 OFFCURVE",
"575 35 OFFCURVE",
"575 235 CURVE SMOOTH",
"575 465 LINE SMOOTH",
"575 665 OFFCURVE",
"465 705 OFFCURVE",
"373 705 CURVE SMOOTH",
"349 705 LINE SMOOTH",
"283 705 OFFCURVE",
"222 669 OFFCURVE",
"222 582 CURVE SMOOTH",
"222 138 LINE SMOOTH",
"222 42 OFFCURVE",
"269 -5 OFFCURVE",
"340 -5 CURVE SMOOTH"
);
},
{
closed = 1;
nodes = (
"49 0 LINE SMOOTH",
"120 0 OFFCURVE",
"152 42 OFFCURVE",
"152 138 CURVE SMOOTH",
"152 582 LINE SMOOTH",
"152 669 OFFCURVE",
"114 700 OFFCURVE",
"49 700 CURVE SMOOTH",
"40 700 LINE",
"40 498 LINE",
"51 498 LINE SMOOTH",
"92 498 OFFCURVE",
"102 481 OFFCURVE",
"102 413 CURVE SMOOTH",
"102 275 LINE SMOOTH",
"102 224 OFFCURVE",
"88 202 OFFCURVE",
"56 202 CURVE SMOOTH",
"40 202 LINE",
"40 0 LINE"
);
},
{
closed = 1;
nodes = (
"225 30 LINE",
"212 51 OFFCURVE",
"207 78 OFFCURVE",
"207 119 CURVE SMOOTH",
"207 581 LINE SMOOTH",
"207 622 OFFCURVE",
"212 649 OFFCURVE",
"225 670 CURVE",
"149 670 LINE",
"162 649 OFFCURVE",
"167 622 OFFCURVE",
"167 581 CURVE SMOOTH",
"167 119 LINE SMOOTH",
"167 78 OFFCURVE",
"162 51 OFFCURVE",
"149 30 CURVE"
);
},
{
closed = 1;
nodes = (
"369 190 LINE SMOOTH",
"317 190 OFFCURVE",
"272 224 OFFCURVE",
"272 275 CURVE SMOOTH",
"272 413 LINE SMOOTH",
"272 482 OFFCURVE",
"308 510 OFFCURVE",
"367 510 CURVE SMOOTH",
"387 510 LINE SMOOTH",
"469 510 OFFCURVE",
"520 473 OFFCURVE",
"520 400 CURVE SMOOTH",
"520 300 LINE SMOOTH",
"520 227 OFFCURVE",
"469 190 OFFCURVE",
"387 190 CURVE SMOOTH"
);
},
{
closed = 1;
nodes = (
"583 44 OFFCURVE",
"630 98 OFFCURVE",
"630 206 CURVE SMOOTH",
"630 494 LINE SMOOTH",
"630 602 OFFCURVE",
"583 656 OFFCURVE",
"525 669 CURVE",
"569 628 OFFCURVE",
"590 570 OFFCURVE",
"590 475 CURVE SMOOTH",
"590 225 LINE SMOOTH",
"590 130 OFFCURVE",
"569 72 OFFCURVE",
"525 31 CURVE"
);
},
{
closed = 1;
nodes = (
"663 125 OFFCURVE",
"701 197 OFFCURVE",
"701 312 CURVE SMOOTH",
"701 388 LINE SMOOTH",
"701 503 OFFCURVE",
"663 575 OFFCURVE",
"621 607 CURVE",
"634 586 OFFCURVE",
"645 553 OFFCURVE",
"645 506 CURVE SMOOTH",
"645 194 LINE SMOOTH",
"645 147 OFFCURVE",
"634 114 OFFCURVE",
"621 93 CURVE"
);
}
);
width = 720;
},
{
anchors = (
{
name = bottom;
position = "{225, 0}";
},
{
name = center;
position = "{225, 350}";
},
{
name = top;
position = "{225, 700}";
}
);
layerId = "57E3185A-4375-48AC-BD50-0CEDF403F65C";
paths = (
{
closed = 1;
nodes = (
"224 0 LINE SMOOTH",
"353 0 OFFCURVE",
"420 89 OFFCURVE",
"420 278 CURVE SMOOTH",
"420 422 LINE SMOOTH",
"420 611 OFFCURVE",
"353 700 OFFCURVE",
"224 700 CURVE SMOOTH",
"155 700 LINE SMOOTH",
"83 700 OFFCURVE",
"55 672 OFFCURVE",
"55 600 CURVE SMOOTH",
"55 100 LINE SMOOTH",
"55 28 OFFCURVE",
"83 0 OFFCURVE",
"155 0 CURVE SMOOTH"
);
},
{
closed = 1;
nodes = (
"121 200 OFFCURVE",
"105 221 OFFCURVE",
"105 290 CURVE SMOOTH",
"105 410 LINE SMOOTH",
"105 480 OFFCURVE",
"121 500 OFFCURVE",
"175 500 CURVE SMOOTH",
"229 500 LINE SMOOTH",
"313 500 OFFCURVE",
"370 454 OFFCURVE",
"370 355 CURVE SMOOTH",
"370 340 LINE SMOOTH",
"370 241 OFFCURVE",
"313 200 OFFCURVE",
"229 200 CURVE SMOOTH",
"175 200 LINE SMOOTH"
);
}
);
width = 450;
},
{
associatedMasterId = "57E3185A-4375-48AC-BD50-0CEDF403F65C";
background = {
paths = (
{
closed = 1;
nodes = (
"128 572 LINE SMOOTH",
"128 671 OFFCURVE",
"80 700 OFFCURVE",
"30 700 CURVE SMOOTH",
"1 700 LINE",
"1 568 LINE",
"12 568 LINE SMOOTH",
"60 568 OFFCURVE",
"77 551 OFFCURVE",
"77 483 CURVE SMOOTH",
"77 215 LINE SMOOTH",
"77 164 OFFCURVE",
"56 142 OFFCURVE",
"17 142 CURVE SMOOTH",
"1 142 LINE",
"1 0 LINE",
"30 0 LINE SMOOTH",
"92 0 OFFCURVE",
"128 42 OFFCURVE",
"128 138 CURVE SMOOTH"
);
},
{
closed = 1;
nodes = (
"172 0 LINE",
"193 0 LINE",
"193 700 LINE",
"172 700 LINE"
);
},
{
closed = 1;
nodes = (
"237 42 OFFCURVE",
"264 0 OFFCURVE",
"340 0 CURVE SMOOTH",
"349 0 LINE",
"349 131 LINE",
"333 131 LINE SMOOTH",
"301 131 OFFCURVE",
"288 164 OFFCURVE",
"288 215 CURVE SMOOTH",
"288 483 LINE SMOOTH",
"288 551 OFFCURVE",
"297 568 OFFCURVE",
"338 568 CURVE SMOOTH",
"349 568 LINE",
"349 700 LINE",
"340 700 LINE SMOOTH",
"275 700 OFFCURVE",
"237 671 OFFCURVE",
"237 572 CURVE SMOOTH",
"237 138 LINE SMOOTH"
);
},
{
closed = 1;
nodes = (
"555 603 OFFCURVE",
"542 627 OFFCURVE",
"528 650 CURVE",
"501 666 LINE",
"520 635 OFFCURVE",
"534 604 OFFCURVE",
"534 534 CURVE SMOOTH",
"535 166 LINE SMOOTH",
"535 96 OFFCURVE",
"521 65 OFFCURVE",
"502 34 CURVE",
"529 50 LINE",
"543 73 OFFCURVE",
"556 97 OFFCURVE",
"556 177 CURVE SMOOTH",
"555 523 LINE SMOOTH"
);
},
{
closed = 1;
nodes = (
"490 671 OFFCURVE",
"442 700 OFFCURVE",
"377 700 CURVE SMOOTH",
"328 700 LINE",
"328 568 LINE",
"379 568 LINE SMOOTH",
"420 568 OFFCURVE",
"438 496 OFFCURVE",
"439 408 CURVE SMOOTH",
"440 292 LINE SMOOTH",
"441 204 OFFCURVE",
"421 131 OFFCURVE",
"380 131 CURVE SMOOTH",
"329 131 LINE",
"329 0 LINE",
"378 0 LINE SMOOTH",
"443 0 OFFCURVE",
"491 29 OFFCURVE",
"491 148 CURVE SMOOTH",
"490 552 LINE SMOOTH"
);
},
{
closed = 1;
nodes = (
"650 480 OFFCURVE",
"634 567 OFFCURVE",
"579 620 CURVE",
"597 575 OFFCURVE",
"598 533 OFFCURVE",
"599 435 CURVE SMOOTH",
"600 265 LINE SMOOTH",
"601 167 OFFCURVE",
"598 125 OFFCURVE",
"580 80 CURVE",
"634 133 OFFCURVE",
"650 218 OFFCURVE",
"650 315 CURVE SMOOTH",
"650 383 LINE SMOOTH"
);
}
);
};
layerId = "2F7E64E9-203F-45F9-80E6-325F45BAF153";
name = "Jun 1 20, 16:03";
paths = (
{
closed = 1;
nodes = (
"364 705 LINE SMOOTH",
"299 705 OFFCURVE",
"238 666 OFFCURVE",
"238 547 CURVE SMOOTH",
"238 419 OFFCURVE",
"237 281 OFFCURVE",
"237 153 CURVE SMOOTH",
"237 34 OFFCURVE",
"295 -5 OFFCURVE",
"355 -5 CURVE SMOOTH",
"420 -5 LINE SMOOTH",
"505 -5 OFFCURVE",
"589 74 OFFCURVE",
"589 173 CURVE SMOOTH",
"589 517 LINE SMOOTH",
"589 656 OFFCURVE",
"505 705 OFFCURVE",
"420 705 CURVE SMOOTH"
);
},
{
closed = 1;
nodes = (
"69 0 LINE SMOOTH",
"131 0 OFFCURVE",
"167 42 OFFCURVE",
"167 138 CURVE SMOOTH",
"167 582 LINE SMOOTH",
"167 669 OFFCURVE",
"124 700 OFFCURVE",
"69 700 CURVE SMOOTH",
"40 700 LINE",
"40 498 LINE",
"51 498 LINE SMOOTH",
"99 498 OFFCURVE",
"116 481 OFFCURVE",
"116 413 CURVE SMOOTH",
"116 275 LINE SMOOTH",
"116 224 OFFCURVE",
"95 202 OFFCURVE",
"56 202 CURVE SMOOTH",
"40 202 LINE",
"40 0 LINE"
);
},
{
closed = 1;
nodes = (
"235 30 LINE",
"222 51 OFFCURVE",
"217 78 OFFCURVE",
"217 119 CURVE SMOOTH",
"217 581 LINE SMOOTH",
"217 622 OFFCURVE",
"222 649 OFFCURVE",
"235 670 CURVE",
"169 670 LINE",
"182 649 OFFCURVE",
"187 622 OFFCURVE",
"187 581 CURVE SMOOTH",
"187 119 LINE SMOOTH",
"187 78 OFFCURVE",
"182 51 OFFCURVE",
"169 30 CURVE"
);
},
{
closed = 1;
nodes = (
"364 190 LINE SMOOTH",
"307 190 OFFCURVE",
"287 242 OFFCURVE",
"288 310 CURVE SMOOTH",
"289 395 LINE SMOOTH",
"290 468 OFFCURVE",
"315 510 OFFCURVE",
"364 510 CURVE SMOOTH",
"413 510 LINE SMOOTH",
"475 510 OFFCURVE",
"534 473 OFFCURVE",
"534 400 CURVE SMOOTH",
"534 300 LINE SMOOTH",
"534 227 OFFCURVE",
"475 190 OFFCURVE",
"413 190 CURVE SMOOTH"
);
},
{
closed = 1;
nodes = (
"677 130 OFFCURVE",
"715 215 OFFCURVE",
"715 332 CURVE SMOOTH",
"715 368 LINE SMOOTH",
"715 485 OFFCURVE",
"677 570 OFFCURVE",
"626 627 CURVE",
"642 595 OFFCURVE",
"659 548 OFFCURVE",
"659 490 CURVE SMOOTH",
"659 211 LINE SMOOTH",
"659 153 OFFCURVE",
"642 105 OFFCURVE",
"626 73 CURVE"
);
},
{
closed = 1;
nodes = (
"579 41 LINE",
"607 73 OFFCURVE",
"639 112 OFFCURVE",
"639 202 CURVE SMOOTH",
"639 498 LINE SMOOTH",
"639 598 OFFCURVE",
"597 649 OFFCURVE",
"577 663 CURVE",
"537 687 LINE",
"588 643 OFFCURVE",
"609 599 OFFCURVE",
"609 508 CURVE SMOOTH",
"609 186 LINE SMOOTH",
"609 119 OFFCURVE",
"591 69 OFFCURVE",
"537 18 CURVE"
);
}
);
width = 735;
},
{
associatedMasterId = "57E3185A-4375-48AC-BD50-0CEDF403F65C";
background = {
paths = (
{
closed = 1;
nodes = (
"349 705 LINE SMOOTH",
"284 705 OFFCURVE",
"223 666 OFFCURVE",
"223 547 CURVE SMOOTH",
"222 153 LINE SMOOTH",
"222 34 OFFCURVE",
"280 -5 OFFCURVE",
"340 -5 CURVE SMOOTH",
"373 -5 LINE SMOOTH",
"502 -5 OFFCURVE",
"574 39 OFFCURVE",
"574 188 CURVE SMOOTH",
"574 512 LINE SMOOTH",
"574 661 OFFCURVE",
"502 705 OFFCURVE",
"373 705 CURVE SMOOTH"
);
},
{
closed = 1;
nodes = (
"54 0 LINE SMOOTH",
"116 0 OFFCURVE",
"147 42 OFFCURVE",
"147 138 CURVE SMOOTH",
"147 582 LINE SMOOTH",
"147 669 OFFCURVE",
"109 700 OFFCURVE",
"54 700 CURVE SMOOTH",
"25 700 LINE",
"25 498 LINE",
"36 498 LINE SMOOTH",
"84 498 OFFCURVE",
"101 481 OFFCURVE",
"101 413 CURVE SMOOTH",
"101 275 LINE SMOOTH",
"101 224 OFFCURVE",
"80 202 OFFCURVE",
"41 202 CURVE SMOOTH",
"25 202 LINE",
"25 0 LINE"
);
},
{
closed = 1;
nodes = (
"225 30 LINE",
"212 51 OFFCURVE",
"207 78 OFFCURVE",
"207 119 CURVE SMOOTH",
"207 581 LINE SMOOTH",
"207 622 OFFCURVE",
"212 649 OFFCURVE",
"225 670 CURVE",
"144 670 LINE",
"157 649 OFFCURVE",
"162 622 OFFCURVE",
"162 581 CURVE SMOOTH",
"162 119 LINE SMOOTH",
"162 78 OFFCURVE",
"157 51 OFFCURVE",
"144 30 CURVE"
);
},
{
closed = 1;
nodes = (
"470 510 OFFCURVE",
"519 473 OFFCURVE",
"519 400 CURVE SMOOTH",
"519 300 LINE SMOOTH",
"519 227 OFFCURVE",
"470 190 OFFCURVE",
"388 190 CURVE SMOOTH",
"349 190 LINE SMOOTH",
"300 190 OFFCURVE",
"273 230 OFFCURVE",
"273 310 CURVE SMOOTH",
"273 390 LINE SMOOTH",
"273 470 OFFCURVE",
"300 510 OFFCURVE",
"349 510 CURVE SMOOTH",
"388 510 LINE SMOOTH"
);
},
{
closed = 1;
nodes = (
"644 168 OFFCURVE",
"641 128 OFFCURVE",
"636 108 CURVE",
"678 140 OFFCURVE",
"700 202 OFFCURVE",
"700 317 CURVE SMOOTH",
"700 383 LINE SMOOTH",
"700 498 OFFCURVE",
"678 560 OFFCURVE",
"636 592 CURVE",
"641 572 OFFCURVE",
"644 532 OFFCURVE",
"644 505 CURVE SMOOTH",
"644 195 LINE SMOOTH"
);
},
{
closed = 1;
nodes = (
"624 513 LINE SMOOTH",
"624 601 OFFCURVE",
"610 625 OFFCURVE",
"578 633 CURVE",
"589 600 OFFCURVE",
"594 568 OFFCURVE",
"594 523 CURVE SMOOTH",
"594 177 LINE SMOOTH",
"594 132 OFFCURVE",
"589 100 OFFCURVE",
"578 67 CURVE",
"610 75 OFFCURVE",
"624 99 OFFCURVE",
"624 187 CURVE SMOOTH"
);
}
);
};
layerId = "6F08F2D5-492F-4D9A-AD0B-DC5C5DBA99BF";
name = "Jun 29 20, 15:22";
paths = (
{
closed = 1;
nodes = (
"373 -5 LINE SMOOTH",
"465 -5 OFFCURVE",
"575 35 OFFCURVE",
"575 235 CURVE SMOOTH",
"575 465 LINE SMOOTH",
"575 665 OFFCURVE",
"465 705 OFFCURVE",
"373 705 CURVE SMOOTH",
"349 705 LINE SMOOTH",
"283 705 OFFCURVE",
"222 669 OFFCURVE",
"222 582 CURVE SMOOTH",
"222 138 LINE SMOOTH",
"222 42 OFFCURVE",
"269 -5 OFFCURVE",
"340 -5 CURVE SMOOTH"
);
},
{
closed = 1;
nodes = (
"49 0 LINE SMOOTH",
"120 0 OFFCURVE",
"152 42 OFFCURVE",
"152 138 CURVE SMOOTH",
"152 582 LINE SMOOTH",
"152 669 OFFCURVE",
"114 700 OFFCURVE",
"49 700 CURVE SMOOTH",
"40 700 LINE",
"40 498 LINE",
"51 498 LINE SMOOTH",
"92 498 OFFCURVE",
"102 481 OFFCURVE",
"102 413 CURVE SMOOTH",
"102 275 LINE SMOOTH",
"102 224 OFFCURVE",
"88 202 OFFCURVE",
"56 202 CURVE SMOOTH",
"40 202 LINE",
"40 0 LINE"
);
},
{
closed = 1;
nodes = (
"225 30 LINE",
"212 51 OFFCURVE",
"207 78 OFFCURVE",
"207 119 CURVE SMOOTH",
"207 581 LINE SMOOTH",
"207 622 OFFCURVE",
"212 649 OFFCURVE",
"225 670 CURVE",
"149 670 LINE",
"162 649 OFFCURVE",
"167 622 OFFCURVE",
"167 581 CURVE SMOOTH",
"167 119 LINE SMOOTH",
"167 78 OFFCURVE",
"162 51 OFFCURVE",
"149 30 CURVE"
);
},
{
closed = 1;
nodes = (
"369 190 LINE SMOOTH",
"317 190 OFFCURVE",
"272 224 OFFCURVE",
"272 275 CURVE SMOOTH",
"272 413 LINE SMOOTH",
"272 482 OFFCURVE",
"308 510 OFFCURVE",
"367 510 CURVE SMOOTH",
"387 510 LINE SMOOTH",
"469 510 OFFCURVE",
"520 473 OFFCURVE",
"520 400 CURVE SMOOTH",
"520 300 LINE SMOOTH",
"520 227 OFFCURVE",
"469 190 OFFCURVE",
"387 190 CURVE SMOOTH"
);
},
{
closed = 1;
nodes = (
"583 44 OFFCURVE",
"630 98 OFFCURVE",
"630 206 CURVE SMOOTH",
"630 494 LINE SMOOTH",
"630 602 OFFCURVE",
"583 656 OFFCURVE",
"525 669 CURVE",
"569 628 OFFCURVE",
"590 570 OFFCURVE",
"590 475 CURVE SMOOTH",
"590 225 LINE SMOOTH",
"590 130 OFFCURVE",
"569 72 OFFCURVE",
"525 31 CURVE"
);
},
{
closed = 1;
nodes = (
"663 125 OFFCURVE",
"701 197 OFFCURVE",
"701 312 CURVE SMOOTH",
"701 388 LINE SMOOTH",
"701 503 OFFCURVE",
"663 575 OFFCURVE",
"621 607 CURVE",
"634 586 OFFCURVE",
"645 553 OFFCURVE",
"645 506 CURVE SMOOTH",
"645 194 LINE SMOOTH",
"645 147 OFFCURVE",
"634 114 OFFCURVE",
"621 93 CURVE"
);
}
);
width = 720;
}
);
leftKerningGroup = H;
leftMetricsKey = H;
rightKerningGroup = O;
unicode = 0044;
},
{
color = 4;
glyphname = Eth;
lastChange = "2020-09-01 17:11:10 +0000";
layers = (
{
layerId = "97739396-C0BE-473D-A663-6DBDEFF9DADD";
paths = (
{
closed = 1;
nodes = (
"373 -5 LINE SMOOTH",
"502 -5 OFFCURVE",
"575 34 OFFCURVE",
"575 183 CURVE SMOOTH",
"575 517 LINE SMOOTH",
"575 666 OFFCURVE",
"502 705 OFFCURVE",
"373 705 CURVE SMOOTH",
"349 705 LINE SMOOTH",
"283 705 OFFCURVE",
"222 669 OFFCURVE",
"222 582 CURVE SMOOTH",
"222 138 LINE SMOOTH",
"222 42 OFFCURVE",
"269 -5 OFFCURVE",
"340 -5 CURVE SMOOTH"
);
},
{
closed = 1;
nodes = (
"133 324 LINE",
"133 374 LINE",
"40 374 LINE",
"40 324 LINE"
);
},
{
closed = 1;
nodes = (
"49 0 LINE SMOOTH",
"120 0 OFFCURVE",
"152 42 OFFCURVE",
"152 138 CURVE SMOOTH",
"152 582 LINE SMOOTH",
"152 669 OFFCURVE",
"114 700 OFFCURVE",
"49 700 CURVE SMOOTH",
"40 700 LINE",
"40 498 LINE",
"51 498 LINE SMOOTH",
"92 498 OFFCURVE",
"102 481 OFFCURVE",
"102 413 CURVE SMOOTH",
"102 275 LINE SMOOTH",
"102 224 OFFCURVE",
"88 202 OFFCURVE",
"56 202 CURVE SMOOTH",
"40 202 LINE",
"40 0 LINE"
);
},
{
closed = 1;
nodes = (
"225 30 LINE",
"212 51 OFFCURVE",
"207 78 OFFCURVE",
"207 119 CURVE SMOOTH",
"207 581 LINE SMOOTH",
"207 622 OFFCURVE",
"212 649 OFFCURVE",
"225 670 CURVE",
"149 670 LINE",
"162 649 OFFCURVE",
"167 622 OFFCURVE",
"167 581 CURVE SMOOTH",
"167 119 LINE SMOOTH",
"167 78 OFFCURVE",
"162 51 OFFCURVE",
"149 30 CURVE"
);
},
{
closed = 1;
nodes = (
"362 324 LINE",
"362 374 LINE",
"226 374 LINE",
"226 324 LINE"
);
},
{
closed = 1;
nodes = (
"317 190 OFFCURVE",
"272 224 OFFCURVE",
"272 275 CURVE SMOOTH",
"272 413 LINE SMOOTH",
"272 482 OFFCURVE",
"308 510 OFFCURVE",
"367 510 CURVE SMOOTH",
"399 510 LINE SMOOTH",
"461 510 OFFCURVE",
"520 473 OFFCURVE",
"520 400 CURVE SMOOTH",
"520 300 LINE SMOOTH",
"520 227 OFFCURVE",
"461 190 OFFCURVE",
"399 190 CURVE SMOOTH",
"369 190 LINE SMOOTH"
);
},
{
closed = 1;
nodes = (
"610 75 OFFCURVE",
"630 107 OFFCURVE",
"630 180 CURVE SMOOTH",
"630 520 LINE SMOOTH",
"630 593 OFFCURVE",
"610 625 OFFCURVE",
"573 630 CURVE",
"584 605 OFFCURVE",
"590 574 OFFCURVE",
"590 528 CURVE SMOOTH",
"590 172 LINE SMOOTH",
"590 126 OFFCURVE",
"584 95 OFFCURVE",
"573 70 CURVE"
);
},
{
closed = 1;
nodes = (
"681 135 OFFCURVE",
"701 197 OFFCURVE",
"701 312 CURVE SMOOTH",
"701 388 LINE SMOOTH",
"701 503 OFFCURVE",
"681 565 OFFCURVE",
"637 593 CURVE",
"642 575 OFFCURVE",
"645 546 OFFCURVE",
"645 510 CURVE SMOOTH",
"645 190 LINE SMOOTH",
"645 154 OFFCURVE",
"642 125 OFFCURVE",
"637 107 CURVE"
);
}
);
width = 721;
},
{
components = (
{
name = D;
}
);
layerId = "57E3185A-4375-48AC-BD50-0CEDF403F65C";
paths = (
{
closed = 1;
nodes = (
"240 335 LINE",
"240 385 LINE",
"0 385 LINE",
"0 335 LINE"
);
}
);
width = 450;
}
);
leftKerningGroup = H;
rightKerningGroup = O;
unicode = 00D0;
},
{
color = 4;
glyphname = E;
lastChange = "2020-09-01 14:43:50 +0000";
layers = (
{
anchors = (
{
name = bottom;
position = "{288, 0}";
},
{
name = ogonek;
position = "{530, 0}";
},
{
name = top;
position = "{288, 700}";
},
{
name = topleft;
position = "{20, 700}";
}
);
layerId = "97739396-C0BE-473D-A663-6DBDEFF9DADD";
paths = (
{
closed = 1;
nodes = (
"432 0 LINE SMOOTH",
"505 0 OFFCURVE",
"530 24 OFFCURVE",
"530 67 CURVE SMOOTH",
"530 256 LINE",
"480 256 LINE",
"480 220 OFFCURVE",
"463 200 OFFCURVE",
"429 200 CURVE SMOOTH",
"328 200 LINE SMOOTH",
"286 200 OFFCURVE",
"272 224 OFFCURVE",
"272 275 CURVE SMOOTH",
"272 413 LINE SMOOTH",
"272 482 OFFCURVE",
"286 505 OFFCURVE",
"327 505 CURVE SMOOTH",
"410 505 LINE SMOOTH",
"459 505 OFFCURVE",
"480 480 OFFCURVE",
"480 425 CURVE",
"530 425 LINE",
"530 626 LINE SMOOTH",
"530 670 OFFCURVE",
"509 700 OFFCURVE",
"440 700 CURVE SMOOTH",
"325 700 LINE SMOOTH",
"259 700 OFFCURVE",
"222 669 OFFCURVE",
"222 582 CURVE SMOOTH",
"222 138 LINE SMOOTH",
"222 42 OFFCURVE",
"254 0 OFFCURVE",
"325 0 CURVE SMOOTH"
);
},
{
closed = 1;
nodes = (
"49 0 LINE SMOOTH",
"120 0 OFFCURVE",
"152 42 OFFCURVE",
"152 138 CURVE SMOOTH",
"152 582 LINE SMOOTH",
"152 669 OFFCURVE",
"114 700 OFFCURVE",
"49 700 CURVE SMOOTH",
"40 700 LINE",
"40 500 LINE",
"51 500 LINE SMOOTH",
"92 500 OFFCURVE",
"102 483 OFFCURVE",
"102 415 CURVE SMOOTH",
"102 273 LINE SMOOTH",
"102 222 OFFCURVE",
"88 200 OFFCURVE",
"56 200 CURVE SMOOTH",
"40 200 LINE",
"40 0 LINE"
);
},
{
closed = 1;
nodes = (
"225 30 LINE",
"212 51 OFFCURVE",
"207 78 OFFCURVE",
"207 119 CURVE SMOOTH",
"207 581 LINE SMOOTH",
"207 622 OFFCURVE",
"212 649 OFFCURVE",
"225 670 CURVE",
"149 670 LINE",
"162 649 OFFCURVE",
"167 622 OFFCURVE",
"167 581 CURVE SMOOTH",
"167 119 LINE SMOOTH",
"167 78 OFFCURVE",
"162 51 OFFCURVE",
"149 30 CURVE"
);
},
{
closed = 1;
nodes = (
"432 305 LINE",
"432 415 LINE",
"398 415 LINE",
"380 395 OFFCURVE",
"370 385 OFFCURVE",
"351 385 CURVE SMOOTH",
"258 385 LINE",
"258 335 LINE",
"351 335 LINE SMOOTH",
"373 335 OFFCURVE",
"392 328 OFFCURVE",
"398 305 CURVE"
);
}
);
width = 565;
},
{
associatedMasterId = "97739396-C0BE-473D-A663-6DBDEFF9DADD";
layerId = "DBA301A9-C32E-48E2-8586-65F9E47DCC33";
name = "Jun 1 20, 12:08";
paths = (
{
closed = 1;
nodes = (
"482 0 LINE SMOOTH",
"538 0 OFFCURVE",
"590 26 OFFCURVE",
"590 87 CURVE SMOOTH",
"590 276 LINE",
"533 276 LINE",
"533 227 OFFCURVE",
"516 200 OFFCURVE",
"482 200 CURVE SMOOTH",
"353 200 LINE SMOOTH",
"321 200 OFFCURVE",
"307 222 OFFCURVE",
"307 273 CURVE SMOOTH",
"307 420 LINE SMOOTH",
"307 488 OFFCURVE",
"317 505 OFFCURVE",
"358 505 CURVE SMOOTH",
"455 505 LINE SMOOTH",
"504 505 OFFCURVE",
"525 490 OFFCURVE",
"525 450 CURVE SMOOTH",
"525 405 LINE",
"575 405 LINE",
"575 616 LINE SMOOTH",
"575 671 OFFCURVE",
"544 700 OFFCURVE",
"475 700 CURVE SMOOTH",
"360 700 LINE SMOOTH",
"289 700 OFFCURVE",
"257 669 OFFCURVE",
"257 582 CURVE SMOOTH",
"257 138 LINE SMOOTH",
"257 42 OFFCURVE",
"284 0 OFFCURVE",
"360 0 CURVE SMOOTH"
);
},
{
closed = 1;
nodes = (
"69 0 LINE SMOOTH",
"131 0 OFFCURVE",
"167 42 OFFCURVE",
"167 138 CURVE SMOOTH",
"167 582 LINE SMOOTH",
"167 669 OFFCURVE",
"124 700 OFFCURVE",
"69 700 CURVE SMOOTH",
"40 700 LINE",
"40 498 LINE",
"51 498 LINE SMOOTH",
"99 498 OFFCURVE",
"117 481 OFFCURVE",
"117 413 CURVE SMOOTH",
"117 275 LINE SMOOTH",
"117 224 OFFCURVE",
"95 202 OFFCURVE",
"56 202 CURVE SMOOTH",
"40 202 LINE",
"40 0 LINE"
);
},
{
closed = 1;
nodes = (
"245 30 LINE",
"232 51 OFFCURVE",
"227 78 OFFCURVE",
"227 119 CURVE SMOOTH",
"227 581 LINE SMOOTH",
"227 622 OFFCURVE",
"232 649 OFFCURVE",
"245 670 CURVE",
"179 670 LINE",
"192 649 OFFCURVE",
"197 622 OFFCURVE",
"197 581 CURVE SMOOTH",
"197 119 LINE SMOOTH",
"197 78 OFFCURVE",
"192 51 OFFCURVE",
"179 30 CURVE"
);
},
{
closed = 1;
nodes = (
"467 305 LINE",
"467 415 LINE",
"433 415 LINE",
"414 395 OFFCURVE",
"405 385 OFFCURVE",
"386 385 CURVE SMOOTH",
"293 385 LINE",
"293 335 LINE",
"386 335 LINE SMOOTH",
"408 335 OFFCURVE",
"427 328 OFFCURVE",
"433 305 CURVE"
);
}
);
width = 610;
},
{
associatedMasterId = "97739396-C0BE-473D-A663-6DBDEFF9DADD";
layerId = "23193C4F-5E80-4BD0-B1C8-412B610448EC";
name = "Jun 1 20, 12:17";
paths = (
{
closed = 1;
nodes = (
"462 0 LINE SMOOTH",
"518 0 OFFCURVE",
"570 26 OFFCURVE",
"570 87 CURVE SMOOTH",
"570 276 LINE",
"513 276 LINE",
"513 227 OFFCURVE",
"496 200 OFFCURVE",
"462 200 CURVE SMOOTH",
"333 200 LINE SMOOTH",
"301 200 OFFCURVE",
"287 222 OFFCURVE",
"287 273 CURVE SMOOTH",
"287 420 LINE SMOOTH",
"287 488 OFFCURVE",
"297 505 OFFCURVE",
"338 505 CURVE SMOOTH",
"435 505 LINE SMOOTH",
"484 505 OFFCURVE",
"505 490 OFFCURVE",
"505 450 CURVE SMOOTH",
"505 405 LINE",
"555 405 LINE",
"555 616 LINE SMOOTH",
"555 671 OFFCURVE",
"524 700 OFFCURVE",
"455 700 CURVE SMOOTH",
"340 700 LINE SMOOTH",
"269 700 OFFCURVE",
"237 669 OFFCURVE",
"237 582 CURVE SMOOTH",
"237 138 LINE SMOOTH",
"237 42 OFFCURVE",
"264 0 OFFCURVE",
"340 0 CURVE SMOOTH"
);
},
{
closed = 1;
nodes = (
"69 0 LINE SMOOTH",
"131 0 OFFCURVE",
"167 42 OFFCURVE",
"167 138 CURVE SMOOTH",
"167 582 LINE SMOOTH",
"167 669 OFFCURVE",
"124 700 OFFCURVE",
"69 700 CURVE SMOOTH",
"40 700 LINE",
"40 498 LINE",
"51 498 LINE SMOOTH",
"99 498 OFFCURVE",
"117 481 OFFCURVE",
"117 413 CURVE SMOOTH",
"117 275 LINE SMOOTH",
"117 224 OFFCURVE",
"95 202 OFFCURVE",
"56 202 CURVE SMOOTH",
"40 202 LINE",
"40 0 LINE"
);
},
{
closed = 1;
nodes = (
"235 30 LINE",
"222 51 OFFCURVE",
"217 78 OFFCURVE",
"217 119 CURVE SMOOTH",
"217 581 LINE SMOOTH",
"217 622 OFFCURVE",
"222 649 OFFCURVE",
"235 670 CURVE",
"169 670 LINE",
"182 649 OFFCURVE",
"187 622 OFFCURVE",
"187 581 CURVE SMOOTH",
"187 119 LINE SMOOTH",
"187 78 OFFCURVE",
"182 51 OFFCURVE",
"169 30 CURVE"
);
},
{
closed = 1;
nodes = (
"447 305 LINE",
"447 415 LINE",
"413 415 LINE",
"394 395 OFFCURVE",
"385 385 OFFCURVE",
"366 385 CURVE SMOOTH",
"273 385 LINE",
"273 335 LINE",
"366 335 LINE SMOOTH",
"388 335 OFFCURVE",
"407 328 OFFCURVE",
"413 305 CURVE"
);
},
{
closed = 1;
nodes = (
"237 209 LINE",
"237 156 OFFCURVE",
"264 104 OFFCURVE",
"346 104 CURVE SMOOTH",
"447 104 LINE SMOOTH",
"532 104 OFFCURVE",
"570 162 OFFCURVE",
"570 230 CURVE",
"570 175 LINE SMOOTH",
"570 133 OFFCURVE",
"532 84 OFFCURVE",
"447 84 CURVE SMOOTH",
"346 84 LINE SMOOTH",
"269 84 OFFCURVE",
"246 118 OFFCURVE",
"237 142 CURVE"
);
},
{
closed = 1;
nodes = (
"246 584 OFFCURVE",
"269 618 OFFCURVE",
"346 618 CURVE SMOOTH",
"447 618 LINE SMOOTH",
"532 618 OFFCURVE",
"555 569 OFFCURVE",
"555 547 CURVE SMOOTH",
"555 472 LINE",
"555 540 OFFCURVE",
"532 598 OFFCURVE",
"447 598 CURVE SMOOTH",
"346 598 LINE SMOOTH",
"264 598 OFFCURVE",
"237 546 OFFCURVE",
"237 493 CURVE",
"237 560 LINE"
);
}
);
width = 590;
},
{
associatedMasterId = "97739396-C0BE-473D-A663-6DBDEFF9DADD";
layerId = "772F9E9F-1270-4A79-8E4F-5B46338DA373";
name = "Jun 2 20, 11:52";
paths = (
{
closed = 1;
nodes = (
"462 0 LINE SMOOTH",
"518 0 OFFCURVE",
"570 26 OFFCURVE",
"570 87 CURVE SMOOTH",
"570 276 LINE",
"513 276 LINE",
"513 227 OFFCURVE",
"496 200 OFFCURVE",
"462 200 CURVE SMOOTH",
"333 200 LINE SMOOTH",
"301 200 OFFCURVE",
"287 222 OFFCURVE",
"287 273 CURVE SMOOTH",
"287 420 LINE SMOOTH",
"287 488 OFFCURVE",
"297 505 OFFCURVE",
"338 505 CURVE SMOOTH",
"435 505 LINE SMOOTH",
"484 505 OFFCURVE",
"505 490 OFFCURVE",
"505 450 CURVE SMOOTH",
"505 405 LINE",
"555 405 LINE",
"555 616 LINE SMOOTH",
"555 671 OFFCURVE",
"524 700 OFFCURVE",
"455 700 CURVE SMOOTH",
"340 700 LINE SMOOTH",
"269 700 OFFCURVE",
"237 669 OFFCURVE",
"237 582 CURVE SMOOTH",
"237 138 LINE SMOOTH",
"237 42 OFFCURVE",
"264 0 OFFCURVE",
"340 0 CURVE SMOOTH"
);
},
{
closed = 1;
nodes = (
"69 0 LINE SMOOTH",
"131 0 OFFCURVE",
"167 42 OFFCURVE",
"167 138 CURVE SMOOTH",
"167 582 LINE SMOOTH",
"167 669 OFFCURVE",
"124 700 OFFCURVE",
"69 700 CURVE SMOOTH",
"40 700 LINE",
"40 498 LINE",
"51 498 LINE SMOOTH",
"99 498 OFFCURVE",
"117 481 OFFCURVE",
"117 413 CURVE SMOOTH",
"117 275 LINE SMOOTH",
"117 224 OFFCURVE",
"95 202 OFFCURVE",
"56 202 CURVE SMOOTH",
"40 202 LINE",
"40 0 LINE"
);
},
{
closed = 1;
nodes = (
"235 30 LINE",
"222 51 OFFCURVE",
"217 78 OFFCURVE",
"217 119 CURVE SMOOTH",
"217 581 LINE SMOOTH",
"217 622 OFFCURVE",
"222 649 OFFCURVE",
"235 670 CURVE",
"169 670 LINE",
"182 649 OFFCURVE",
"187 622 OFFCURVE",
"187 581 CURVE SMOOTH",
"187 119 LINE SMOOTH",
"187 78 OFFCURVE",
"182 51 OFFCURVE",
"169 30 CURVE"
);
},
{
closed = 1;
nodes = (
"447 305 LINE",
"447 415 LINE",
"413 415 LINE",
"394 395 OFFCURVE",
"385 385 OFFCURVE",
"366 385 CURVE SMOOTH",
"273 385 LINE",
"273 335 LINE",
"366 335 LINE SMOOTH",
"388 335 OFFCURVE",
"407 328 OFFCURVE",
"413 305 CURVE"
);
}
);
width = 590;
},
{
anchors = (
{
name = bottom;
position = "{219, 0}";
},
{
name = ogonek;
position = "{390, 0}";
},
{
name = top;
position = "{219, 700}";
},
{
name = topleft;
position = "{20, 700}";
}
);
layerId = "57E3185A-4375-48AC-BD50-0CEDF403F65C";
paths = (
{
closed = 1;
nodes = (
"286 0 LINE SMOOTH",
"362 0 OFFCURVE",
"384 40 OFFCURVE",
"384 95 CURVE SMOOTH",
"384 290 LINE",
"334 290 LINE",
"334 220 OFFCURVE",
"318 200 OFFCURVE",
"264 200 CURVE SMOOTH",
"175 200 LINE SMOOTH",
"121 200 OFFCURVE",
"105 221 OFFCURVE",
"105 290 CURVE SMOOTH",
"105 410 LINE SMOOTH",
"105 480 OFFCURVE",
"121 500 OFFCURVE",
"175 500 CURVE SMOOTH",
"264 500 LINE SMOOTH",
"318 500 OFFCURVE",
"334 480 OFFCURVE",
"334 415 CURVE",
"384 415 LINE",
"384 606 LINE SMOOTH",
"384 671 OFFCURVE",
"363 700 OFFCURVE",
"294 700 CURVE SMOOTH",
"155 700 LINE SMOOTH",
"83 700 OFFCURVE",
"55 671 OFFCURVE",
"55 600 CURVE SMOOTH",
"55 100 LINE SMOOTH",
"55 28 OFFCURVE",
"83 0 OFFCURVE",
"155 0 CURVE SMOOTH"
);
},
{
closed = 1;
nodes = (
"274 335 LINE",
"274 385 LINE",
"86 385 LINE",
"86 335 LINE"
);
}
);
width = 424;
},
{
associatedMasterId = "57E3185A-4375-48AC-BD50-0CEDF403F65C";
layerId = "7093598A-D9DF-43FC-991B-D89C8F2B43BE";
name = "Jun 1 20, 12:08";
paths = (
{
closed = 1;
nodes = (
"482 0 LINE SMOOTH",
"538 0 OFFCURVE",
"590 26 OFFCURVE",
"590 87 CURVE SMOOTH",
"590 276 LINE",
"533 276 LINE",
"533 227 OFFCURVE",
"516 200 OFFCURVE",
"482 200 CURVE SMOOTH",
"353 200 LINE SMOOTH",
"321 200 OFFCURVE",
"307 222 OFFCURVE",
"307 273 CURVE SMOOTH",
"307 420 LINE SMOOTH",
"307 488 OFFCURVE",
"317 505 OFFCURVE",
"358 505 CURVE SMOOTH",
"455 505 LINE SMOOTH",
"504 505 OFFCURVE",
"525 490 OFFCURVE",
"525 450 CURVE SMOOTH",
"525 405 LINE",
"575 405 LINE",
"575 616 LINE SMOOTH",
"575 671 OFFCURVE",
"544 700 OFFCURVE",
"475 700 CURVE SMOOTH",
"360 700 LINE SMOOTH",
"289 700 OFFCURVE",
"257 669 OFFCURVE",
"257 582 CURVE SMOOTH",
"257 138 LINE SMOOTH",
"257 42 OFFCURVE",
"284 0 OFFCURVE",
"360 0 CURVE SMOOTH"
);
},
{
closed = 1;
nodes = (
"69 0 LINE SMOOTH",
"131 0 OFFCURVE",
"167 42 OFFCURVE",
"167 138 CURVE SMOOTH",
"167 582 LINE SMOOTH",
"167 669 OFFCURVE",
"124 700 OFFCURVE",
"69 700 CURVE SMOOTH",
"40 700 LINE",
"40 498 LINE",
"51 498 LINE SMOOTH",
"99 498 OFFCURVE",
"117 481 OFFCURVE",
"117 413 CURVE SMOOTH",
"117 275 LINE SMOOTH",
"117 224 OFFCURVE",
"95 202 OFFCURVE",
"56 202 CURVE SMOOTH",
"40 202 LINE",
"40 0 LINE"
);
},
{
closed = 1;
nodes = (
"245 30 LINE",
"232 51 OFFCURVE",
"227 78 OFFCURVE",
"227 119 CURVE SMOOTH",
"227 581 LINE SMOOTH",
"227 622 OFFCURVE",
"232 649 OFFCURVE",
"245 670 CURVE",
"179 670 LINE",
"192 649 OFFCURVE",
"197 622 OFFCURVE",
"197 581 CURVE SMOOTH",
"197 119 LINE SMOOTH",
"197 78 OFFCURVE",
"192 51 OFFCURVE",
"179 30 CURVE"
);
},
{
closed = 1;
nodes = (
"467 305 LINE",
"467 415 LINE",
"433 415 LINE",
"414 395 OFFCURVE",
"405 385 OFFCURVE",
"386 385 CURVE SMOOTH",
"293 385 LINE",
"293 335 LINE",
"386 335 LINE SMOOTH",
"408 335 OFFCURVE",
"427 328 OFFCURVE",
"433 305 CURVE"
);
}
);
width = 610;
},
{
associatedMasterId = "57E3185A-4375-48AC-BD50-0CEDF403F65C";
layerId = "58EA059D-F245-414B-AAEE-D8E4987AE874";
name = "Jun 1 20, 12:17";
paths = (
{
closed = 1;
nodes = (
"462 0 LINE SMOOTH",
"518 0 OFFCURVE",
"570 26 OFFCURVE",
"570 87 CURVE SMOOTH",
"570 276 LINE",
"513 276 LINE",
"513 227 OFFCURVE",
"496 200 OFFCURVE",
"462 200 CURVE SMOOTH",
"333 200 LINE SMOOTH",
"301 200 OFFCURVE",
"287 222 OFFCURVE",
"287 273 CURVE SMOOTH",
"287 420 LINE SMOOTH",
"287 488 OFFCURVE",
"297 505 OFFCURVE",
"338 505 CURVE SMOOTH",
"435 505 LINE SMOOTH",
"484 505 OFFCURVE",
"505 490 OFFCURVE",
"505 450 CURVE SMOOTH",
"505 405 LINE",
"555 405 LINE",
"555 616 LINE SMOOTH",
"555 671 OFFCURVE",
"524 700 OFFCURVE",
"455 700 CURVE SMOOTH",
"340 700 LINE SMOOTH",
"269 700 OFFCURVE",
"237 669 OFFCURVE",
"237 582 CURVE SMOOTH",
"237 138 LINE SMOOTH",
"237 42 OFFCURVE",
"264 0 OFFCURVE",
"340 0 CURVE SMOOTH"
);
},
{
closed = 1;
nodes = (
"69 0 LINE SMOOTH",
"131 0 OFFCURVE",
"167 42 OFFCURVE",
"167 138 CURVE SMOOTH",
"167 582 LINE SMOOTH",
"167 669 OFFCURVE",
"124 700 OFFCURVE",
"69 700 CURVE SMOOTH",
"40 700 LINE",
"40 498 LINE",
"51 498 LINE SMOOTH",
"99 498 OFFCURVE",
"117 481 OFFCURVE",
"117 413 CURVE SMOOTH",
"117 275 LINE SMOOTH",
"117 224 OFFCURVE",
"95 202 OFFCURVE",
"56 202 CURVE SMOOTH",
"40 202 LINE",
"40 0 LINE"
);
},
{
closed = 1;
nodes = (
"235 30 LINE",
"222 51 OFFCURVE",
"217 78 OFFCURVE",
"217 119 CURVE SMOOTH",
"217 581 LINE SMOOTH",
"217 622 OFFCURVE",
"222 649 OFFCURVE",
"235 670 CURVE",
"169 670 LINE",
"182 649 OFFCURVE",
"187 622 OFFCURVE",
"187 581 CURVE SMOOTH",
"187 119 LINE SMOOTH",
"187 78 OFFCURVE",
"182 51 OFFCURVE",
"169 30 CURVE"
);
},
{
closed = 1;
nodes = (
"447 305 LINE",
"447 415 LINE",
"413 415 LINE",
"394 395 OFFCURVE",
"385 385 OFFCURVE",
"366 385 CURVE SMOOTH",
"273 385 LINE",
"273 335 LINE",
"366 335 LINE SMOOTH",
"388 335 OFFCURVE",
"407 328 OFFCURVE",
"413 305 CURVE"
);
},
{
closed = 1;
nodes = (
"237 209 LINE",
"237 156 OFFCURVE",
"264 104 OFFCURVE",
"346 104 CURVE SMOOTH",
"447 104 LINE SMOOTH",
"532 104 OFFCURVE",
"570 162 OFFCURVE",
"570 230 CURVE",
"570 175 LINE SMOOTH",
"570 133 OFFCURVE",
"532 84 OFFCURVE",
"447 84 CURVE SMOOTH",
"346 84 LINE SMOOTH",
"269 84 OFFCURVE",
"246 118 OFFCURVE",
"237 142 CURVE"
);
},
{
closed = 1;
nodes = (
"246 584 OFFCURVE",
"269 618 OFFCURVE",
"346 618 CURVE SMOOTH",
"447 618 LINE SMOOTH",
"532 618 OFFCURVE",
"555 569 OFFCURVE",
"555 547 CURVE SMOOTH",
"555 472 LINE",
"555 540 OFFCURVE",
"532 598 OFFCURVE",
"447 598 CURVE SMOOTH",
"346 598 LINE SMOOTH",
"264 598 OFFCURVE",
"237 546 OFFCURVE",
"237 493 CURVE",
"237 560 LINE"
);
}
);
width = 590;
},
{
associatedMasterId = "57E3185A-4375-48AC-BD50-0CEDF403F65C";
layerId = "659A3165-8E30-430A-9D61-217B64249835";
name = "Jun 2 20, 11:52";
paths = (
{
closed = 1;
nodes = (
"462 0 LINE SMOOTH",
"518 0 OFFCURVE",
"570 26 OFFCURVE",
"570 87 CURVE SMOOTH",
"570 276 LINE",
"513 276 LINE",
"513 227 OFFCURVE",
"496 200 OFFCURVE",
"462 200 CURVE SMOOTH",
"333 200 LINE SMOOTH",
"301 200 OFFCURVE",
"287 222 OFFCURVE",
"287 273 CURVE SMOOTH",
"287 420 LINE SMOOTH",
"287 488 OFFCURVE",
"297 505 OFFCURVE",
"338 505 CURVE SMOOTH",
"435 505 LINE SMOOTH",
"484 505 OFFCURVE",
"505 490 OFFCURVE",
"505 450 CURVE SMOOTH",
"505 405 LINE",
"555 405 LINE",
"555 616 LINE SMOOTH",
"555 671 OFFCURVE",
"524 700 OFFCURVE",
"455 700 CURVE SMOOTH",
"340 700 LINE SMOOTH",
"269 700 OFFCURVE",
"237 669 OFFCURVE",
"237 582 CURVE SMOOTH",
"237 138 LINE SMOOTH",
"237 42 OFFCURVE",
"264 0 OFFCURVE",
"340 0 CURVE SMOOTH"
);
},
{
closed = 1;
nodes = (
"69 0 LINE SMOOTH",
"131 0 OFFCURVE",
"167 42 OFFCURVE",
"167 138 CURVE SMOOTH",
"167 582 LINE SMOOTH",
"167 669 OFFCURVE",
"124 700 OFFCURVE",
"69 700 CURVE SMOOTH",
"40 700 LINE",
"40 498 LINE",
"51 498 LINE SMOOTH",
"99 498 OFFCURVE",
"117 481 OFFCURVE",
"117 413 CURVE SMOOTH",
"117 275 LINE SMOOTH",
"117 224 OFFCURVE",
"95 202 OFFCURVE",
"56 202 CURVE SMOOTH",
"40 202 LINE",
"40 0 LINE"
);
},
{
closed = 1;
nodes = (
"235 30 LINE",
"222 51 OFFCURVE",
"217 78 OFFCURVE",
"217 119 CURVE SMOOTH",
"217 581 LINE SMOOTH",
"217 622 OFFCURVE",
"222 649 OFFCURVE",
"235 670 CURVE",
"169 670 LINE",
"182 649 OFFCURVE",
"187 622 OFFCURVE",
"187 581 CURVE SMOOTH",
"187 119 LINE SMOOTH",
"187 78 OFFCURVE",
"182 51 OFFCURVE",
"169 30 CURVE"
);
},
{
closed = 1;
nodes = (
"447 305 LINE",
"447 415 LINE",
"413 415 LINE",
"394 395 OFFCURVE",
"385 385 OFFCURVE",
"366 385 CURVE SMOOTH",
"273 385 LINE",
"273 335 LINE",
"366 335 LINE SMOOTH",
"388 335 OFFCURVE",
"407 328 OFFCURVE",
"413 305 CURVE"
);
}
);
width = 590;
},
{
anchors = (
{
name = bottom;
position = "{219, 0}";
},
{
name = ogonek;
position = "{386, 10}";
},
{
name = top;
position = "{219, 700}";
},
{
name = topleft;
position = "{20, 700}";
}
);
associatedMasterId = "57E3185A-4375-48AC-BD50-0CEDF403F65C";
layerId = "DF5A2BDD-509E-4959-AE95-68D9266EFBB0";
name = "Aug 24 20, 11:23";
paths = (
{
closed = 1;
nodes = (
"301 0 LINE SMOOTH",
"377 0 OFFCURVE",
"399 40 OFFCURVE",
"399 95 CURVE SMOOTH",
"399 276 LINE",
"349 276 LINE",
"349 221 OFFCURVE",
"329 200 OFFCURVE",
"279 200 CURVE SMOOTH",
"175 200 LINE SMOOTH",
"121 200 OFFCURVE",
"105 221 OFFCURVE",
"105 290 CURVE SMOOTH",
"105 415 LINE SMOOTH",
"105 485 OFFCURVE",
"121 505 OFFCURVE",
"175 505 CURVE SMOOTH",
"264 505 LINE SMOOTH",
"318 505 OFFCURVE",
"334 485 OFFCURVE",
"334 415 CURVE SMOOTH",
"334 405 LINE",
"384 405 LINE",
"384 606 LINE SMOOTH",
"384 671 OFFCURVE",
"363 700 OFFCURVE",
"294 700 CURVE SMOOTH",
"155 700 LINE SMOOTH",
"83 700 OFFCURVE",
"55 672 OFFCURVE",
"55 600 CURVE SMOOTH",
"55 100 LINE SMOOTH",
"55 28 OFFCURVE",
"83 0 OFFCURVE",
"155 0 CURVE SMOOTH"
);
},
{
closed = 1;
nodes = (
"274 335 LINE",
"274 385 LINE",
"86 385 LINE",
"86 335 LINE"
);
}
);
width = 429;
}
);
leftKerningGroup = H;
leftMetricsKey = H;
rightKerningGroup = E;
unicode = 0045;
},
{
color = 4;
glyphname = F;
lastChange = "2020-09-01 14:43:56 +0000";
layers = (
{
background = {
paths = (
{
closed = 1;
nodes = (
"272 420 LINE SMOOTH",
"272 488 OFFCURVE",
"282 505 OFFCURVE",
"323 505 CURVE SMOOTH",
"420 505 LINE SMOOTH",
"469 505 OFFCURVE",
"490 490 OFFCURVE",
"490 450 CURVE SMOOTH",
"490 405 LINE",
"540 405 LINE",
"540 616 LINE SMOOTH",
"540 671 OFFCURVE",
"509 700 OFFCURVE",
"440 700 CURVE SMOOTH",
"325 700 LINE SMOOTH",
"254 700 OFFCURVE",
"222 669 OFFCURVE",
"222 582 CURVE SMOOTH",
"222 138 LINE SMOOTH",
"222 42 OFFCURVE",
"249 0 OFFCURVE",
"325 0 CURVE SMOOTH",
"374 0 LINE",
"374 202 LINE",
"318 202 LINE SMOOTH",
"286 202 OFFCURVE",
"272 224 OFFCURVE",
"272 275 CURVE SMOOTH"
);
},
{
closed = 1;
nodes = (
"220 30 LINE",
"207 51 OFFCURVE",
"202 78 OFFCURVE",
"202 119 CURVE SMOOTH",
"202 581 LINE SMOOTH",
"202 622 OFFCURVE",
"207 649 OFFCURVE",
"220 670 CURVE",
"154 670 LINE",
"167 649 OFFCURVE",
"172 622 OFFCURVE",
"172 581 CURVE SMOOTH",
"172 119 LINE SMOOTH",
"172 78 OFFCURVE",
"167 51 OFFCURVE",
"154 30 CURVE"
);
},
{
closed = 1;
nodes = (
"432 287 LINE",
"432 397 LINE",
"398 397 LINE",
"379 377 OFFCURVE",
"370 367 OFFCURVE",
"351 367 CURVE SMOOTH",
"258 367 LINE",
"258 317 LINE",
"351 317 LINE SMOOTH",
"373 317 OFFCURVE",
"392 310 OFFCURVE",
"398 287 CURVE"
);
},
{
closed = 1;
nodes = (
"152 582 LINE SMOOTH",
"152 669 OFFCURVE",
"119 700 OFFCURVE",
"49 700 CURVE SMOOTH",
"40 700 LINE",
"40 498 LINE",
"51 498 LINE SMOOTH",
"92 498 OFFCURVE",
"102 481 OFFCURVE",
"102 413 CURVE SMOOTH",
"102 275 LINE SMOOTH",
"102 224 OFFCURVE",
"88 202 OFFCURVE",
"56 202 CURVE SMOOTH",
"40 202 LINE",
"40 0 LINE",
"49 0 LINE SMOOTH",
"125 0 OFFCURVE",
"152 42 OFFCURVE",
"152 138 CURVE SMOOTH"
);
}
);
};
layerId = "97739396-C0BE-473D-A663-6DBDEFF9DADD";
paths = (
{
closed = 1;
nodes = (
"374 0 LINE",
"374 200 LINE",
"318 200 LINE SMOOTH",
"286 200 OFFCURVE",
"272 224 OFFCURVE",
"272 275 CURVE SMOOTH",
"272 413 LINE SMOOTH",
"272 482 OFFCURVE",
"286 505 OFFCURVE",
"327 505 CURVE SMOOTH",
"408 505 LINE SMOOTH",
"457 505 OFFCURVE",
"478 490 OFFCURVE",
"478 450 CURVE SMOOTH",
"478 405 LINE",
"528 405 LINE",
"528 616 LINE SMOOTH",
"528 671 OFFCURVE",
"497 700 OFFCURVE",
"428 700 CURVE SMOOTH",
"325 700 LINE SMOOTH",
"259 700 OFFCURVE",
"222 669 OFFCURVE",
"222 582 CURVE SMOOTH",
"222 138 LINE SMOOTH",
"222 42 OFFCURVE",
"254 0 OFFCURVE",
"325 0 CURVE"
);
},
{
closed = 1;
nodes = (
"49 0 LINE SMOOTH",
"120 0 OFFCURVE",
"152 42 OFFCURVE",
"152 138 CURVE SMOOTH",
"152 582 LINE SMOOTH",
"152 669 OFFCURVE",
"114 700 OFFCURVE",
"49 700 CURVE SMOOTH",
"40 700 LINE",
"40 500 LINE",
"51 500 LINE SMOOTH",
"92 500 OFFCURVE",
"102 483 OFFCURVE",
"102 415 CURVE SMOOTH",
"102 273 LINE SMOOTH",
"102 222 OFFCURVE",
"88 200 OFFCURVE",
"56 200 CURVE SMOOTH",
"40 200 LINE",
"40 0 LINE"
);
},
{
closed = 1;
nodes = (
"225 30 LINE",
"212 51 OFFCURVE",
"207 78 OFFCURVE",
"207 119 CURVE SMOOTH",
"207 581 LINE SMOOTH",
"207 622 OFFCURVE",
"212 649 OFFCURVE",
"225 670 CURVE",
"149 670 LINE",
"162 649 OFFCURVE",
"167 622 OFFCURVE",
"167 581 CURVE SMOOTH",
"167 119 LINE SMOOTH",
"167 78 OFFCURVE",
"162 51 OFFCURVE",
"149 30 CURVE"
);
},
{
closed = 1;
nodes = (
"432 282 LINE",
"432 392 LINE",
"398 392 LINE",
"380 372 OFFCURVE",
"370 362 OFFCURVE",
"351 362 CURVE SMOOTH",
"258 362 LINE",
"258 312 LINE",
"351 312 LINE SMOOTH",
"373 312 OFFCURVE",
"392 305 OFFCURVE",
"398 282 CURVE"
);
}
);
width = 543;
},
{
background = {
paths = (
{
closed = 1;
nodes = (
"272 420 LINE SMOOTH",
"272 488 OFFCURVE",
"282 505 OFFCURVE",
"323 505 CURVE SMOOTH",
"420 505 LINE SMOOTH",
"469 505 OFFCURVE",
"490 490 OFFCURVE",
"490 450 CURVE SMOOTH",
"490 405 LINE",
"540 405 LINE",
"540 616 LINE SMOOTH",
"540 671 OFFCURVE",
"509 700 OFFCURVE",
"440 700 CURVE SMOOTH",
"325 700 LINE SMOOTH",
"254 700 OFFCURVE",
"222 669 OFFCURVE",
"222 582 CURVE SMOOTH",
"222 138 LINE SMOOTH",
"222 42 OFFCURVE",
"249 0 OFFCURVE",
"325 0 CURVE SMOOTH",
"374 0 LINE",
"374 202 LINE",
"318 202 LINE SMOOTH",
"286 202 OFFCURVE",
"272 224 OFFCURVE",
"272 275 CURVE SMOOTH"
);
},
{
closed = 1;
nodes = (
"220 30 LINE",
"207 51 OFFCURVE",
"202 78 OFFCURVE",
"202 119 CURVE SMOOTH",
"202 581 LINE SMOOTH",
"202 622 OFFCURVE",
"207 649 OFFCURVE",
"220 670 CURVE",
"154 670 LINE",
"167 649 OFFCURVE",
"172 622 OFFCURVE",
"172 581 CURVE SMOOTH",
"172 119 LINE SMOOTH",
"172 78 OFFCURVE",
"167 51 OFFCURVE",
"154 30 CURVE"
);
},
{
closed = 1;
nodes = (
"432 287 LINE",
"432 397 LINE",
"398 397 LINE",
"379 377 OFFCURVE",
"370 367 OFFCURVE",
"351 367 CURVE SMOOTH",
"258 367 LINE",
"258 317 LINE",
"351 317 LINE SMOOTH",
"373 317 OFFCURVE",
"392 310 OFFCURVE",
"398 287 CURVE"
);
},
{
closed = 1;
nodes = (
"152 582 LINE SMOOTH",
"152 669 OFFCURVE",
"119 700 OFFCURVE",
"49 700 CURVE SMOOTH",
"40 700 LINE",
"40 498 LINE",
"51 498 LINE SMOOTH",
"92 498 OFFCURVE",
"102 481 OFFCURVE",
"102 413 CURVE SMOOTH",
"102 275 LINE SMOOTH",
"102 224 OFFCURVE",
"88 202 OFFCURVE",
"56 202 CURVE SMOOTH",
"40 202 LINE",
"40 0 LINE",
"49 0 LINE SMOOTH",
"125 0 OFFCURVE",
"152 42 OFFCURVE",
"152 138 CURVE SMOOTH"
);
}
);
};
layerId = "57E3185A-4375-48AC-BD50-0CEDF403F65C";
paths = (
{
closed = 1;
nodes = (
"215 0 LINE",
"215 200 LINE",
"175 200 LINE SMOOTH",
"121 200 OFFCURVE",
"105 221 OFFCURVE",
"105 290 CURVE SMOOTH",
"105 410 LINE SMOOTH",
"105 480 OFFCURVE",
"121 500 OFFCURVE",
"175 500 CURVE SMOOTH",
"243 500 LINE SMOOTH",
"297 500 OFFCURVE",
"313 480 OFFCURVE",
"313 410 CURVE SMOOTH",
"313 405 LINE",
"363 405 LINE",
"363 606 LINE SMOOTH",
"363 671 OFFCURVE",
"342 700 OFFCURVE",
"273 700 CURVE SMOOTH",
"155 700 LINE SMOOTH",
"83 700 OFFCURVE",
"55 672 OFFCURVE",
"55 600 CURVE SMOOTH",
"55 100 LINE SMOOTH",
"55 28 OFFCURVE",
"83 0 OFFCURVE",
"155 0 CURVE SMOOTH"
);
},
{
closed = 1;
nodes = (
"265 321 LINE",
"265 371 LINE",
"86 371 LINE",
"86 321 LINE"
);
}
);
width = 383;
}
);
leftKerningGroup = H;
leftMetricsKey = H;
rightKerningGroup = F;
unicode = 0046;
},
{
color = 4;
glyphname = G;
lastChange = "2020-09-01 19:07:26 +0000";
layers = (
{
anchors = (
{
name = bottom;
position = "{348, 0}";
},
{
name = top;
position = "{334, 700}";
}
);
layerId = "97739396-C0BE-473D-A663-6DBDEFF9DADD";
paths = (
{
closed = 1;
nodes = (
"483 -10 OFFCURVE",
"543 51 OFFCURVE",
"543 144 CURVE SMOOTH",
"543 345 LINE",
"312 345 LINE",
"312 295 LINE",
"451 295 LINE SMOOTH",
"473 295 OFFCURVE",
"483 285 OFFCURVE",
"483 263 CURVE SMOOTH",
"483 212 OFFCURVE",
"459 190 OFFCURVE",
"378 190 CURVE SMOOTH",
"317 190 LINE SMOOTH",
"237 190 OFFCURVE",
"206 237 OFFCURVE",
"206 320 CURVE SMOOTH",
"206 380 LINE SMOOTH",
"206 463 OFFCURVE",
"237 510 OFFCURVE",
"317 510 CURVE SMOOTH",
"368 510 LINE SMOOTH",
"455 510 OFFCURVE",
"483 484 OFFCURVE",
"483 415 CURVE",
"533 415 LINE",
"533 576 LINE SMOOTH",
"533 669 OFFCURVE",
"483 710 OFFCURVE",
"347 710 CURVE SMOOTH",
"208 710 OFFCURVE",
"151 666 OFFCURVE",
"151 517 CURVE SMOOTH",
"151 183 LINE SMOOTH",
"151 34 OFFCURVE",
"208 -10 OFFCURVE",
"347 -10 CURVE SMOOTH"
);
},
{
closed = 1;
nodes = (
"84 125 OFFCURVE",
"81 154 OFFCURVE",
"81 190 CURVE SMOOTH",
"81 510 LINE SMOOTH",
"81 546 OFFCURVE",
"84 575 OFFCURVE",
"89 593 CURVE",
"45 565 OFFCURVE",
"25 503 OFFCURVE",
"25 388 CURVE SMOOTH",
"25 312 LINE SMOOTH",
"25 197 OFFCURVE",
"45 135 OFFCURVE",
"89 107 CURVE"
);
},
{
closed = 1;
nodes = (
"142 95 OFFCURVE",
"136 126 OFFCURVE",
"136 172 CURVE SMOOTH",
"136 528 LINE SMOOTH",
"136 574 OFFCURVE",
"142 605 OFFCURVE",
"153 630 CURVE",
"116 625 OFFCURVE",
"96 593 OFFCURVE",
"96 520 CURVE SMOOTH",
"96 180 LINE SMOOTH",
"96 107 OFFCURVE",
"116 75 OFFCURVE",
"153 70 CURVE"
);
},
{
closed = 1;
nodes = (
"578 47 OFFCURVE",
"598 79 OFFCURVE",
"598 152 CURVE SMOOTH",
"598 345 LINE",
"558 345 LINE",
"558 144 LINE SMOOTH",
"558 98 OFFCURVE",
"552 67 OFFCURVE",
"541 42 CURVE"
);
},
{
closed = 1;
nodes = (
"588 415 LINE",
"588 540 LINE SMOOTH",
"588 613 OFFCURVE",
"574 645 OFFCURVE",
"538 650 CURVE",
"548 625 OFFCURVE",
"548 594 OFFCURVE",
"548 548 CURVE SMOOTH",
"548 415 LINE"
);
}
);
width = 638;
},
{
associatedMasterId = "97739396-C0BE-473D-A663-6DBDEFF9DADD";
layerId = "1E7B1D6C-E3CB-4097-942B-B36ABA6BD398";
name = "Jun 2 20, 11:48";
paths = (
{
closed = 1;
nodes = (
"76 510 LINE SMOOTH",
"76 537 OFFCURVE",
"79 577 OFFCURVE",
"84 597 CURVE",
"42 565 OFFCURVE",
"20 503 OFFCURVE",
"20 388 CURVE SMOOTH",
"20 312 LINE SMOOTH",
"20 197 OFFCURVE",
"42 135 OFFCURVE",
"84 103 CURVE",
"79 123 OFFCURVE",
"76 163 OFFCURVE",
"76 190 CURVE SMOOTH"
);
},
{
closed = 1;
nodes = (
"96 94 OFFCURVE",
"110 70 OFFCURVE",
"142 62 CURVE",
"131 95 OFFCURVE",
"126 127 OFFCURVE",
"126 172 CURVE SMOOTH",
"126 528 LINE SMOOTH",
"126 573 OFFCURVE",
"131 605 OFFCURVE",
"142 638 CURVE",
"110 630 OFFCURVE",
"96 606 OFFCURVE",
"96 518 CURVE SMOOTH",
"96 182 LINE SMOOTH"
);
},
{
closed = 1;
nodes = (
"302 190 LINE SMOOTH",
"232 190 OFFCURVE",
"201 237 OFFCURVE",
"201 320 CURVE SMOOTH",
"201 380 LINE SMOOTH",
"201 463 OFFCURVE",
"232 510 OFFCURVE",
"302 510 CURVE SMOOTH",
"338 510 LINE SMOOTH",
"394 510 OFFCURVE",
"428 482 OFFCURVE",
"428 430 CURVE SMOOTH",
"428 405 LINE",
"478 405 LINE",
"478 576 LINE SMOOTH",
"478 669 OFFCURVE",
"428 710 OFFCURVE",
"327 710 CURVE SMOOTH",
"218 710 OFFCURVE",
"146 666 OFFCURVE",
"146 517 CURVE SMOOTH",
"146 183 LINE SMOOTH",
"146 34 OFFCURVE",
"218 -10 OFFCURVE",
"327 -10 CURVE SMOOTH",
"428 -10 OFFCURVE",
"478 31 OFFCURVE",
"478 124 CURVE SMOOTH",
"478 352 LINE",
"307 352 LINE",
"307 302 LINE",
"428 302 LINE",
"428 270 LINE SMOOTH",
"428 222 OFFCURVE",
"394 190 OFFCURVE",
"338 190 CURVE SMOOTH"
);
}
);
width = 600;
},
{
anchors = (
{
name = bottom;
position = "{234, 0}";
},
{
name = top;
position = "{234, 700}";
}
);
layerId = "57E3185A-4375-48AC-BD50-0CEDF403F65C";
paths = (
{
closed = 1;
nodes = (
"367 -10 OFFCURVE",
"417 31 OFFCURVE",
"417 124 CURVE SMOOTH",
"417 355 LINE",
"212 355 LINE",
"212 305 LINE",
"322 305 LINE SMOOTH",
"357 305 OFFCURVE",
"367 297 OFFCURVE",
"367 270 CURVE SMOOTH",
"367 218 OFFCURVE",
"333 190 OFFCURVE",
"262 190 CURVE SMOOTH",
"216 190 LINE SMOOTH",
"136 190 OFFCURVE",
"100 227 OFFCURVE",
"100 315 CURVE SMOOTH",
"100 385 LINE SMOOTH",
"100 473 OFFCURVE",
"136 510 OFFCURVE",
"216 510 CURVE SMOOTH",
"262 510 LINE SMOOTH",
"333 510 OFFCURVE",
"367 482 OFFCURVE",
"367 430 CURVE SMOOTH",
"367 410 LINE",
"417 410 LINE",
"417 576 LINE SMOOTH",
"417 669 OFFCURVE",
"367 710 OFFCURVE",
"241 710 CURVE SMOOTH",
"106 710 OFFCURVE",
"50 656 OFFCURVE",
"50 537 CURVE SMOOTH",
"50 163 LINE SMOOTH",
"50 44 OFFCURVE",
"106 -10 OFFCURVE",
"241 -10 CURVE SMOOTH"
);
}
);
width = 467;
},
{
associatedMasterId = "57E3185A-4375-48AC-BD50-0CEDF403F65C";
layerId = "57F9D846-2C7E-49B4-8017-D7A81A3A07CB";
name = "Jun 2 20, 11:48";
paths = (
{
closed = 1;
nodes = (
"76 510 LINE SMOOTH",
"76 537 OFFCURVE",
"79 577 OFFCURVE",
"84 597 CURVE",
"42 565 OFFCURVE",
"20 503 OFFCURVE",
"20 388 CURVE SMOOTH",
"20 312 LINE SMOOTH",
"20 197 OFFCURVE",
"42 135 OFFCURVE",
"84 103 CURVE",
"79 123 OFFCURVE",
"76 163 OFFCURVE",
"76 190 CURVE SMOOTH"
);
},
{
closed = 1;
nodes = (
"96 94 OFFCURVE",
"110 70 OFFCURVE",
"142 62 CURVE",
"131 95 OFFCURVE",
"126 127 OFFCURVE",
"126 172 CURVE SMOOTH",
"126 528 LINE SMOOTH",
"126 573 OFFCURVE",
"131 605 OFFCURVE",
"142 638 CURVE",
"110 630 OFFCURVE",
"96 606 OFFCURVE",
"96 518 CURVE SMOOTH",
"96 182 LINE SMOOTH"
);
},
{
closed = 1;
nodes = (
"302 190 LINE SMOOTH",
"232 190 OFFCURVE",
"201 237 OFFCURVE",
"201 320 CURVE SMOOTH",
"201 380 LINE SMOOTH",
"201 463 OFFCURVE",
"232 510 OFFCURVE",
"302 510 CURVE SMOOTH",
"338 510 LINE SMOOTH",
"394 510 OFFCURVE",
"428 482 OFFCURVE",
"428 430 CURVE SMOOTH",
"428 405 LINE",
"478 405 LINE",
"478 576 LINE SMOOTH",
"478 669 OFFCURVE",
"428 710 OFFCURVE",
"327 710 CURVE SMOOTH",
"218 710 OFFCURVE",
"146 666 OFFCURVE",
"146 517 CURVE SMOOTH",
"146 183 LINE SMOOTH",
"146 34 OFFCURVE",
"218 -10 OFFCURVE",
"327 -10 CURVE SMOOTH",
"428 -10 OFFCURVE",
"478 31 OFFCURVE",
"478 124 CURVE SMOOTH",
"478 352 LINE",
"307 352 LINE",
"307 302 LINE",
"428 302 LINE",
"428 270 LINE SMOOTH",
"428 222 OFFCURVE",
"394 190 OFFCURVE",
"338 190 CURVE SMOOTH"
);
}
);
width = 600;
},
{
associatedMasterId = "97739396-C0BE-473D-A663-6DBDEFF9DADD";
layerId = "61C2815B-513C-42BD-863C-F0DCDAC616D8";
name = "Aug 20 20, 11:34";
paths = (
{
closed = 1;
nodes = (
"366 -10 LINE SMOOTH",
"502 -10 OFFCURVE",
"562 51 OFFCURVE",
"562 144 CURVE SMOOTH",
"562 355 LINE",
"306 355 LINE",
"306 305 LINE",
"470 305 LINE SMOOTH",
"492 305 OFFCURVE",
"502 295 OFFCURVE",
"502 273 CURVE SMOOTH",
"502 222 OFFCURVE",
"468 190 OFFCURVE",
"387 190 CURVE SMOOTH",
"341 190 LINE SMOOTH",
"259 190 OFFCURVE",
"200 227 OFFCURVE",
"200 300 CURVE SMOOTH",
"200 400 LINE SMOOTH",
"200 473 OFFCURVE",
"259 510 OFFCURVE",
"341 510 CURVE SMOOTH",
"387 510 LINE SMOOTH",
"468 510 OFFCURVE",
"502 482 OFFCURVE",
"502 430 CURVE SMOOTH",
"502 405 LINE",
"552 405 LINE",
"552 576 LINE SMOOTH",
"552 669 OFFCURVE",
"502 710 OFFCURVE",
"366 710 CURVE SMOOTH",
"346 710 LINE SMOOTH",
"254 710 OFFCURVE",
"145 665 OFFCURVE",
"145 465 CURVE SMOOTH",
"145 235 LINE SMOOTH",
"145 35 OFFCURVE",
"254 -10 OFFCURVE",
"346 -10 CURVE SMOOTH"
);
},
{
closed = 1;
nodes = (
"75 506 LINE SMOOTH",
"75 553 OFFCURVE",
"86 586 OFFCURVE",
"99 607 CURVE",
"57 575 OFFCURVE",
"20 503 OFFCURVE",
"20 388 CURVE SMOOTH",
"20 312 LINE SMOOTH",
"20 197 OFFCURVE",
"57 125 OFFCURVE",
"99 93 CURVE",
"86 114 OFFCURVE",
"75 147 OFFCURVE",
"75 194 CURVE SMOOTH"
);
},
{
closed = 1;
nodes = (
"130 475 LINE SMOOTH",
"130 570 OFFCURVE",
"151 628 OFFCURVE",
"195 669 CURVE",
"137 656 OFFCURVE",
"90 602 OFFCURVE",
"90 494 CURVE SMOOTH",
"90 206 LINE SMOOTH",
"90 98 OFFCURVE",
"137 44 OFFCURVE",
"195 31 CURVE",
"151 72 OFFCURVE",
"130 130 OFFCURVE",
"130 225 CURVE SMOOTH"
);
}
);
width = 622;
}
);
leftKerningGroup = O;
rightKerningGroup = G;
unicode = 0047;
},
{
color = 4;
glyphname = Gcommaaccent;
lastChange = "2020-09-01 16:41:07 +0000";
layers = (
{
components = (
{
name = G;
},
{
name = commaaccentcomb;
transform = "{1, 0, 0, 1, 240, 0}";
}
);
layerId = "97739396-C0BE-473D-A663-6DBDEFF9DADD";
width = 638;
},
{
anchors = (
{
name = bottom;
position = "{234, 0}";
},
{
name = top;
position = "{234, 700}";
}
);
components = (
{
name = commaaccentcomb;
transform = "{1, 0, 0, 1, 126, 0}";
}
);
layerId = "57E3185A-4375-48AC-BD50-0CEDF403F65C";
paths = (
{
closed = 1;
nodes = (
"367 0 OFFCURVE",
"417 41 OFFCURVE",
"417 134 CURVE SMOOTH",
"417 355 LINE",
"212 355 LINE",
"212 305 LINE",
"322 305 LINE SMOOTH",
"357 305 OFFCURVE",
"367 297 OFFCURVE",
"367 270 CURVE SMOOTH",
"367 218 OFFCURVE",
"333 190 OFFCURVE",
"262 190 CURVE SMOOTH",
"216 190 LINE SMOOTH",
"136 190 OFFCURVE",
"105 237 OFFCURVE",
"105 320 CURVE SMOOTH",
"105 385 LINE SMOOTH",
"105 468 OFFCURVE",
"136 515 OFFCURVE",
"216 515 CURVE SMOOTH",
"262 515 LINE SMOOTH",
"333 515 OFFCURVE",
"367 487 OFFCURVE",
"367 435 CURVE SMOOTH",
"367 410 LINE",
"417 410 LINE",
"417 576 LINE SMOOTH",
"417 669 OFFCURVE",
"367 710 OFFCURVE",
"246 710 CURVE SMOOTH",
"122 710 OFFCURVE",
"50 666 OFFCURVE",
"50 517 CURVE SMOOTH",
"50 193 LINE SMOOTH",
"50 44 OFFCURVE",
"122 0 OFFCURVE",
"246 0 CURVE SMOOTH"
);
}
);
width = 467;
}
);
leftKerningGroup = O;
rightKerningGroup = G;
unicode = 0122;
},
{
color = 4;
glyphname = H;
lastChange = "2020-09-01 16:41:07 +0000";
layers = (
{
background = {
paths = (
{
closed = 1;
nodes = (
"258 335 LINE",
"473 335 LINE",
"473 385 LINE",
"258 385 LINE"
);
},
{
closed = 1;
nodes = (
"222 42 OFFCURVE",
"249 0 OFFCURVE",
"325 0 CURVE SMOOTH",
"334 0 LINE",
"334 202 LINE",
"318 202 LINE SMOOTH",
"286 202 OFFCURVE",
"272 224 OFFCURVE",
"272 275 CURVE SMOOTH",
"272 413 LINE SMOOTH",
"272 482 OFFCURVE",
"282 498 OFFCURVE",
"323 498 CURVE SMOOTH",
"334 498 LINE",
"334 700 LINE",
"325 700 LINE SMOOTH",
"254 700 OFFCURVE",
"222 669 OFFCURVE",
"222 582 CURVE SMOOTH",
"222 138 LINE SMOOTH"
);
},
{
closed = 1;
nodes = (
"506 582 LINE SMOOTH",
"506 669 OFFCURVE",
"473 700 OFFCURVE",
"403 700 CURVE SMOOTH",
"394 700 LINE",
"394 498 LINE",
"405 498 LINE SMOOTH",
"446 498 OFFCURVE",
"456 481 OFFCURVE",
"456 413 CURVE SMOOTH",
"456 275 LINE SMOOTH",
"456 224 OFFCURVE",
"442 202 OFFCURVE",
"410 202 CURVE SMOOTH",
"394 202 LINE",
"394 0 LINE",
"403 0 LINE SMOOTH",
"479 0 OFFCURVE",
"506 42 OFFCURVE",
"506 138 CURVE SMOOTH"
);
},
{
closed = 1;
nodes = (
"172 78 OFFCURVE",
"167 51 OFFCURVE",
"154 30 CURVE",
"220 30 LINE",
"207 51 OFFCURVE",
"202 78 OFFCURVE",
"202 119 CURVE SMOOTH",
"202 581 LINE SMOOTH",
"202 622 OFFCURVE",
"207 649 OFFCURVE",
"220 670 CURVE",
"192 670 LINE",
"154 670 LINE",
"167 649 OFFCURVE",
"172 622 OFFCURVE",
"172 581 CURVE SMOOTH",
"172 119 LINE SMOOTH"
);
},
{
closed = 1;
nodes = (
"526 78 OFFCURVE",
"521 51 OFFCURVE",
"508 30 CURVE",
"574 30 LINE",
"561 51 OFFCURVE",
"556 78 OFFCURVE",
"556 119 CURVE SMOOTH",
"556 581 LINE SMOOTH",
"556 622 OFFCURVE",
"561 649 OFFCURVE",
"574 670 CURVE",
"508 670 LINE",
"521 649 OFFCURVE",
"526 622 OFFCURVE",
"526 581 CURVE SMOOTH",
"526 119 LINE SMOOTH"
);
},
{
closed = 1;
nodes = (
"49 0 LINE SMOOTH",
"125 0 OFFCURVE",
"152 42 OFFCURVE",
"152 138 CURVE SMOOTH",
"152 582 LINE SMOOTH",
"152 669 OFFCURVE",
"119 700 OFFCURVE",
"49 700 CURVE SMOOTH",
"40 700 LINE",
"40 498 LINE",
"51 498 LINE SMOOTH",
"92 498 OFFCURVE",
"102 481 OFFCURVE",
"102 413 CURVE SMOOTH",
"102 275 LINE SMOOTH",
"102 224 OFFCURVE",
"88 202 OFFCURVE",
"56 202 CURVE SMOOTH",
"40 202 LINE",
"40 0 LINE"
);
},
{
closed = 1;
nodes = (
"688 202 LINE",
"672 202 LINE SMOOTH",
"640 202 OFFCURVE",
"626 224 OFFCURVE",
"626 275 CURVE SMOOTH",
"626 413 LINE SMOOTH",
"626 481 OFFCURVE",
"636 498 OFFCURVE",
"677 498 CURVE SMOOTH",
"688 498 LINE",
"688 700 LINE",
"679 700 LINE SMOOTH",
"609 700 OFFCURVE",
"576 669 OFFCURVE",
"576 582 CURVE SMOOTH",
"576 138 LINE SMOOTH",
"576 42 OFFCURVE",
"603 0 OFFCURVE",
"679 0 CURVE SMOOTH",
"688 0 LINE"
);
}
);
};
layerId = "97739396-C0BE-473D-A663-6DBDEFF9DADD";
paths = (
{
closed = 1;
nodes = (
"688 0 LINE",
"688 200 LINE",
"672 200 LINE SMOOTH",
"640 200 OFFCURVE",
"626 222 OFFCURVE",
"626 273 CURVE SMOOTH",
"626 415 LINE SMOOTH",
"626 483 OFFCURVE",
"636 500 OFFCURVE",
"677 500 CURVE SMOOTH",
"688 500 LINE",
"688 700 LINE",
"679 700 LINE SMOOTH",
"614 700 OFFCURVE",
"576 669 OFFCURVE",
"576 582 CURVE SMOOTH",
"576 138 LINE SMOOTH",
"576 42 OFFCURVE",
"608 0 OFFCURVE",
"679 0 CURVE SMOOTH"
);
},
{
closed = 1;
nodes = (
"49 0 LINE SMOOTH",
"120 0 OFFCURVE",
"152 42 OFFCURVE",
"152 138 CURVE SMOOTH",
"152 582 LINE SMOOTH",
"152 669 OFFCURVE",
"114 700 OFFCURVE",
"49 700 CURVE SMOOTH",
"40 700 LINE",
"40 500 LINE",
"51 500 LINE SMOOTH",
"92 500 OFFCURVE",
"102 483 OFFCURVE",
"102 415 CURVE SMOOTH",
"102 273 LINE SMOOTH",
"102 222 OFFCURVE",
"88 200 OFFCURVE",
"56 200 CURVE SMOOTH",
"40 200 LINE",
"40 0 LINE"
);
},
{
closed = 1;
nodes = (
"225 30 LINE",
"212 51 OFFCURVE",
"207 78 OFFCURVE",
"207 119 CURVE SMOOTH",
"207 581 LINE SMOOTH",
"207 622 OFFCURVE",
"212 649 OFFCURVE",
"225 670 CURVE",
"149 670 LINE",
"162 649 OFFCURVE",
"167 622 OFFCURVE",
"167 581 CURVE SMOOTH",
"167 119 LINE SMOOTH",
"167 78 OFFCURVE",
"162 51 OFFCURVE",
"149 30 CURVE"
);
},
{
closed = 1;
nodes = (
"334 0 LINE",
"334 200 LINE",
"318 200 LINE SMOOTH",
"286 200 OFFCURVE",
"272 222 OFFCURVE",
"272 273 CURVE SMOOTH",
"272 415 LINE SMOOTH",
"272 484 OFFCURVE",
"282 500 OFFCURVE",
"323 500 CURVE SMOOTH",
"334 500 LINE",
"334 700 LINE",
"325 700 LINE SMOOTH",
"259 700 OFFCURVE",
"222 669 OFFCURVE",
"222 582 CURVE SMOOTH",
"222 138 LINE SMOOTH",
"222 42 OFFCURVE",
"254 0 OFFCURVE",
"325 0 CURVE SMOOTH"
);
},
{
closed = 1;
nodes = (
"468 335 LINE",
"468 385 LINE",
"263 385 LINE",
"263 335 LINE"
);
},
{
closed = 1;
nodes = (
"403 0 LINE SMOOTH",
"474 0 OFFCURVE",
"506 42 OFFCURVE",
"506 138 CURVE SMOOTH",
"506 582 LINE SMOOTH",
"506 669 OFFCURVE",
"468 700 OFFCURVE",
"403 700 CURVE SMOOTH",
"394 700 LINE",
"394 500 LINE",
"405 500 LINE SMOOTH",
"446 500 OFFCURVE",
"456 483 OFFCURVE",
"456 415 CURVE SMOOTH",
"456 273 LINE SMOOTH",
"456 222 OFFCURVE",
"442 200 OFFCURVE",
"410 200 CURVE SMOOTH",
"394 200 LINE",
"394 0 LINE"
);
},
{
closed = 1;
nodes = (
"579 30 LINE",
"566 51 OFFCURVE",
"561 78 OFFCURVE",
"561 119 CURVE SMOOTH",
"561 581 LINE SMOOTH",
"561 622 OFFCURVE",
"566 649 OFFCURVE",
"579 670 CURVE",
"503 670 LINE",
"516 649 OFFCURVE",
"521 622 OFFCURVE",
"521 581 CURVE SMOOTH",
"521 119 LINE SMOOTH",
"521 78 OFFCURVE",
"516 51 OFFCURVE",
"503 30 CURVE"
);
}
);
width = 728;
},
{
associatedMasterId = "97739396-C0BE-473D-A663-6DBDEFF9DADD";
layerId = "F11DE03C-3798-43C0-905A-836E7C45048A";
name = "Jun 1 20, 10:57";
paths = (
{
closed = 1;
nodes = (
"273 335 LINE",
"488 335 LINE",
"488 385 LINE",
"273 385 LINE"
);
},
{
closed = 1;
nodes = (
"167 582 LINE SMOOTH",
"167 669 OFFCURVE",
"124 700 OFFCURVE",
"69 700 CURVE SMOOTH",
"40 700 LINE",
"40 498 LINE",
"51 498 LINE SMOOTH",
"99 498 OFFCURVE",
"117 481 OFFCURVE",
"117 413 CURVE SMOOTH",
"117 275 LINE SMOOTH",
"117 224 OFFCURVE",
"95 202 OFFCURVE",
"56 202 CURVE SMOOTH",
"40 202 LINE",
"40 0 LINE",
"69 0 LINE SMOOTH",
"131 0 OFFCURVE",
"167 42 OFFCURVE",
"167 138 CURVE SMOOTH"
);
},
{
closed = 1;
nodes = (
"237 42 OFFCURVE",
"264 0 OFFCURVE",
"340 0 CURVE SMOOTH",
"349 0 LINE",
"349 202 LINE",
"333 202 LINE SMOOTH",
"301 202 OFFCURVE",
"287 224 OFFCURVE",
"287 275 CURVE SMOOTH",
"287 413 LINE SMOOTH",
"287 481 OFFCURVE",
"297 498 OFFCURVE",
"338 498 CURVE SMOOTH",
"349 498 LINE",
"349 700 LINE",
"340 700 LINE SMOOTH",
"269 700 OFFCURVE",
"237 669 OFFCURVE",
"237 582 CURVE SMOOTH",
"237 138 LINE SMOOTH"
);
},
{
closed = 1;
nodes = (
"591 42 OFFCURVE",
"627 0 OFFCURVE",
"689 0 CURVE SMOOTH",
"718 0 LINE",
"718 202 LINE",
"702 202 LINE SMOOTH",
"663 202 OFFCURVE",
"641 224 OFFCURVE",
"641 275 CURVE SMOOTH",
"641 413 LINE SMOOTH",
"641 481 OFFCURVE",
"659 498 OFFCURVE",
"707 498 CURVE SMOOTH",
"718 498 LINE",
"718 700 LINE",
"689 700 LINE SMOOTH",
"633 700 OFFCURVE",
"591 669 OFFCURVE",
"591 582 CURVE SMOOTH",
"591 138 LINE SMOOTH"
);
},
{
closed = 1;
nodes = (
"521 582 LINE SMOOTH",
"521 669 OFFCURVE",
"488 700 OFFCURVE",
"418 700 CURVE SMOOTH",
"409 700 LINE",
"409 498 LINE",
"420 498 LINE SMOOTH",
"461 498 OFFCURVE",
"471 481 OFFCURVE",
"471 413 CURVE SMOOTH",
"471 275 LINE SMOOTH",
"471 224 OFFCURVE",
"457 202 OFFCURVE",
"425 202 CURVE SMOOTH",
"409 202 LINE",
"409 0 LINE",
"418 0 LINE SMOOTH",
"494 0 OFFCURVE",
"521 42 OFFCURVE",
"521 138 CURVE SMOOTH"
);
},
{
closed = 1;
nodes = (
"187 78 OFFCURVE",
"182 51 OFFCURVE",
"169 30 CURVE",
"235 30 LINE",
"222 51 OFFCURVE",
"217 78 OFFCURVE",
"217 119 CURVE SMOOTH",
"217 581 LINE SMOOTH",
"217 622 OFFCURVE",
"222 649 OFFCURVE",
"235 670 CURVE",
"207 670 LINE",
"169 670 LINE",
"182 649 OFFCURVE",
"187 622 OFFCURVE",
"187 581 CURVE SMOOTH",
"187 119 LINE SMOOTH"
);
},
{
closed = 1;
nodes = (
"541 78 OFFCURVE",
"536 51 OFFCURVE",
"523 30 CURVE",
"589 30 LINE",
"576 51 OFFCURVE",
"571 78 OFFCURVE",
"571 119 CURVE SMOOTH",
"571 581 LINE SMOOTH",
"571 622 OFFCURVE",
"576 649 OFFCURVE",
"589 670 CURVE",
"523 670 LINE",
"536 649 OFFCURVE",
"541 622 OFFCURVE",
"541 581 CURVE SMOOTH",
"541 119 LINE SMOOTH"
);
}
);
width = 758;
},
{
associatedMasterId = "97739396-C0BE-473D-A663-6DBDEFF9DADD";
layerId = "1A7A72DD-9F80-426B-B955-445EB22FE0D4";
name = "Jun 2 20, 10:30";
paths = (
{
closed = 1;
nodes = (
"273 335 LINE",
"488 335 LINE",
"488 385 LINE",
"273 385 LINE"
);
},
{
closed = 1;
nodes = (
"167 582 LINE SMOOTH",
"167 669 OFFCURVE",
"124 700 OFFCURVE",
"69 700 CURVE SMOOTH",
"40 700 LINE",
"40 498 LINE",
"51 498 LINE SMOOTH",
"99 498 OFFCURVE",
"117 481 OFFCURVE",
"117 413 CURVE SMOOTH",
"117 275 LINE SMOOTH",
"117 224 OFFCURVE",
"95 202 OFFCURVE",
"56 202 CURVE SMOOTH",
"40 202 LINE",
"40 0 LINE",
"69 0 LINE SMOOTH",
"131 0 OFFCURVE",
"167 42 OFFCURVE",
"167 138 CURVE SMOOTH"
);
},
{
closed = 1;
nodes = (
"237 42 OFFCURVE",
"264 0 OFFCURVE",
"340 0 CURVE SMOOTH",
"349 0 LINE",
"349 202 LINE",
"333 202 LINE SMOOTH",
"301 202 OFFCURVE",
"287 224 OFFCURVE",
"287 275 CURVE SMOOTH",
"287 413 LINE SMOOTH",
"287 482 OFFCURVE",
"297 498 OFFCURVE",
"338 498 CURVE SMOOTH",
"349 498 LINE",
"349 700 LINE",
"340 700 LINE SMOOTH",
"269 700 OFFCURVE",
"237 669 OFFCURVE",
"237 582 CURVE SMOOTH",
"237 138 LINE SMOOTH"
);
},
{
closed = 1;
nodes = (
"591 42 OFFCURVE",
"627 0 OFFCURVE",
"689 0 CURVE SMOOTH",
"718 0 LINE",
"718 202 LINE",
"702 202 LINE SMOOTH",
"663 202 OFFCURVE",
"641 224 OFFCURVE",
"641 275 CURVE SMOOTH",
"641 413 LINE SMOOTH",
"641 481 OFFCURVE",
"659 498 OFFCURVE",
"707 498 CURVE SMOOTH",
"718 498 LINE",
"718 700 LINE",
"689 700 LINE SMOOTH",
"633 700 OFFCURVE",
"591 669 OFFCURVE",
"591 582 CURVE SMOOTH",
"591 138 LINE SMOOTH"
);
},
{
closed = 1;
nodes = (
"521 582 LINE SMOOTH",
"521 669 OFFCURVE",
"488 700 OFFCURVE",
"418 700 CURVE SMOOTH",
"409 700 LINE",
"409 498 LINE",
"420 498 LINE SMOOTH",
"461 498 OFFCURVE",
"471 481 OFFCURVE",
"471 413 CURVE SMOOTH",
"471 275 LINE SMOOTH",
"471 224 OFFCURVE",
"457 202 OFFCURVE",
"425 202 CURVE SMOOTH",
"409 202 LINE",
"409 0 LINE",
"418 0 LINE SMOOTH",
"494 0 OFFCURVE",
"521 42 OFFCURVE",
"521 138 CURVE SMOOTH"
);
},
{
closed = 1;
nodes = (
"187 78 OFFCURVE",
"182 51 OFFCURVE",
"169 30 CURVE",
"235 30 LINE",
"222 51 OFFCURVE",
"217 78 OFFCURVE",
"217 119 CURVE SMOOTH",
"217 581 LINE SMOOTH",
"217 622 OFFCURVE",
"222 649 OFFCURVE",
"235 670 CURVE",
"207 670 LINE",
"169 670 LINE",
"182 649 OFFCURVE",
"187 622 OFFCURVE",
"187 581 CURVE SMOOTH",
"187 119 LINE SMOOTH"
);
},
{
closed = 1;
nodes = (
"541 78 OFFCURVE",
"536 51 OFFCURVE",
"523 30 CURVE",
"589 30 LINE",
"576 51 OFFCURVE",
"571 78 OFFCURVE",
"571 119 CURVE SMOOTH",
"571 581 LINE SMOOTH",
"571 622 OFFCURVE",
"576 649 OFFCURVE",
"589 670 CURVE",
"523 670 LINE",
"536 649 OFFCURVE",
"541 622 OFFCURVE",
"541 581 CURVE SMOOTH",
"541 119 LINE SMOOTH"
);
}
);
width = 758;
},
{
layerId = "57E3185A-4375-48AC-BD50-0CEDF403F65C";
paths = (
{
closed = 1;
nodes = (
"335 0 LINE SMOOTH",
"407 0 OFFCURVE",
"435 28 OFFCURVE",
"435 100 CURVE SMOOTH",
"435 600 LINE SMOOTH",
"435 672 OFFCURVE",
"407 700 OFFCURVE",
"335 700 CURVE SMOOTH",
"280 700 LINE",
"280 500 LINE",
"315 500 LINE SMOOTH",
"369 500 OFFCURVE",
"385 479 OFFCURVE",
"385 410 CURVE SMOOTH",
"385 290 LINE SMOOTH",
"385 221 OFFCURVE",
"369 200 OFFCURVE",
"315 200 CURVE SMOOTH",
"280 200 LINE",
"280 0 LINE"
);
},
{
closed = 1;
nodes = (
"210 0 LINE",
"210 200 LINE",
"175 200 LINE SMOOTH",
"121 200 OFFCURVE",
"105 221 OFFCURVE",
"105 290 CURVE SMOOTH",
"105 410 LINE SMOOTH",
"105 479 OFFCURVE",
"121 500 OFFCURVE",
"175 500 CURVE SMOOTH",
"210 500 LINE",
"210 700 LINE",
"155 700 LINE SMOOTH",
"83 700 OFFCURVE",
"55 672 OFFCURVE",
"55 600 CURVE SMOOTH",
"55 100 LINE SMOOTH",
"55 28 OFFCURVE",
"83 0 OFFCURVE",
"155 0 CURVE SMOOTH"
);
},
{
closed = 1;
nodes = (
"402 335 LINE",
"402 385 LINE",
"91 385 LINE",
"91 335 LINE"
);
}
);
width = 490;
},
{
associatedMasterId = "57E3185A-4375-48AC-BD50-0CEDF403F65C";
layerId = "6D03246D-2209-4F41-A8BA-826FD21C5816";
name = "Jun 1 20, 10:57";
paths = (
{
closed = 1;
nodes = (
"273 335 LINE",
"488 335 LINE",
"488 385 LINE",
"273 385 LINE"
);
},
{
closed = 1;
nodes = (
"167 582 LINE SMOOTH",
"167 669 OFFCURVE",
"124 700 OFFCURVE",
"69 700 CURVE SMOOTH",
"40 700 LINE",
"40 498 LINE",
"51 498 LINE SMOOTH",
"99 498 OFFCURVE",
"117 481 OFFCURVE",
"117 413 CURVE SMOOTH",
"117 275 LINE SMOOTH",
"117 224 OFFCURVE",
"95 202 OFFCURVE",
"56 202 CURVE SMOOTH",
"40 202 LINE",
"40 0 LINE",
"69 0 LINE SMOOTH",
"131 0 OFFCURVE",
"167 42 OFFCURVE",
"167 138 CURVE SMOOTH"
);
},
{
closed = 1;
nodes = (
"237 42 OFFCURVE",
"264 0 OFFCURVE",
"340 0 CURVE SMOOTH",
"349 0 LINE",
"349 202 LINE",
"333 202 LINE SMOOTH",
"301 202 OFFCURVE",
"287 224 OFFCURVE",
"287 275 CURVE SMOOTH",
"287 413 LINE SMOOTH",
"287 481 OFFCURVE",
"297 498 OFFCURVE",
"338 498 CURVE SMOOTH",
"349 498 LINE",
"349 700 LINE",
"340 700 LINE SMOOTH",
"269 700 OFFCURVE",
"237 669 OFFCURVE",
"237 582 CURVE SMOOTH",
"237 138 LINE SMOOTH"
);
},
{
closed = 1;
nodes = (
"591 42 OFFCURVE",
"627 0 OFFCURVE",
"689 0 CURVE SMOOTH",
"718 0 LINE",
"718 202 LINE",
"702 202 LINE SMOOTH",
"663 202 OFFCURVE",
"641 224 OFFCURVE",
"641 275 CURVE SMOOTH",
"641 413 LINE SMOOTH",
"641 481 OFFCURVE",
"659 498 OFFCURVE",
"707 498 CURVE SMOOTH",
"718 498 LINE",
"718 700 LINE",
"689 700 LINE SMOOTH",
"633 700 OFFCURVE",
"591 669 OFFCURVE",
"591 582 CURVE SMOOTH",
"591 138 LINE SMOOTH"
);
},
{
closed = 1;
nodes = (
"521 582 LINE SMOOTH",
"521 669 OFFCURVE",
"488 700 OFFCURVE",
"418 700 CURVE SMOOTH",
"409 700 LINE",
"409 498 LINE",
"420 498 LINE SMOOTH",
"461 498 OFFCURVE",
"471 481 OFFCURVE",
"471 413 CURVE SMOOTH",
"471 275 LINE SMOOTH",
"471 224 OFFCURVE",
"457 202 OFFCURVE",
"425 202 CURVE SMOOTH",
"409 202 LINE",
"409 0 LINE",
"418 0 LINE SMOOTH",
"494 0 OFFCURVE",
"521 42 OFFCURVE",
"521 138 CURVE SMOOTH"
);
},
{
closed = 1;
nodes = (
"187 78 OFFCURVE",
"182 51 OFFCURVE",
"169 30 CURVE",
"235 30 LINE",
"222 51 OFFCURVE",
"217 78 OFFCURVE",
"217 119 CURVE SMOOTH",
"217 581 LINE SMOOTH",
"217 622 OFFCURVE",
"222 649 OFFCURVE",
"235 670 CURVE",
"207 670 LINE",
"169 670 LINE",
"182 649 OFFCURVE",
"187 622 OFFCURVE",
"187 581 CURVE SMOOTH",
"187 119 LINE SMOOTH"
);
},
{
closed = 1;
nodes = (
"541 78 OFFCURVE",
"536 51 OFFCURVE",
"523 30 CURVE",
"589 30 LINE",
"576 51 OFFCURVE",
"571 78 OFFCURVE",
"571 119 CURVE SMOOTH",
"571 581 LINE SMOOTH",
"571 622 OFFCURVE",
"576 649 OFFCURVE",
"589 670 CURVE",
"523 670 LINE",
"536 649 OFFCURVE",
"541 622 OFFCURVE",
"541 581 CURVE SMOOTH",
"541 119 LINE SMOOTH"
);
}
);
width = 758;
},
{
associatedMasterId = "57E3185A-4375-48AC-BD50-0CEDF403F65C";
layerId = "1AD8CA87-F418-4395-A882-1AA734746591";
name = "Jun 2 20, 10:30";
paths = (
{
closed = 1;
nodes = (
"273 335 LINE",
"488 335 LINE",
"488 385 LINE",
"273 385 LINE"
);
},
{
closed = 1;
nodes = (
"167 582 LINE SMOOTH",
"167 669 OFFCURVE",
"124 700 OFFCURVE",
"69 700 CURVE SMOOTH",
"40 700 LINE",
"40 498 LINE",
"51 498 LINE SMOOTH",
"99 498 OFFCURVE",
"117 481 OFFCURVE",
"117 413 CURVE SMOOTH",
"117 275 LINE SMOOTH",
"117 224 OFFCURVE",
"95 202 OFFCURVE",
"56 202 CURVE SMOOTH",
"40 202 LINE",
"40 0 LINE",
"69 0 LINE SMOOTH",
"131 0 OFFCURVE",
"167 42 OFFCURVE",
"167 138 CURVE SMOOTH"
);
},
{
closed = 1;
nodes = (
"237 42 OFFCURVE",
"264 0 OFFCURVE",
"340 0 CURVE SMOOTH",
"349 0 LINE",
"349 202 LINE",
"333 202 LINE SMOOTH",
"301 202 OFFCURVE",
"287 224 OFFCURVE",
"287 275 CURVE SMOOTH",
"287 413 LINE SMOOTH",
"287 482 OFFCURVE",
"297 498 OFFCURVE",
"338 498 CURVE SMOOTH",
"349 498 LINE",
"349 700 LINE",
"340 700 LINE SMOOTH",
"269 700 OFFCURVE",
"237 669 OFFCURVE",
"237 582 CURVE SMOOTH",
"237 138 LINE SMOOTH"
);
},
{
closed = 1;
nodes = (
"591 42 OFFCURVE",
"627 0 OFFCURVE",
"689 0 CURVE SMOOTH",
"718 0 LINE",
"718 202 LINE",
"702 202 LINE SMOOTH",
"663 202 OFFCURVE",
"641 224 OFFCURVE",
"641 275 CURVE SMOOTH",
"641 413 LINE SMOOTH",
"641 481 OFFCURVE",
"659 498 OFFCURVE",
"707 498 CURVE SMOOTH",
"718 498 LINE",
"718 700 LINE",
"689 700 LINE SMOOTH",
"633 700 OFFCURVE",
"591 669 OFFCURVE",
"591 582 CURVE SMOOTH",
"591 138 LINE SMOOTH"
);
},
{
closed = 1;
nodes = (
"521 582 LINE SMOOTH",
"521 669 OFFCURVE",
"488 700 OFFCURVE",
"418 700 CURVE SMOOTH",
"409 700 LINE",
"409 498 LINE",
"420 498 LINE SMOOTH",
"461 498 OFFCURVE",
"471 481 OFFCURVE",
"471 413 CURVE SMOOTH",
"471 275 LINE SMOOTH",
"471 224 OFFCURVE",
"457 202 OFFCURVE",
"425 202 CURVE SMOOTH",
"409 202 LINE",
"409 0 LINE",
"418 0 LINE SMOOTH",
"494 0 OFFCURVE",
"521 42 OFFCURVE",
"521 138 CURVE SMOOTH"
);
},
{
closed = 1;
nodes = (
"187 78 OFFCURVE",
"182 51 OFFCURVE",
"169 30 CURVE",
"235 30 LINE",
"222 51 OFFCURVE",
"217 78 OFFCURVE",
"217 119 CURVE SMOOTH",
"217 581 LINE SMOOTH",
"217 622 OFFCURVE",
"222 649 OFFCURVE",
"235 670 CURVE",
"207 670 LINE",
"169 670 LINE",
"182 649 OFFCURVE",
"187 622 OFFCURVE",
"187 581 CURVE SMOOTH",
"187 119 LINE SMOOTH"
);
},
{
closed = 1;
nodes = (
"541 78 OFFCURVE",
"536 51 OFFCURVE",
"523 30 CURVE",
"589 30 LINE",
"576 51 OFFCURVE",
"571 78 OFFCURVE",
"571 119 CURVE SMOOTH",
"571 581 LINE SMOOTH",
"571 622 OFFCURVE",
"576 649 OFFCURVE",
"589 670 CURVE",
"523 670 LINE",
"536 649 OFFCURVE",
"541 622 OFFCURVE",
"541 581 CURVE SMOOTH",
"541 119 LINE SMOOTH"
);
}
);
width = 758;
}
);
leftKerningGroup = H;
rightKerningGroup = H;
unicode = 0048;
},
{
color = 4;
glyphname = Hbar;
lastChange = "2020-09-01 16:41:07 +0000";
layers = (
{
layerId = "97739396-C0BE-473D-A663-6DBDEFF9DADD";
paths = (
{
closed = 1;
nodes = (
"688 0 LINE",
"688 197 LINE",
"672 197 LINE SMOOTH",
"640 197 OFFCURVE",
"626 219 OFFCURVE",
"626 270 CURVE SMOOTH",
"626 418 LINE SMOOTH",
"626 486 OFFCURVE",
"636 503 OFFCURVE",
"677 503 CURVE SMOOTH",
"688 503 LINE",
"688 700 LINE",
"679 700 LINE SMOOTH",
"614 700 OFFCURVE",
"576 669 OFFCURVE",
"576 582 CURVE SMOOTH",
"576 138 LINE SMOOTH",
"576 42 OFFCURVE",
"608 0 OFFCURVE",
"679 0 CURVE SMOOTH"
);
},
{
closed = 1;
nodes = (
"49 0 LINE SMOOTH",
"120 0 OFFCURVE",
"152 42 OFFCURVE",
"152 138 CURVE SMOOTH",
"152 582 LINE SMOOTH",
"152 669 OFFCURVE",
"114 700 OFFCURVE",
"49 700 CURVE SMOOTH",
"40 700 LINE",
"40 503 LINE",
"51 503 LINE SMOOTH",
"92 503 OFFCURVE",
"102 486 OFFCURVE",
"102 418 CURVE SMOOTH",
"102 270 LINE SMOOTH",
"102 219 OFFCURVE",
"88 197 OFFCURVE",
"56 197 CURVE SMOOTH",
"40 197 LINE",
"40 0 LINE"
);
},
{
closed = 1;
nodes = (
"122 412 LINE",
"122 457 LINE",
"40 457 LINE",
"40 412 LINE"
);
},
{
closed = 1;
nodes = (
"225 30 LINE",
"212 51 OFFCURVE",
"207 78 OFFCURVE",
"207 119 CURVE SMOOTH",
"207 581 LINE SMOOTH",
"207 622 OFFCURVE",
"212 649 OFFCURVE",
"225 670 CURVE",
"149 670 LINE",
"162 649 OFFCURVE",
"167 622 OFFCURVE",
"167 581 CURVE SMOOTH",
"167 119 LINE SMOOTH",
"167 78 OFFCURVE",
"162 51 OFFCURVE",
"149 30 CURVE"
);
},
{
closed = 1;
nodes = (
"334 0 LINE",
"334 197 LINE",
"318 197 LINE SMOOTH",
"286 197 OFFCURVE",
"272 219 OFFCURVE",
"272 270 CURVE SMOOTH",
"272 418 LINE SMOOTH",
"272 487 OFFCURVE",
"282 503 OFFCURVE",
"323 503 CURVE SMOOTH",
"334 503 LINE",
"334 700 LINE",
"325 700 LINE SMOOTH",
"259 700 OFFCURVE",
"222 669 OFFCURVE",
"222 582 CURVE SMOOTH",
"222 138 LINE SMOOTH",
"222 42 OFFCURVE",
"254 0 OFFCURVE",
"325 0 CURVE SMOOTH"
);
},
{
closed = 1;
nodes = (
"468 332 LINE",
"468 382 LINE",
"263 382 LINE",
"263 332 LINE"
);
},
{
closed = 1;
nodes = (
"495 412 LINE",
"495 457 LINE",
"234 457 LINE",
"234 412 LINE"
);
},
{
closed = 1;
nodes = (
"403 0 LINE SMOOTH",
"474 0 OFFCURVE",
"506 42 OFFCURVE",
"506 138 CURVE SMOOTH",
"506 582 LINE SMOOTH",
"506 669 OFFCURVE",
"468 700 OFFCURVE",
"403 700 CURVE SMOOTH",
"394 700 LINE",
"394 503 LINE",
"405 503 LINE SMOOTH",
"446 503 OFFCURVE",
"456 486 OFFCURVE",
"456 418 CURVE SMOOTH",
"456 270 LINE SMOOTH",
"456 219 OFFCURVE",
"442 197 OFFCURVE",
"410 197 CURVE SMOOTH",
"394 197 LINE",
"394 0 LINE"
);
},
{
closed = 1;
nodes = (
"579 30 LINE",
"566 51 OFFCURVE",
"561 78 OFFCURVE",
"561 119 CURVE SMOOTH",
"561 581 LINE SMOOTH",
"561 622 OFFCURVE",
"566 649 OFFCURVE",
"579 670 CURVE",
"503 670 LINE",
"516 649 OFFCURVE",
"521 622 OFFCURVE",
"521 581 CURVE SMOOTH",
"521 119 LINE SMOOTH",
"521 78 OFFCURVE",
"516 51 OFFCURVE",
"503 30 CURVE"
);
},
{
closed = 1;
nodes = (
"688 412 LINE",
"688 457 LINE",
"596 457 LINE",
"596 412 LINE"
);
}
);
width = 728;
},
{
layerId = "57E3185A-4375-48AC-BD50-0CEDF403F65C";
paths = (
{
closed = 1;
nodes = (
"335 0 LINE SMOOTH",
"407 0 OFFCURVE",
"435 28 OFFCURVE",
"435 100 CURVE SMOOTH",
"435 600 LINE SMOOTH",
"435 672 OFFCURVE",
"407 700 OFFCURVE",
"335 700 CURVE SMOOTH",
"280 700 LINE",
"280 545 LINE",
"315 545 LINE SMOOTH",
"369 545 OFFCURVE",
"385 524 OFFCURVE",
"385 455 CURVE SMOOTH",
"385 295 LINE SMOOTH",
"385 226 OFFCURVE",
"369 205 OFFCURVE",
"315 205 CURVE SMOOTH",
"280 205 LINE",
"280 0 LINE"
);
},
{
closed = 1;
nodes = (
"210 0 LINE",
"210 205 LINE",
"175 205 LINE SMOOTH",
"121 205 OFFCURVE",
"105 226 OFFCURVE",
"105 295 CURVE SMOOTH",
"105 455 LINE SMOOTH",
"105 524 OFFCURVE",
"121 545 OFFCURVE",
"175 545 CURVE SMOOTH",
"210 545 LINE",
"210 700 LINE",
"155 700 LINE SMOOTH",
"83 700 OFFCURVE",
"55 672 OFFCURVE",
"55 600 CURVE SMOOTH",
"55 100 LINE SMOOTH",
"55 28 OFFCURVE",
"83 0 OFFCURVE",
"155 0 CURVE SMOOTH"
);
},
{
closed = 1;
nodes = (
"402 335 LINE",
"402 385 LINE",
"91 385 LINE",
"91 335 LINE"
);
},
{
closed = 1;
nodes = (
"490 440 LINE",
"490 485 LINE",
"0 485 LINE",
"0 440 LINE"
);
}
);
width = 490;
}
);
leftKerningGroup = H;
rightKerningGroup = H;
unicode = 0126;
},
{
color = 4;
glyphname = I;
lastChange = "2020-09-01 14:44:14 +0000";
layers = (
{
anchors = (
{
name = bottom;
position = "{195, 0}";
},
{
name = ogonek;
position = "{334, 0}";
},
{
name = top;
position = "{195, 700}";
},
{
name = topleft;
position = "{20, 700}";
}
);
layerId = "97739396-C0BE-473D-A663-6DBDEFF9DADD";
paths = (
{
closed = 1;
nodes = (
"334 0 LINE",
"334 200 LINE",
"318 200 LINE SMOOTH",
"286 200 OFFCURVE",
"272 222 OFFCURVE",
"272 273 CURVE SMOOTH",
"272 415 LINE SMOOTH",
"272 484 OFFCURVE",
"282 500 OFFCURVE",
"323 500 CURVE SMOOTH",
"334 500 LINE",
"334 700 LINE",
"325 700 LINE SMOOTH",
"259 700 OFFCURVE",
"222 669 OFFCURVE",
"222 582 CURVE SMOOTH",
"222 138 LINE SMOOTH",
"222 42 OFFCURVE",
"254 0 OFFCURVE",
"325 0 CURVE SMOOTH"
);
},
{
closed = 1;
nodes = (
"49 0 LINE SMOOTH",
"120 0 OFFCURVE",
"152 42 OFFCURVE",
"152 138 CURVE SMOOTH",
"152 582 LINE SMOOTH",
"152 669 OFFCURVE",
"114 700 OFFCURVE",
"49 700 CURVE SMOOTH",
"40 700 LINE",
"40 500 LINE",
"51 500 LINE SMOOTH",
"92 500 OFFCURVE",
"102 483 OFFCURVE",
"102 415 CURVE SMOOTH",
"102 273 LINE SMOOTH",
"102 222 OFFCURVE",
"88 200 OFFCURVE",
"56 200 CURVE SMOOTH",
"40 200 LINE",
"40 0 LINE"
);
},
{
closed = 1;
nodes = (
"225 30 LINE",
"212 51 OFFCURVE",
"207 78 OFFCURVE",
"207 119 CURVE SMOOTH",
"207 581 LINE SMOOTH",
"207 622 OFFCURVE",
"212 649 OFFCURVE",
"225 670 CURVE",
"149 670 LINE",
"162 649 OFFCURVE",
"167 622 OFFCURVE",
"167 581 CURVE SMOOTH",
"167 119 LINE SMOOTH",
"167 78 OFFCURVE",
"162 51 OFFCURVE",
"149 30 CURVE"
);
}
);
width = 374;
},
{
anchors = (
{
name = bottom;
position = "{157, 0}";
},
{
name = ogonek;
position = "{276, 0}";
},
{
name = top;
position = "{157, 700}";
},
{
name = topleft;
position = "{20, 700}";
}
);
layerId = "57E3185A-4375-48AC-BD50-0CEDF403F65C";
paths = (
{
closed = 1;
nodes = (
"176 0 LINE SMOOTH",
"248 0 OFFCURVE",
"284 21 OFFCURVE",
"284 94 CURVE SMOOTH",
"284 200 LINE",
"264 200 LINE",
"198 200 OFFCURVE",
"182 229 OFFCURVE",
"182 291 CURVE SMOOTH",
"182 409 LINE SMOOTH",
"182 471 OFFCURVE",
"198 500 OFFCURVE",
"264 500 CURVE",
"284 500 LINE",
"284 606 LINE SMOOTH",
"284 679 OFFCURVE",
"248 700 OFFCURVE",
"176 700 CURVE SMOOTH",
"138 700 LINE SMOOTH",
"66 700 OFFCURVE",
"30 679 OFFCURVE",
"30 606 CURVE SMOOTH",
"30 500 LINE",
"50 500 LINE",
"116 500 OFFCURVE",
"132 471 OFFCURVE",
"132 409 CURVE SMOOTH",
"132 291 LINE SMOOTH",
"132 229 OFFCURVE",
"116 200 OFFCURVE",
"50 200 CURVE",
"30 200 LINE",
"30 94 LINE SMOOTH",
"30 21 OFFCURVE",
"66 0 OFFCURVE",
"138 0 CURVE SMOOTH"
);
}
);
width = 314;
}
);
leftKerningGroup = H;
rightKerningGroup = H;
unicode = 0049;
},
{
color = 4;
glyphname = Iogonek;
lastChange = "2020-09-01 02:07:02 +0000";
layers = (
{
components = (
{
name = I;
}
);
layerId = "97739396-C0BE-473D-A663-6DBDEFF9DADD";
paths = (
{
closed = 1;
nodes = (
"334 -200 LINE",
"334 -150 LINE",
"294 -150 LINE SMOOTH",
"258 -150 OFFCURVE",
"243 -137 OFFCURVE",
"243 -109 CURVE SMOOTH",
"243 -75 OFFCURVE",
"266 -40 OFFCURVE",
"334 0 CURVE",
"312 33 LINE",
"223 -15 OFFCURVE",
"188 -58 OFFCURVE",
"188 -109 CURVE SMOOTH",
"188 -167 OFFCURVE",
"220 -200 OFFCURVE",
"294 -200 CURVE SMOOTH"
);
}
);
width = 374;
},
{
components = (
{
name = I;
},
{
name = ogonekcomb;
transform = "{1, 0, 0, 1, 100, 0}";
}
);
layerId = "57E3185A-4375-48AC-BD50-0CEDF403F65C";
width = 314;
},
{
associatedMasterId = "97739396-C0BE-473D-A663-6DBDEFF9DADD";
components = (
{
name = I;
},
{
name = ogonekcomb;
transform = "{1, 0, 0, 1, 158, 0}";
}
);
layerId = "8E4CA850-B6BC-4CC1-80C6-FA79B37243E1";
name = "Aug 25 20, 16:34";
width = 374;
}
);
leftKerningGroup = H;
rightKerningGroup = H;
unicode = 012E;
},
{
color = 4;
glyphname = J;
lastChange = "2020-09-01 14:44:20 +0000";
layers = (
{
background = {
paths = (
{
closed = 1;
nodes = (
"353 93 OFFCURVE",
"371 128 OFFCURVE",
"371 205 CURVE SMOOTH",
"371 413 LINE SMOOTH",
"371 481 OFFCURVE",
"389 498 OFFCURVE",
"437 498 CURVE SMOOTH",
"448 498 LINE",
"448 700 LINE",
"419 700 LINE SMOOTH",
"363 700 OFFCURVE",
"321 669 OFFCURVE",
"321 582 CURVE SMOOTH",
"321 144 LINE SMOOTH",
"321 119 OFFCURVE",
"320 97 OFFCURVE",
"316 78 CURVE"
);
},
{
closed = 1;
nodes = (
"201 413 LINE SMOOTH",
"201 481 OFFCURVE",
"191 498 OFFCURVE",
"150 498 CURVE SMOOTH",
"139 498 LINE",
"139 700 LINE",
"148 700 LINE SMOOTH",
"218 700 OFFCURVE",
"251 669 OFFCURVE",
"251 582 CURVE SMOOTH",
"251 138 LINE SMOOTH",
"251 42 OFFCURVE",
"215 0 OFFCURVE",
"153 0 CURVE SMOOTH",
"102 0 LINE SMOOTH",
"27 0 OFFCURVE",
"-16 48 OFFCURVE",
"-16 116 CURVE SMOOTH",
"-16 296 LINE",
"41 296 LINE",
"41 220 OFFCURVE",
"58 200 OFFCURVE",
"109 200 CURVE SMOOTH",
"141 200 LINE SMOOTH",
"180 200 OFFCURVE",
"201 224 OFFCURVE",
"201 275 CURVE SMOOTH"
);
},
{
closed = 1;
nodes = (
"271 70 OFFCURVE",
"266 51 OFFCURVE",
"250 30 CURVE",
"287 30 OFFCURVE",
"301 51 OFFCURVE",
"301 119 CURVE SMOOTH",
"301 581 LINE SMOOTH",
"301 622 OFFCURVE",
"306 649 OFFCURVE",
"319 670 CURVE",
"253 670 LINE",
"266 649 OFFCURVE",
"271 622 OFFCURVE",
"271 581 CURVE SMOOTH",
"271 119 LINE SMOOTH"
);
}
);
};
layerId = "97739396-C0BE-473D-A663-6DBDEFF9DADD";
paths = (
{
closed = 1;
nodes = (
"172 0 LINE SMOOTH",
"224 0 OFFCURVE",
"251 42 OFFCURVE",
"251 138 CURVE SMOOTH",
"251 582 LINE SMOOTH",
"251 669 OFFCURVE",
"218 700 OFFCURVE",
"148 700 CURVE SMOOTH",
"108 700 LINE",
"108 500 LINE",
"150 500 LINE SMOOTH",
"191 500 OFFCURVE",
"201 483 OFFCURVE",
"201 415 CURVE SMOOTH",
"201 275 LINE SMOOTH",
"201 224 OFFCURVE",
"179 200 OFFCURVE",
"140 200 CURVE SMOOTH",
"117 200 LINE SMOOTH",
"70 200 OFFCURVE",
"53 226 OFFCURVE",
"53 275 CURVE",
"10 275 LINE",
"10 116 LINE SMOOTH",
"10 48 OFFCURVE",
"50 0 OFFCURVE",
"132 0 CURVE SMOOTH"
);
},
{
closed = 1;
nodes = (
"282 30 OFFCURVE",
"306 51 OFFCURVE",
"306 119 CURVE SMOOTH",
"306 581 LINE SMOOTH",
"306 622 OFFCURVE",
"311 649 OFFCURVE",
"324 670 CURVE",
"248 670 LINE",
"261 649 OFFCURVE",
"266 622 OFFCURVE",
"266 581 CURVE SMOOTH",
"266 119 LINE SMOOTH",
"266 70 OFFCURVE",
"261 51 OFFCURVE",
"245 30 CURVE"
);
},
{
closed = 1;
nodes = (
"353 93 OFFCURVE",
"371 128 OFFCURVE",
"371 205 CURVE SMOOTH",
"371 415 LINE SMOOTH",
"371 483 OFFCURVE",
"389 500 OFFCURVE",
"437 500 CURVE SMOOTH",
"448 500 LINE",
"448 700 LINE",
"419 700 LINE SMOOTH",
"363 700 OFFCURVE",
"321 669 OFFCURVE",
"321 582 CURVE SMOOTH",
"321 144 LINE SMOOTH",
"321 119 OFFCURVE",
"320 97 OFFCURVE",
"316 78 CURVE"
);
}
);
width = 463;
},
{
layerId = "57E3185A-4375-48AC-BD50-0CEDF403F65C";
paths = (
{
closed = 1;
nodes = (
"177 0 LINE SMOOTH",
"249 0 OFFCURVE",
"277 28 OFFCURVE",
"277 100 CURVE SMOOTH",
"277 600 LINE SMOOTH",
"277 672 OFFCURVE",
"249 700 OFFCURVE",
"177 700 CURVE SMOOTH",
"137 700 LINE",
"137 500 LINE",
"161 500 LINE SMOOTH",
"209 500 OFFCURVE",
"227 481 OFFCURVE",
"227 413 CURVE SMOOTH",
"227 275 LINE SMOOTH",
"227 224 OFFCURVE",
"206 200 OFFCURVE",
"167 200 CURVE SMOOTH",
"140 200 LINE SMOOTH",
"86 200 OFFCURVE",
"70 220 OFFCURVE",
"70 296 CURVE",
"20 296 LINE",
"20 95 LINE SMOOTH",
"20 40 OFFCURVE",
"42 0 OFFCURVE",
"118 0 CURVE SMOOTH"
);
}
);
width = 332;
}
);
leftKerningGroup = J;
rightKerningGroup = J;
unicode = 004A;
},
{
color = 4;
glyphname = K;
lastChange = "2020-09-01 16:41:12 +0000";
layers = (
{
anchors = (
{
name = bottom;
position = "{377, 0}";
},
{
name = top;
position = "{325, 700}";
}
);
background = {
paths = (
{
closed = 1;
nodes = (
"272 479 OFFCURVE",
"288 500 OFFCURVE",
"342 500 CURVE SMOOTH",
"377 500 LINE",
"377 700 LINE",
"322 700 LINE SMOOTH",
"250 700 OFFCURVE",
"222 672 OFFCURVE",
"222 600 CURVE SMOOTH",
"222 100 LINE SMOOTH",
"222 28 OFFCURVE",
"250 0 OFFCURVE",
"322 0 CURVE SMOOTH",
"377 0 LINE",
"377 205 LINE",
"342 205 LINE SMOOTH",
"288 205 OFFCURVE",
"272 226 OFFCURVE",
"272 295 CURVE SMOOTH",
"272 410 LINE SMOOTH"
);
},
{
closed = 1;
nodes = (
"567 221 OFFCURVE",
"551 200 OFFCURVE",
"520 200 CURVE SMOOTH",
"487 200 OFFCURVE",
"472 211 OFFCURVE",
"457 254 CURVE SMOOTH",
"424 352 LINE",
"375 352 LINE",
"449 98 LINE SMOOTH",
"471 21 OFFCURVE",
"494 0 OFFCURVE",
"541 0 CURVE SMOOTH",
"591 0 OFFCURVE",
"617 27 OFFCURVE",
"617 97 CURVE SMOOTH",
"617 276 LINE",
"567 276 LINE"
);
},
{
closed = 1;
nodes = (
"617 424 LINE",
"617 603 LINE SMOOTH",
"617 673 OFFCURVE",
"591 700 OFFCURVE",
"541 700 CURVE SMOOTH",
"494 700 OFFCURVE",
"471 679 OFFCURVE",
"449 602 CURVE SMOOTH",
"375 348 LINE",
"424 348 LINE",
"457 446 LINE SMOOTH",
"472 489 OFFCURVE",
"487 500 OFFCURVE",
"520 500 CURVE SMOOTH",
"551 500 OFFCURVE",
"567 479 OFFCURVE",
"567 424 CURVE"
);
},
{
closed = 1;
nodes = (
"258 335 LINE",
"420 335 LINE",
"420 385 LINE",
"258 385 LINE"
);
}
);
};
layerId = "97739396-C0BE-473D-A663-6DBDEFF9DADD";
paths = (
{
closed = 1;
nodes = (
"535 0 LINE SMOOTH",
"588 0 OFFCURVE",
"625 32 OFFCURVE",
"625 97 CURVE SMOOTH",
"625 276 LINE",
"575 276 LINE",
"575 217 OFFCURVE",
"548 200 OFFCURVE",
"514 200 CURVE SMOOTH",
"494 200 LINE SMOOTH",
"461 200 OFFCURVE",
"440 210 OFFCURVE",
"418 261 CURVE SMOOTH",
"370 375 LINE",
"370 348 LINE",
"414 447 LINE SMOOTH",
"433 491 OFFCURVE",
"451 500 OFFCURVE",
"482 500 CURVE SMOOTH",
"507 500 LINE SMOOTH",
"541 500 OFFCURVE",
"569 483 OFFCURVE",
"569 424 CURVE",
"619 424 LINE",
"619 603 LINE SMOOTH",
"619 664 OFFCURVE",
"582 700 OFFCURVE",
"531 700 CURVE SMOOTH",
"489 700 LINE SMOOTH",
"434 700 OFFCURVE",
"411 666 OFFCURVE",
"394 602 CURVE SMOOTH",
"332 372 LINE",
"333 345 LINE",
"409 98 LINE SMOOTH",
"428 35 OFFCURVE",
"458 0 OFFCURVE",
"512 0 CURVE SMOOTH"
);
},
{
closed = 1;
nodes = (
"49 0 LINE SMOOTH",
"120 0 OFFCURVE",
"152 42 OFFCURVE",
"152 138 CURVE SMOOTH",
"152 582 LINE SMOOTH",
"152 669 OFFCURVE",
"114 700 OFFCURVE",
"49 700 CURVE SMOOTH",
"40 700 LINE",
"40 500 LINE",
"51 500 LINE SMOOTH",
"92 500 OFFCURVE",
"102 483 OFFCURVE",
"102 415 CURVE SMOOTH",
"102 273 LINE SMOOTH",
"102 222 OFFCURVE",
"88 200 OFFCURVE",
"56 200 CURVE SMOOTH",
"40 200 LINE",
"40 0 LINE"
);
},
{
closed = 1;
nodes = (
"225 30 LINE",
"212 51 OFFCURVE",
"207 78 OFFCURVE",
"207 119 CURVE SMOOTH",
"207 581 LINE SMOOTH",
"207 622 OFFCURVE",
"212 649 OFFCURVE",
"225 670 CURVE",
"149 670 LINE",
"162 649 OFFCURVE",
"167 622 OFFCURVE",
"167 581 CURVE SMOOTH",
"167 119 LINE SMOOTH",
"167 78 OFFCURVE",
"162 51 OFFCURVE",
"149 30 CURVE"
);
},
{
closed = 1;
nodes = (
"334 0 LINE",
"334 200 LINE",
"318 200 LINE SMOOTH",
"286 200 OFFCURVE",
"272 222 OFFCURVE",
"272 273 CURVE SMOOTH",
"272 415 LINE SMOOTH",
"272 484 OFFCURVE",
"282 500 OFFCURVE",
"323 500 CURVE SMOOTH",
"329 500 LINE",
"329 700 LINE",
"325 700 LINE SMOOTH",
"259 700 OFFCURVE",
"222 669 OFFCURVE",
"222 582 CURVE SMOOTH",
"222 138 LINE SMOOTH",
"222 42 OFFCURVE",
"254 0 OFFCURVE",
"325 0 CURVE SMOOTH"
);
},
{
closed = 1;
nodes = (
"375 335 LINE",
"375 385 LINE",
"258 385 LINE",
"258 335 LINE"
);
}
);
width = 650;
},
{
anchors = (
{
name = bottom;
position = "{268, 0}";
},
{
name = top;
position = "{248, 700}";
}
);
layerId = "57E3185A-4375-48AC-BD50-0CEDF403F65C";
paths = (
{
closed = 1;
nodes = (
"242 0 LINE",
"196 200 LINE",
"175 200 LINE SMOOTH",
"121 200 OFFCURVE",
"105 221 OFFCURVE",
"105 290 CURVE SMOOTH",
"105 410 LINE SMOOTH",
"105 479 OFFCURVE",
"121 500 OFFCURVE",
"175 500 CURVE SMOOTH",
"196 500 LINE",
"242 700 LINE",
"155 700 LINE SMOOTH",
"83 700 OFFCURVE",
"55 672 OFFCURVE",
"55 600 CURVE SMOOTH",
"55 100 LINE SMOOTH",
"55 28 OFFCURVE",
"83 0 OFFCURVE",
"155 0 CURVE SMOOTH"
);
},
{
closed = 1;
nodes = (
"424 0 OFFCURVE",
"450 27 OFFCURVE",
"450 97 CURVE SMOOTH",
"450 276 LINE",
"400 276 LINE",
"400 221 OFFCURVE",
"384 200 OFFCURVE",
"353 200 CURVE SMOOTH",
"320 200 OFFCURVE",
"305 211 OFFCURVE",
"290 254 CURVE SMOOTH",
"257 352 LINE",
"208 352 LINE",
"282 98 LINE SMOOTH",
"304 21 OFFCURVE",
"327 0 OFFCURVE",
"374 0 CURVE SMOOTH"
);
},
{
closed = 1;
nodes = (
"253 335 LINE",
"253 385 LINE",
"91 385 LINE",
"91 335 LINE"
);
},
{
closed = 1;
nodes = (
"257 348 LINE",
"290 446 LINE SMOOTH",
"305 489 OFFCURVE",
"320 500 OFFCURVE",
"353 500 CURVE SMOOTH",
"384 500 OFFCURVE",
"400 479 OFFCURVE",
"400 424 CURVE",
"450 424 LINE",
"450 603 LINE SMOOTH",
"450 673 OFFCURVE",
"424 700 OFFCURVE",
"374 700 CURVE SMOOTH",
"327 700 OFFCURVE",
"304 679 OFFCURVE",
"282 602 CURVE SMOOTH",
"208 348 LINE"
);
}
);
width = 495;
},
{
anchors = (
{
name = bottom;
position = "{268, 0}";
},
{
name = top;
position = "{248, 700}";
}
);
associatedMasterId = "57E3185A-4375-48AC-BD50-0CEDF403F65C";
layerId = "4D24C262-1842-4D75-8599-E1CE9643272C";
name = "Aug 27 20, 15:45";
paths = (
{
closed = 1;
nodes = (
"105 479 OFFCURVE",
"121 500 OFFCURVE",
"175 500 CURVE SMOOTH",
"210 500 LINE",
"210 700 LINE",
"155 700 LINE SMOOTH",
"83 700 OFFCURVE",
"55 672 OFFCURVE",
"55 600 CURVE SMOOTH",
"55 100 LINE SMOOTH",
"55 28 OFFCURVE",
"83 0 OFFCURVE",
"155 0 CURVE SMOOTH",
"210 0 LINE",
"210 205 LINE",
"175 205 LINE SMOOTH",
"121 205 OFFCURVE",
"105 226 OFFCURVE",
"105 295 CURVE SMOOTH",
"105 410 LINE SMOOTH"
);
},
{
closed = 1;
nodes = (
"400 221 OFFCURVE",
"384 200 OFFCURVE",
"353 200 CURVE SMOOTH",
"320 200 OFFCURVE",
"305 211 OFFCURVE",
"290 254 CURVE SMOOTH",
"257 352 LINE",
"208 352 LINE",
"282 98 LINE SMOOTH",
"304 21 OFFCURVE",
"327 0 OFFCURVE",
"374 0 CURVE SMOOTH",
"424 0 OFFCURVE",
"450 27 OFFCURVE",
"450 97 CURVE SMOOTH",
"450 276 LINE",
"400 276 LINE"
);
},
{
closed = 1;
nodes = (
"450 424 LINE",
"450 603 LINE SMOOTH",
"450 673 OFFCURVE",
"424 700 OFFCURVE",
"374 700 CURVE SMOOTH",
"327 700 OFFCURVE",
"304 679 OFFCURVE",
"282 602 CURVE SMOOTH",
"208 348 LINE",
"257 348 LINE",
"290 446 LINE SMOOTH",
"305 489 OFFCURVE",
"320 500 OFFCURVE",
"353 500 CURVE SMOOTH",
"384 500 OFFCURVE",
"400 479 OFFCURVE",
"400 424 CURVE"
);
},
{
closed = 1;
nodes = (
"91 335 LINE",
"253 335 LINE",
"253 385 LINE",
"91 385 LINE"
);
}
);
width = 496;
}
);
leftKerningGroup = H;
leftMetricsKey = H;
rightKerningGroup = K;
unicode = 004B;
},
{
color = 4;
glyphname = L;
lastChange = "2020-09-01 16:41:12 +0000";
layers = (
{
anchors = (
{
name = bottom;
position = "{291, 0}";
},
{
name = center;
position = "{271, 350}";
},
{
name = top;
position = "{271, 700}";
},
{
name = topright;
position = "{522, 700}";
}
);
background = {
paths = (
{
closed = 1;
nodes = (
"431 0 LINE SMOOTH",
"506 0 OFFCURVE",
"549 48 OFFCURVE",
"549 116 CURVE SMOOTH",
"549 296 LINE",
"492 296 LINE",
"492 220 OFFCURVE",
"475 200 OFFCURVE",
"424 200 CURVE SMOOTH",
"342 200 LINE SMOOTH",
"303 200 OFFCURVE",
"282 224 OFFCURVE",
"282 275 CURVE SMOOTH",
"282 413 LINE SMOOTH",
"282 481 OFFCURVE",
"300 498 OFFCURVE",
"348 498 CURVE SMOOTH",
"359 498 LINE",
"359 700 LINE",
"330 700 LINE SMOOTH",
"274 700 OFFCURVE",
"232 669 OFFCURVE",
"232 582 CURVE SMOOTH",
"232 138 LINE SMOOTH",
"232 42 OFFCURVE",
"268 0 OFFCURVE",
"330 0 CURVE SMOOTH"
);
},
{
closed = 1;
nodes = (
"39 0 LINE SMOOTH",
"115 0 OFFCURVE",
"142 42 OFFCURVE",
"142 138 CURVE SMOOTH",
"142 582 LINE SMOOTH",
"142 669 OFFCURVE",
"109 700 OFFCURVE",
"39 700 CURVE SMOOTH",
"30 700 LINE",
"30 498 LINE",
"41 498 LINE SMOOTH",
"82 498 OFFCURVE",
"92 481 OFFCURVE",
"92 413 CURVE SMOOTH",
"92 275 LINE SMOOTH",
"92 224 OFFCURVE",
"78 202 OFFCURVE",
"46 202 CURVE SMOOTH",
"30 202 LINE",
"30 0 LINE"
);
},
{
closed = 1;
nodes = (
"220 30 LINE",
"207 51 OFFCURVE",
"202 78 OFFCURVE",
"202 119 CURVE SMOOTH",
"202 581 LINE SMOOTH",
"202 622 OFFCURVE",
"207 649 OFFCURVE",
"220 670 CURVE",
"154 670 LINE",
"167 649 OFFCURVE",
"172 622 OFFCURVE",
"172 581 CURVE SMOOTH",
"172 119 LINE SMOOTH",
"172 78 OFFCURVE",
"167 51 OFFCURVE",
"154 30 CURVE"
);
}
);
};
layerId = "97739396-C0BE-473D-A663-6DBDEFF9DADD";
paths = (
{
closed = 1;
nodes = (
"411 0 LINE SMOOTH",
"486 0 OFFCURVE",
"522 48 OFFCURVE",
"522 116 CURVE SMOOTH",
"522 296 LINE",
"472 296 LINE",
"472 220 OFFCURVE",
"455 200 OFFCURVE",
"404 200 CURVE SMOOTH",
"332 200 LINE SMOOTH",
"293 200 OFFCURVE",
"272 224 OFFCURVE",
"272 275 CURVE SMOOTH",
"272 415 LINE SMOOTH",
"272 483 OFFCURVE",
"283 500 OFFCURVE",
"341 500 CURVE SMOOTH",
"352 500 LINE",
"352 700 LINE",
"320 700 LINE SMOOTH",
"264 700 OFFCURVE",
"222 669 OFFCURVE",
"222 582 CURVE SMOOTH",
"222 138 LINE SMOOTH",
"222 42 OFFCURVE",
"258 0 OFFCURVE",
"320 0 CURVE SMOOTH"
);
},
{
closed = 1;
nodes = (
"49 0 LINE SMOOTH",
"125 0 OFFCURVE",
"152 42 OFFCURVE",
"152 138 CURVE SMOOTH",
"152 582 LINE SMOOTH",
"152 669 OFFCURVE",
"119 700 OFFCURVE",
"49 700 CURVE SMOOTH",
"40 700 LINE",
"40 500 LINE",
"51 500 LINE SMOOTH",
"92 500 OFFCURVE",
"102 483 OFFCURVE",
"102 415 CURVE SMOOTH",
"102 273 LINE SMOOTH",
"102 222 OFFCURVE",
"88 200 OFFCURVE",
"56 200 CURVE SMOOTH",
"40 200 LINE",
"40 0 LINE"
);
},
{
closed = 1;
nodes = (
"225 30 LINE",
"212 51 OFFCURVE",
"207 78 OFFCURVE",
"207 119 CURVE SMOOTH",
"207 581 LINE SMOOTH",
"207 622 OFFCURVE",
"212 649 OFFCURVE",
"225 670 CURVE",
"149 670 LINE",
"162 649 OFFCURVE",
"167 622 OFFCURVE",
"167 581 CURVE SMOOTH",
"167 119 LINE SMOOTH",
"167 78 OFFCURVE",
"162 51 OFFCURVE",
"149 30 CURVE"
);
}
);
width = 532;
},
{
associatedMasterId = "97739396-C0BE-473D-A663-6DBDEFF9DADD";
background = {
paths = (
{
closed = 1;
nodes = (
"431 0 LINE SMOOTH",
"506 0 OFFCURVE",
"549 48 OFFCURVE",
"549 116 CURVE SMOOTH",
"549 296 LINE",
"492 296 LINE",
"492 220 OFFCURVE",
"475 200 OFFCURVE",
"424 200 CURVE SMOOTH",
"342 200 LINE SMOOTH",
"303 200 OFFCURVE",
"282 224 OFFCURVE",
"282 275 CURVE SMOOTH",
"282 413 LINE SMOOTH",
"282 481 OFFCURVE",
"300 498 OFFCURVE",
"348 498 CURVE SMOOTH",
"359 498 LINE",
"359 700 LINE",
"330 700 LINE SMOOTH",
"274 700 OFFCURVE",
"232 669 OFFCURVE",
"232 582 CURVE SMOOTH",
"232 138 LINE SMOOTH",
"232 42 OFFCURVE",
"268 0 OFFCURVE",
"330 0 CURVE SMOOTH"
);
},
{
closed = 1;
nodes = (
"39 0 LINE SMOOTH",
"115 0 OFFCURVE",
"142 42 OFFCURVE",
"142 138 CURVE SMOOTH",
"142 582 LINE SMOOTH",
"142 669 OFFCURVE",
"109 700 OFFCURVE",
"39 700 CURVE SMOOTH",
"30 700 LINE",
"30 498 LINE",
"41 498 LINE SMOOTH",
"82 498 OFFCURVE",
"92 481 OFFCURVE",
"92 413 CURVE SMOOTH",
"92 275 LINE SMOOTH",
"92 224 OFFCURVE",
"78 202 OFFCURVE",
"46 202 CURVE SMOOTH",
"30 202 LINE",
"30 0 LINE"
);
},
{
closed = 1;
nodes = (
"220 30 LINE",
"207 51 OFFCURVE",
"202 78 OFFCURVE",
"202 119 CURVE SMOOTH",
"202 581 LINE SMOOTH",
"202 622 OFFCURVE",
"207 649 OFFCURVE",
"220 670 CURVE",
"154 670 LINE",
"167 649 OFFCURVE",
"172 622 OFFCURVE",
"172 581 CURVE SMOOTH",
"172 119 LINE SMOOTH",
"172 78 OFFCURVE",
"167 51 OFFCURVE",
"154 30 CURVE"
);
}
);
};
layerId = "DB8977A3-1B15-40D8-AF79-5777F58583F0";
name = "Jun 2 20, 10:21";
paths = (
{
closed = 1;
nodes = (
"421 100 LINE SMOOTH",
"496 100 OFFCURVE",
"539 148 OFFCURVE",
"539 216 CURVE SMOOTH",
"539 296 LINE",
"482 296 LINE",
"482 220 OFFCURVE",
"465 200 OFFCURVE",
"414 200 CURVE SMOOTH",
"332 200 LINE SMOOTH",
"293 200 OFFCURVE",
"272 224 OFFCURVE",
"272 275 CURVE SMOOTH",
"272 413 LINE SMOOTH",
"272 481 OFFCURVE",
"290 498 OFFCURVE",
"338 498 CURVE SMOOTH",
"349 498 LINE",
"349 700 LINE",
"320 700 LINE SMOOTH",
"264 700 OFFCURVE",
"222 669 OFFCURVE",
"222 582 CURVE SMOOTH",
"222 195 LINE SMOOTH",
"222 142 OFFCURVE",
"258 100 OFFCURVE",
"320 100 CURVE SMOOTH"
);
},
{
closed = 1;
nodes = (
"49 0 LINE SMOOTH",
"125 0 OFFCURVE",
"152 42 OFFCURVE",
"152 138 CURVE SMOOTH",
"152 582 LINE SMOOTH",
"152 669 OFFCURVE",
"119 700 OFFCURVE",
"49 700 CURVE SMOOTH",
"40 700 LINE",
"40 498 LINE",
"51 498 LINE SMOOTH",
"92 498 OFFCURVE",
"102 481 OFFCURVE",
"102 413 CURVE SMOOTH",
"102 275 LINE SMOOTH",
"102 224 OFFCURVE",
"88 202 OFFCURVE",
"56 202 CURVE SMOOTH",
"40 202 LINE",
"40 0 LINE"
);
},
{
closed = 1;
nodes = (
"220 30 LINE",
"207 51 OFFCURVE",
"202 78 OFFCURVE",
"202 119 CURVE SMOOTH",
"202 581 LINE SMOOTH",
"202 622 OFFCURVE",
"207 649 OFFCURVE",
"220 670 CURVE",
"154 670 LINE",
"167 649 OFFCURVE",
"172 622 OFFCURVE",
"172 581 CURVE SMOOTH",
"172 119 LINE SMOOTH",
"172 78 OFFCURVE",
"167 51 OFFCURVE",
"154 30 CURVE"
);
},
{
closed = 1;
nodes = (
"222 128 CURVE",
"223 47 OFFCURVE",
"255 0 OFFCURVE",
"320 0 CURVE SMOOTH",
"421 0 LINE SMOOTH",
"496 0 OFFCURVE",
"539 48 OFFCURVE",
"539 116 CURVE SMOOTH",
"539 161 LINE",
"539 119 OFFCURVE",
"496 80 OFFCURVE",
"421 80 CURVE SMOOTH",
"320 80 LINE SMOOTH",
"263 80 OFFCURVE",
"231 104 OFFCURVE"
);
}
);
width = 554;
},
{
anchors = (
{
name = bottom;
position = "{166, 0}";
},
{
name = center;
position = "{166, 350}";
},
{
name = top;
position = "{141, 700}";
},
{
name = topright;
position = "{312, 700}";
}
);
layerId = "57E3185A-4375-48AC-BD50-0CEDF403F65C";
paths = (
{
closed = 1;
nodes = (
"214 0 LINE SMOOTH",
"290 0 OFFCURVE",
"312 40 OFFCURVE",
"312 95 CURVE SMOOTH",
"312 296 LINE",
"262 296 LINE",
"262 220 OFFCURVE",
"246 200 OFFCURVE",
"192 200 CURVE SMOOTH",
"165 200 LINE SMOOTH",
"126 200 OFFCURVE",
"105 224 OFFCURVE",
"105 275 CURVE SMOOTH",
"105 413 LINE SMOOTH",
"105 481 OFFCURVE",
"123 500 OFFCURVE",
"171 500 CURVE SMOOTH",
"195 500 LINE",
"195 700 LINE",
"155 700 LINE SMOOTH",
"83 700 OFFCURVE",
"55 672 OFFCURVE",
"55 600 CURVE SMOOTH",
"55 100 LINE SMOOTH",
"55 28 OFFCURVE",
"83 0 OFFCURVE",
"155 0 CURVE SMOOTH"
);
}
);
width = 332;
},
{
associatedMasterId = "57E3185A-4375-48AC-BD50-0CEDF403F65C";
background = {
paths = (
{
closed = 1;
nodes = (
"431 0 LINE SMOOTH",
"506 0 OFFCURVE",
"549 48 OFFCURVE",
"549 116 CURVE SMOOTH",
"549 296 LINE",
"492 296 LINE",
"492 220 OFFCURVE",
"475 200 OFFCURVE",
"424 200 CURVE SMOOTH",
"342 200 LINE SMOOTH",
"303 200 OFFCURVE",
"282 224 OFFCURVE",
"282 275 CURVE SMOOTH",
"282 413 LINE SMOOTH",
"282 481 OFFCURVE",
"300 498 OFFCURVE",
"348 498 CURVE SMOOTH",
"359 498 LINE",
"359 700 LINE",
"330 700 LINE SMOOTH",
"274 700 OFFCURVE",
"232 669 OFFCURVE",
"232 582 CURVE SMOOTH",
"232 138 LINE SMOOTH",
"232 42 OFFCURVE",
"268 0 OFFCURVE",
"330 0 CURVE SMOOTH"
);
},
{
closed = 1;
nodes = (
"39 0 LINE SMOOTH",
"115 0 OFFCURVE",
"142 42 OFFCURVE",
"142 138 CURVE SMOOTH",
"142 582 LINE SMOOTH",
"142 669 OFFCURVE",
"109 700 OFFCURVE",
"39 700 CURVE SMOOTH",
"30 700 LINE",
"30 498 LINE",
"41 498 LINE SMOOTH",
"82 498 OFFCURVE",
"92 481 OFFCURVE",
"92 413 CURVE SMOOTH",
"92 275 LINE SMOOTH",
"92 224 OFFCURVE",
"78 202 OFFCURVE",
"46 202 CURVE SMOOTH",
"30 202 LINE",
"30 0 LINE"
);
},
{
closed = 1;
nodes = (
"220 30 LINE",
"207 51 OFFCURVE",
"202 78 OFFCURVE",
"202 119 CURVE SMOOTH",
"202 581 LINE SMOOTH",
"202 622 OFFCURVE",
"207 649 OFFCURVE",
"220 670 CURVE",
"154 670 LINE",
"167 649 OFFCURVE",
"172 622 OFFCURVE",
"172 581 CURVE SMOOTH",
"172 119 LINE SMOOTH",
"172 78 OFFCURVE",
"167 51 OFFCURVE",
"154 30 CURVE"
);
}
);
};
layerId = "98063936-9376-4115-9382-E8E5DB7BDF73";
name = "Jun 2 20, 10:21";
paths = (
{
closed = 1;
nodes = (
"421 100 LINE SMOOTH",
"496 100 OFFCURVE",
"539 148 OFFCURVE",
"539 216 CURVE SMOOTH",
"539 296 LINE",
"482 296 LINE",
"482 220 OFFCURVE",
"465 200 OFFCURVE",
"414 200 CURVE SMOOTH",
"332 200 LINE SMOOTH",
"293 200 OFFCURVE",
"272 224 OFFCURVE",
"272 275 CURVE SMOOTH",
"272 413 LINE SMOOTH",
"272 481 OFFCURVE",
"290 498 OFFCURVE",
"338 498 CURVE SMOOTH",
"349 498 LINE",
"349 700 LINE",
"320 700 LINE SMOOTH",
"264 700 OFFCURVE",
"222 669 OFFCURVE",
"222 582 CURVE SMOOTH",
"222 195 LINE SMOOTH",
"222 142 OFFCURVE",
"258 100 OFFCURVE",
"320 100 CURVE SMOOTH"
);
},
{
closed = 1;
nodes = (
"49 0 LINE SMOOTH",
"125 0 OFFCURVE",
"152 42 OFFCURVE",
"152 138 CURVE SMOOTH",
"152 582 LINE SMOOTH",
"152 669 OFFCURVE",
"119 700 OFFCURVE",
"49 700 CURVE SMOOTH",
"40 700 LINE",
"40 498 LINE",
"51 498 LINE SMOOTH",
"92 498 OFFCURVE",
"102 481 OFFCURVE",
"102 413 CURVE SMOOTH",
"102 275 LINE SMOOTH",
"102 224 OFFCURVE",
"88 202 OFFCURVE",
"56 202 CURVE SMOOTH",
"40 202 LINE",
"40 0 LINE"
);
},
{
closed = 1;
nodes = (
"220 30 LINE",
"207 51 OFFCURVE",
"202 78 OFFCURVE",
"202 119 CURVE SMOOTH",
"202 581 LINE SMOOTH",
"202 622 OFFCURVE",
"207 649 OFFCURVE",
"220 670 CURVE",
"154 670 LINE",
"167 649 OFFCURVE",
"172 622 OFFCURVE",
"172 581 CURVE SMOOTH",
"172 119 LINE SMOOTH",
"172 78 OFFCURVE",
"167 51 OFFCURVE",
"154 30 CURVE"
);
},
{
closed = 1;
nodes = (
"222 128 CURVE",
"223 47 OFFCURVE",
"255 0 OFFCURVE",
"320 0 CURVE SMOOTH",
"421 0 LINE SMOOTH",
"496 0 OFFCURVE",
"539 48 OFFCURVE",
"539 116 CURVE SMOOTH",
"539 161 LINE",
"539 119 OFFCURVE",
"496 80 OFFCURVE",
"421 80 CURVE SMOOTH",
"320 80 LINE SMOOTH",
"263 80 OFFCURVE",
"231 104 OFFCURVE"
);
}
);
width = 554;
}
);
leftKerningGroup = H;
leftMetricsKey = H;
rightKerningGroup = L;
unicode = 004C;
},
{
color = 4;
glyphname = Lcaron;
lastChange = "2020-09-01 16:41:12 +0000";
layers = (
{
components = (
{
name = L;
}
);
layerId = "97739396-C0BE-473D-A663-6DBDEFF9DADD";
paths = (
{
closed = 1;
nodes = (
"462 475 LINE",
"487 700 LINE",
"432 700 LINE",
"412 475 LINE"
);
}
);
width = 542;
},
{
components = (
{
name = L;
}
);
layerId = "57E3185A-4375-48AC-BD50-0CEDF403F65C";
paths = (
{
closed = 1;
nodes = (
"287 475 LINE",
"312 700 LINE",
"257 700 LINE",
"237 475 LINE"
);
}
);
width = 332;
}
);
leftKerningGroup = H;
rightKerningGroup = Lcaron;
unicode = 013D;
},
{
color = 4;
glyphname = Ldot;
lastChange = "2020-09-01 16:41:12 +0000";
layers = (
{
components = (
{
name = L;
}
);
layerId = "97739396-C0BE-473D-A663-6DBDEFF9DADD";
paths = (
{
closed = 1;
nodes = (
"490 377 LINE SMOOTH",
"527 377 OFFCURVE",
"542 393 OFFCURVE",
"542 429 CURVE SMOOTH",
"542 455 LINE SMOOTH",
"542 492 OFFCURVE",
"527 508 OFFCURVE",
"490 508 CURVE SMOOTH",
"464 508 LINE SMOOTH",
"427 508 OFFCURVE",
"412 492 OFFCURVE",
"412 455 CURVE SMOOTH",
"412 429 LINE SMOOTH",
"412 393 OFFCURVE",
"427 377 OFFCURVE",
"464 377 CURVE SMOOTH"
);
}
);
width = 542;
},
{
components = (
{
name = L;
}
);
layerId = "57E3185A-4375-48AC-BD50-0CEDF403F65C";
paths = (
{
closed = 1;
nodes = (
"280 344 LINE SMOOTH",
"317 344 OFFCURVE",
"332 360 OFFCURVE",
"332 396 CURVE SMOOTH",
"332 422 LINE SMOOTH",
"332 459 OFFCURVE",
"317 475 OFFCURVE",
"280 475 CURVE SMOOTH",
"254 475 LINE SMOOTH",
"217 475 OFFCURVE",
"202 459 OFFCURVE",
"202 422 CURVE SMOOTH",
"202 396 LINE SMOOTH",
"202 360 OFFCURVE",
"217 344 OFFCURVE",
"254 344 CURVE SMOOTH"
);
}
);
width = 332;
}
);
unicode = 013F;
},
{
color = 4;
glyphname = Lslash;
lastChange = "2020-09-01 16:41:12 +0000";
layers = (
{
components = (
{
name = L;
}
);
layerId = "97739396-C0BE-473D-A663-6DBDEFF9DADD";
paths = (
{
closed = 1;
nodes = (
"392 382 LINE",
"392 433 LINE",
"242 379 LINE",
"242 328 LINE"
);
},
{
closed = 1;
nodes = (
"118 284 LINE",
"118 335 LINE",
"40 307 LINE",
"40 256 LINE"
);
}
);
width = 542;
},
{
components = (
{
name = L;
}
);
layerId = "57E3185A-4375-48AC-BD50-0CEDF403F65C";
paths = (
{
closed = 1;
nodes = (
"211 356 LINE",
"211 407 LINE",
"0 337 LINE",
"0 286 LINE"
);
}
);
width = 332;
}
);
leftKerningGroup = H;
rightKerningGroup = L;
unicode = 0141;
},
{
color = 4;
glyphname = M;
lastChange = "2020-09-01 14:56:04 +0000";
layers = (
{
layerId = "97739396-C0BE-473D-A663-6DBDEFF9DADD";
paths = (
{
closed = 1;
nodes = (
"346 0 LINE",
"323 200 LINE",
"296 200 LINE SMOOTH",
"273 200 OFFCURVE",
"261 213 OFFCURVE",
"261 242 CURVE SMOOTH",
"261 248 OFFCURVE",
"262 256 OFFCURVE",
"265 275 CURVE SMOOTH",
"286 412 LINE SMOOTH",
"293 455 OFFCURVE",
"302 470 OFFCURVE",
"319 470 CURVE SMOOTH",
"338 470 OFFCURVE",
"345 455 OFFCURVE",
"350 412 CURVE SMOOTH",
"386 84 LINE SMOOTH",
"393 18 OFFCURVE",
"415 0 OFFCURVE",
"442 0 CURVE SMOOTH",
"469 0 OFFCURVE",
"491 18 OFFCURVE",
"498 84 CURVE SMOOTH",
"534 412 LINE SMOOTH",
"539 455 OFFCURVE",
"546 470 OFFCURVE",
"565 470 CURVE SMOOTH",
"582 470 OFFCURVE",
"591 455 OFFCURVE",
"598 412 CURVE SMOOTH",
"619 275 LINE SMOOTH",
"622 256 OFFCURVE",
"623 248 OFFCURVE",
"623 242 CURVE SMOOTH",
"623 213 OFFCURVE",
"611 200 OFFCURVE",
"588 200 CURVE SMOOTH",
"561 200 LINE",
"538 0 LINE",
"607 0 LINE SMOOTH",
"664 0 OFFCURVE",
"692 25 OFFCURVE",
"692 87 CURVE SMOOTH",
"692 101 OFFCURVE",
"690 121 OFFCURVE",
"686 147 CURVE SMOOTH",
"609 654 LINE SMOOTH",
"605 680 OFFCURVE",
"593 700 OFFCURVE",
"559 700 CURVE SMOOTH",
"528 700 OFFCURVE",
"517 684 OFFCURVE",
"514 654 CURVE SMOOTH",
"472 285 LINE SMOOTH",
"468 251 OFFCURVE",
"456 237 OFFCURVE",
"442 237 CURVE SMOOTH",
"428 237 OFFCURVE",
"416 251 OFFCURVE",
"412 285 CURVE SMOOTH",
"370 654 LINE SMOOTH",
"367 684 OFFCURVE",
"356 700 OFFCURVE",
"325 700 CURVE SMOOTH",
"291 700 OFFCURVE",
"279 680 OFFCURVE",
"275 654 CURVE SMOOTH",
"198 147 LINE SMOOTH",
"194 121 OFFCURVE",
"192 101 OFFCURVE",
"192 87 CURVE SMOOTH",
"192 25 OFFCURVE",
"220 0 OFFCURVE",
"277 0 CURVE SMOOTH"
);
},
{
closed = 1;
nodes = (
"60 0 OFFCURVE",
"110 51 OFFCURVE",
"123 138 CURVE SMOOTH",
"179 515 LINE SMOOTH",
"186 563 OFFCURVE",
"192 605 OFFCURVE",
"192 621 CURVE SMOOTH",
"192 663 OFFCURVE",
"170 700 OFFCURVE",
"118 700 CURVE SMOOTH",
"90 700 LINE",
"40 500 LINE",
"68 500 LINE SMOOTH",
"96 500 OFFCURVE",
"118 488 OFFCURVE",
"118 443 CURVE SMOOTH",
"118 436 OFFCURVE",
"117 427 OFFCURVE",
"116 418 CURVE SMOOTH",
"96 275 LINE SMOOTH",
"89 223 OFFCURVE",
"70 200 OFFCURVE",
"31 200 CURVE SMOOTH",
"15 200 LINE",
"15 0 LINE"
);
},
{
closed = 1;
nodes = (
"184 30 LINE",
"179 40 OFFCURVE",
"174 52 OFFCURVE",
"174 74 CURVE SMOOTH",
"174 91 OFFCURVE",
"177 121 OFFCURVE",
"181 146 CURVE SMOOTH",
"261 670 LINE",
"201 670 LINE",
"207 657 OFFCURVE",
"209 647 OFFCURVE",
"209 631 CURVE SMOOTH",
"209 604 OFFCURVE",
"203 563 OFFCURVE",
"196 515 CURVE SMOOTH",
"139 137 LINE SMOOTH",
"130 79 OFFCURVE",
"113 50 OFFCURVE",
"101 30 CURVE"
);
},
{
closed = 1;
nodes = (
"783 30 LINE",
"767 51 OFFCURVE",
"754 75 OFFCURVE",
"745 137 CURVE SMOOTH",
"688 515 LINE SMOOTH",
"681 562 OFFCURVE",
"675 604 OFFCURVE",
"675 631 CURVE SMOOTH",
"675 647 OFFCURVE",
"677 657 OFFCURVE",
"683 670 CURVE",
"623 670 LINE",
"703 146 LINE SMOOTH",
"707 121 OFFCURVE",
"710 100 OFFCURVE",
"710 79 CURVE SMOOTH",
"710 58 OFFCURVE",
"706 45 OFFCURVE",
"699 30 CURVE"
);
},
{
closed = 1;
nodes = (
"869 200 LINE",
"853 200 LINE SMOOTH",
"814 200 OFFCURVE",
"795 223 OFFCURVE",
"788 275 CURVE SMOOTH",
"768 418 LINE SMOOTH",
"767 427 OFFCURVE",
"766 436 OFFCURVE",
"766 443 CURVE SMOOTH",
"766 488 OFFCURVE",
"788 500 OFFCURVE",
"816 500 CURVE SMOOTH",
"844 500 LINE",
"794 700 LINE",
"766 700 LINE SMOOTH",
"714 700 OFFCURVE",
"692 663 OFFCURVE",
"692 621 CURVE SMOOTH",
"692 604 OFFCURVE",
"698 563 OFFCURVE",
"705 515 CURVE SMOOTH",
"761 138 LINE SMOOTH",
"774 51 OFFCURVE",
"824 0 OFFCURVE",
"869 0 CURVE"
);
}
);
width = 884;
},
{
annotations = (
{
position = "{749, 243}";
type = Text;
}
);
associatedMasterId = "97739396-C0BE-473D-A663-6DBDEFF9DADD";
layerId = "72479DFE-9846-46F8-9023-EE5F41EB0308";
name = "Jun 1 20, 12:36";
paths = (
{
closed = 1;
nodes = (
"60 0 OFFCURVE",
"110 51 OFFCURVE",
"123 138 CURVE SMOOTH",
"180 525 LINE SMOOTH",
"186 563 OFFCURVE",
"192 594 OFFCURVE",
"192 631 CURVE SMOOTH",
"192 663 OFFCURVE",
"165 700 OFFCURVE",
"118 700 CURVE SMOOTH",
"90 700 LINE",
"40 500 LINE",
"68 500 LINE SMOOTH",
"101 500 OFFCURVE",
"125 484 OFFCURVE",
"116 418 CURVE SMOOTH",
"96 275 LINE SMOOTH",
"89 225 OFFCURVE",
"70 202 OFFCURVE",
"31 202 CURVE SMOOTH",
"15 202 LINE",
"15 0 LINE"
);
},
{
closed = 1;
nodes = (
"183 30 LINE",
"174 45 OFFCURVE",
"168 58 OFFCURVE",
"166 84 CURVE SMOOTH",
"165 100 OFFCURVE",
"172 121 OFFCURVE",
"176 146 CURVE SMOOTH",
"256 670 LINE",
"206 670 LINE",
"212 657 OFFCURVE",
"214 647 OFFCURVE",
"214 631 CURVE SMOOTH",
"214 604 OFFCURVE",
"208 564 OFFCURVE",
"201 515 CURVE SMOOTH",
"144 137 LINE SMOOTH",
"135 79 OFFCURVE",
"117 50 OFFCURVE",
"106 30 CURVE"
);
},
{
closed = 1;
nodes = (
"415 0 OFFCURVE",
"393 18 OFFCURVE",
"386 84 CURVE SMOOTH",
"350 412 LINE SMOOTH",
"345 455 OFFCURVE",
"338 470 OFFCURVE",
"319 470 CURVE SMOOTH",
"302 470 OFFCURVE",
"293 455 OFFCURVE",
"286 412 CURVE SMOOTH",
"263 265 LINE SMOOTH",
"257 222 OFFCURVE",
"267 202 OFFCURVE",
"296 202 CURVE SMOOTH",
"321 202 LINE",
"346 0 LINE",
"277 0 LINE SMOOTH",
"220 0 OFFCURVE",
"192 25 OFFCURVE",
"192 87 CURVE SMOOTH",
"192 101 OFFCURVE",
"194 121 OFFCURVE",
"198 147 CURVE SMOOTH",
"275 654 LINE SMOOTH",
"279 680 OFFCURVE",
"291 700 OFFCURVE",
"325 700 CURVE SMOOTH",
"356 700 OFFCURVE",
"367 684 OFFCURVE",
"370 654 CURVE SMOOTH",
"412 285 LINE SMOOTH",
"416 251 OFFCURVE",
"428 237 OFFCURVE",
"442 237 CURVE SMOOTH",
"456 237 OFFCURVE",
"468 251 OFFCURVE",
"472 285 CURVE SMOOTH",
"514 654 LINE SMOOTH",
"517 684 OFFCURVE",
"528 700 OFFCURVE",
"559 700 CURVE SMOOTH",
"593 700 OFFCURVE",
"605 680 OFFCURVE",
"609 654 CURVE SMOOTH",
"686 147 LINE SMOOTH",
"690 121 OFFCURVE",
"692 101 OFFCURVE",
"692 87 CURVE SMOOTH",
"692 25 OFFCURVE",
"664 0 OFFCURVE",
"607 0 CURVE SMOOTH",
"538 0 LINE",
"563 202 LINE",
"588 202 LINE SMOOTH",
"617 202 OFFCURVE",
"628 222 OFFCURVE",
"621 265 CURVE SMOOTH",
"598 412 LINE SMOOTH",
"591 455 OFFCURVE",
"582 470 OFFCURVE",
"565 470 CURVE SMOOTH",
"546 470 OFFCURVE",
"539 455 OFFCURVE",
"534 412 CURVE SMOOTH",
"498 84 LINE SMOOTH",
"491 18 OFFCURVE",
"469 0 OFFCURVE",
"442 0 CURVE SMOOTH"
);
},
{
closed = 1;
nodes = (
"869 202 LINE",
"853 202 LINE SMOOTH",
"814 202 OFFCURVE",
"795 225 OFFCURVE",
"788 275 CURVE SMOOTH",
"768 418 LINE SMOOTH",
"759 484 OFFCURVE",
"783 500 OFFCURVE",
"816 500 CURVE SMOOTH",
"844 500 LINE",
"794 700 LINE",
"766 700 LINE SMOOTH",
"719 700 OFFCURVE",
"692 663 OFFCURVE",
"692 631 CURVE SMOOTH",
"692 594 OFFCURVE",
"698 563 OFFCURVE",
"704 525 CURVE SMOOTH",
"761 138 LINE SMOOTH",
"774 51 OFFCURVE",
"824 0 OFFCURVE",
"869 0 CURVE"
);
},
{
closed = 1;
nodes = (
"767 50 OFFCURVE",
"749 79 OFFCURVE",
"740 137 CURVE SMOOTH",
"683 515 LINE SMOOTH",
"676 564 OFFCURVE",
"670 604 OFFCURVE",
"670 631 CURVE SMOOTH",
"670 647 OFFCURVE",
"672 657 OFFCURVE",
"678 670 CURVE",
"628 670 LINE",
"708 146 LINE SMOOTH",
"712 121 OFFCURVE",
"719 100 OFFCURVE",
"718 84 CURVE SMOOTH",
"716 58 OFFCURVE",
"710 45 OFFCURVE",
"701 30 CURVE",
"778 30 LINE"
);
}
);
width = 884;
},
{
layerId = "57E3185A-4375-48AC-BD50-0CEDF403F65C";
paths = (
{
closed = 1;
nodes = (
"339 -10 OFFCURVE",
"351 12 OFFCURVE",
"360 95 CURVE SMOOTH",
"393 412 LINE SMOOTH",
"398 462 OFFCURVE",
"410 480 OFFCURVE",
"436 480 CURVE SMOOTH",
"467 480 OFFCURVE",
"477 466 OFFCURVE",
"485 412 CURVE SMOOTH",
"507 270 LINE SMOOTH",
"509 258 OFFCURVE",
"510 248 OFFCURVE",
"510 239 CURVE SMOOTH",
"510 212 OFFCURVE",
"500 200 OFFCURVE",
"478 200 CURVE SMOOTH",
"429 200 LINE",
"406 0 LINE",
"476 0 LINE SMOOTH",
"533 0 OFFCURVE",
"575 25 OFFCURVE",
"575 95 CURVE SMOOTH",
"575 136 OFFCURVE",
"569 187 OFFCURVE",
"556 277 CURVE SMOOTH",
"509 593 LINE SMOOTH",
"495 685 OFFCURVE",
"474 708 OFFCURVE",
"430 708 CURVE SMOOTH",
"389 708 OFFCURVE",
"371 685 OFFCURVE",
"362 601 CURVE SMOOTH",
"330 285 LINE SMOOTH",
"326 248 OFFCURVE",
"316 237 OFFCURVE",
"300 237 CURVE SMOOTH",
"284 237 OFFCURVE",
"274 248 OFFCURVE",
"270 285 CURVE SMOOTH",
"238 601 LINE SMOOTH",
"229 685 OFFCURVE",
"211 708 OFFCURVE",
"170 708 CURVE SMOOTH",
"126 708 OFFCURVE",
"105 685 OFFCURVE",
"91 593 CURVE SMOOTH",
"44 277 LINE SMOOTH",
"31 187 OFFCURVE",
"25 136 OFFCURVE",
"25 95 CURVE SMOOTH",
"25 25 OFFCURVE",
"67 0 OFFCURVE",
"124 0 CURVE SMOOTH",
"194 0 LINE",
"171 200 LINE",
"122 200 LINE SMOOTH",
"100 200 OFFCURVE",
"90 212 OFFCURVE",
"90 239 CURVE SMOOTH",
"90 248 OFFCURVE",
"91 258 OFFCURVE",
"93 270 CURVE SMOOTH",
"115 412 LINE SMOOTH",
"123 466 OFFCURVE",
"133 480 OFFCURVE",
"164 480 CURVE SMOOTH",
"190 480 OFFCURVE",
"202 462 OFFCURVE",
"207 412 CURVE SMOOTH",
"240 95 LINE SMOOTH",
"249 12 OFFCURVE",
"261 -10 OFFCURVE",
"300 -10 CURVE SMOOTH"
);
}
);
width = 600;
},
{
annotations = (
{
position = "{749, 243}";
type = Text;
}
);
associatedMasterId = "57E3185A-4375-48AC-BD50-0CEDF403F65C";
layerId = "2B2F47AD-5F3C-4004-9435-8ABAECF2B902";
name = "Jun 1 20, 12:36";
paths = (
{
closed = 1;
nodes = (
"60 0 OFFCURVE",
"110 51 OFFCURVE",
"123 138 CURVE SMOOTH",
"180 525 LINE SMOOTH",
"186 563 OFFCURVE",
"192 594 OFFCURVE",
"192 631 CURVE SMOOTH",
"192 663 OFFCURVE",
"165 700 OFFCURVE",
"118 700 CURVE SMOOTH",
"90 700 LINE",
"40 500 LINE",
"68 500 LINE SMOOTH",
"101 500 OFFCURVE",
"125 484 OFFCURVE",
"116 418 CURVE SMOOTH",
"96 275 LINE SMOOTH",
"89 225 OFFCURVE",
"70 202 OFFCURVE",
"31 202 CURVE SMOOTH",
"15 202 LINE",
"15 0 LINE"
);
},
{
closed = 1;
nodes = (
"183 30 LINE",
"174 45 OFFCURVE",
"168 58 OFFCURVE",
"166 84 CURVE SMOOTH",
"165 100 OFFCURVE",
"172 121 OFFCURVE",
"176 146 CURVE SMOOTH",
"256 670 LINE",
"206 670 LINE",
"212 657 OFFCURVE",
"214 647 OFFCURVE",
"214 631 CURVE SMOOTH",
"214 604 OFFCURVE",
"208 564 OFFCURVE",
"201 515 CURVE SMOOTH",
"144 137 LINE SMOOTH",
"135 79 OFFCURVE",
"117 50 OFFCURVE",
"106 30 CURVE"
);
},
{
closed = 1;
nodes = (
"415 0 OFFCURVE",
"393 18 OFFCURVE",
"386 84 CURVE SMOOTH",
"350 412 LINE SMOOTH",
"345 455 OFFCURVE",
"338 470 OFFCURVE",
"319 470 CURVE SMOOTH",
"302 470 OFFCURVE",
"293 455 OFFCURVE",
"286 412 CURVE SMOOTH",
"263 265 LINE SMOOTH",
"257 222 OFFCURVE",
"267 202 OFFCURVE",
"296 202 CURVE SMOOTH",
"321 202 LINE",
"346 0 LINE",
"277 0 LINE SMOOTH",
"220 0 OFFCURVE",
"192 25 OFFCURVE",
"192 87 CURVE SMOOTH",
"192 101 OFFCURVE",
"194 121 OFFCURVE",
"198 147 CURVE SMOOTH",
"275 654 LINE SMOOTH",
"279 680 OFFCURVE",
"291 700 OFFCURVE",
"325 700 CURVE SMOOTH",
"356 700 OFFCURVE",
"367 684 OFFCURVE",
"370 654 CURVE SMOOTH",
"412 285 LINE SMOOTH",
"416 251 OFFCURVE",
"428 237 OFFCURVE",
"442 237 CURVE SMOOTH",
"456 237 OFFCURVE",
"468 251 OFFCURVE",
"472 285 CURVE SMOOTH",
"514 654 LINE SMOOTH",
"517 684 OFFCURVE",
"528 700 OFFCURVE",
"559 700 CURVE SMOOTH",
"593 700 OFFCURVE",
"605 680 OFFCURVE",
"609 654 CURVE SMOOTH",
"686 147 LINE SMOOTH",
"690 121 OFFCURVE",
"692 101 OFFCURVE",
"692 87 CURVE SMOOTH",
"692 25 OFFCURVE",
"664 0 OFFCURVE",
"607 0 CURVE SMOOTH",
"538 0 LINE",
"563 202 LINE",
"588 202 LINE SMOOTH",
"617 202 OFFCURVE",
"628 222 OFFCURVE",
"621 265 CURVE SMOOTH",
"598 412 LINE SMOOTH",
"591 455 OFFCURVE",
"582 470 OFFCURVE",
"565 470 CURVE SMOOTH",
"546 470 OFFCURVE",
"539 455 OFFCURVE",
"534 412 CURVE SMOOTH",
"498 84 LINE SMOOTH",
"491 18 OFFCURVE",
"469 0 OFFCURVE",
"442 0 CURVE SMOOTH"
);
},
{
closed = 1;
nodes = (
"869 202 LINE",
"853 202 LINE SMOOTH",
"814 202 OFFCURVE",
"795 225 OFFCURVE",
"788 275 CURVE SMOOTH",
"768 418 LINE SMOOTH",
"759 484 OFFCURVE",
"783 500 OFFCURVE",
"816 500 CURVE SMOOTH",
"844 500 LINE",
"794 700 LINE",
"766 700 LINE SMOOTH",
"719 700 OFFCURVE",
"692 663 OFFCURVE",
"692 631 CURVE SMOOTH",
"692 594 OFFCURVE",
"698 563 OFFCURVE",
"704 525 CURVE SMOOTH",
"761 138 LINE SMOOTH",
"774 51 OFFCURVE",
"824 0 OFFCURVE",
"869 0 CURVE"
);
},
{
closed = 1;
nodes = (
"767 50 OFFCURVE",
"749 79 OFFCURVE",
"740 137 CURVE SMOOTH",
"683 515 LINE SMOOTH",
"676 564 OFFCURVE",
"670 604 OFFCURVE",
"670 631 CURVE SMOOTH",
"670 647 OFFCURVE",
"672 657 OFFCURVE",
"678 670 CURVE",
"628 670 LINE",
"708 146 LINE SMOOTH",
"712 121 OFFCURVE",
"719 100 OFFCURVE",
"718 84 CURVE SMOOTH",
"716 58 OFFCURVE",
"710 45 OFFCURVE",
"701 30 CURVE",
"778 30 LINE"
);
}
);
width = 884;
},
{
associatedMasterId = "57E3185A-4375-48AC-BD50-0CEDF403F65C";
layerId = "16B008D8-55E5-4BEB-9DE1-A0ED0D356C81";
name = "Aug 25 20, 17:41";
paths = (
{
closed = 1;
nodes = (
"340 -10 OFFCURVE",
"352 27 OFFCURVE",
"360 95 CURVE SMOOTH",
"374 214 OFFCURVE",
"380 313 OFFCURVE",
"392 412 CURVE SMOOTH",
"397 455 OFFCURVE",
"404 480 OFFCURVE",
"437 480 CURVE SMOOTH",
"470 480 OFFCURVE",
"479 466 OFFCURVE",
"486 412 CURVE SMOOTH",
"505 270 LINE SMOOTH",
"512 220 OFFCURVE",
"505 200 OFFCURVE",
"476 200 CURVE SMOOTH",
"430 200 LINE",
"406 0 LINE",
"476 0 LINE SMOOTH",
"533 0 OFFCURVE",
"575 25 OFFCURVE",
"575 95 CURVE SMOOTH",
"575 158 OFFCURVE",
"562 218 OFFCURVE",
"541 361 CURVE SMOOTH",
"527 455 OFFCURVE",
"515 547 OFFCURVE",
"506 613 CURVE SMOOTH",
"497 679 OFFCURVE",
"474 708 OFFCURVE",
"434 708 CURVE SMOOTH",
"387 708 OFFCURVE",
"370 674 OFFCURVE",
"363 612 CURVE SMOOTH",
"351 503 OFFCURVE",
"346 420 OFFCURVE",
"330 285 CURVE SMOOTH",
"326 251 OFFCURVE",
"314 237 OFFCURVE",
"300 237 CURVE SMOOTH",
"286 237 OFFCURVE",
"274 251 OFFCURVE",
"270 285 CURVE SMOOTH",
"254 420 OFFCURVE",
"249 503 OFFCURVE",
"237 612 CURVE SMOOTH",
"230 674 OFFCURVE",
"213 708 OFFCURVE",
"166 708 CURVE SMOOTH",
"126 708 OFFCURVE",
"103 679 OFFCURVE",
"94 613 CURVE SMOOTH",
"85 547 OFFCURVE",
"73 455 OFFCURVE",
"59 361 CURVE SMOOTH",
"38 218 OFFCURVE",
"25 158 OFFCURVE",
"25 95 CURVE SMOOTH",
"25 25 OFFCURVE",
"67 0 OFFCURVE",
"124 0 CURVE SMOOTH",
"194 0 LINE",
"171 200 LINE",
"124 200 LINE SMOOTH",
"95 200 OFFCURVE",
"88 220 OFFCURVE",
"95 270 CURVE SMOOTH",
"114 412 LINE SMOOTH",
"121 466 OFFCURVE",
"130 480 OFFCURVE",
"163 480 CURVE SMOOTH",
"196 480 OFFCURVE",
"203 455 OFFCURVE",
"208 412 CURVE SMOOTH",
"219 313 OFFCURVE",
"226 214 OFFCURVE",
"240 95 CURVE SMOOTH",
"248 27 OFFCURVE",
"260 -10 OFFCURVE",
"300 -10 CURVE SMOOTH"
);
}
);
width = 600;
}
);
leftKerningGroup = M;
rightKerningGroup = M;
unicode = 004D;
},
{
color = 4;
glyphname = N;
lastChange = "2020-09-01 16:41:16 +0000";
layers = (
{
anchors = (
{
name = bottom;
position = "{376, 0}";
},
{
name = top;
position = "{376, 700}";
}
);
background = {
paths = (
{
closed = 1;
nodes = (
"167 582 LINE SMOOTH",
"167 669 OFFCURVE",
"124 700 OFFCURVE",
"69 700 CURVE SMOOTH",
"40 700 LINE",
"40 498 LINE",
"51 498 LINE SMOOTH",
"99 498 OFFCURVE",
"117 481 OFFCURVE",
"117 413 CURVE SMOOTH",
"117 275 LINE SMOOTH",
"117 224 OFFCURVE",
"95 202 OFFCURVE",
"56 202 CURVE SMOOTH",
"40 202 LINE",
"40 0 LINE",
"69 0 LINE SMOOTH",
"131 0 OFFCURVE",
"167 42 OFFCURVE",
"167 138 CURVE SMOOTH"
);
},
{
closed = 0;
nodes = (
"480 0 LINE",
"447 0 OFFCURVE",
"420 29 OFFCURVE",
"406 98 CURVE SMOOTH",
"343 417 LINE SMOOTH",
"336 455 OFFCURVE",
"322 468 OFFCURVE",
"311 468 CURVE SMOOTH",
"297 468 OFFCURVE",
"287 455 OFFCURVE",
"287 413 CURVE SMOOTH",
"287 275 LINE SMOOTH",
"287 224 OFFCURVE",
"301 202 OFFCURVE",
"323 202 CURVE SMOOTH",
"335 202 LINE",
"335 0 LINE",
"330 0 LINE SMOOTH",
"264 0 OFFCURVE",
"237 42 OFFCURVE",
"237 138 CURVE SMOOTH",
"237 582 LINE SMOOTH",
"237 669 OFFCURVE",
"261 700 OFFCURVE",
"296 700 CURVE SMOOTH",
"331 700 OFFCURVE",
"348 662 OFFCURVE",
"361 592 CURVE SMOOTH",
"420 283 LINE SMOOTH",
"426 249 OFFCURVE",
"445 232 OFFCURVE",
"461 232 CURVE"
);
},
{
closed = 1;
nodes = (
"182 78 OFFCURVE",
"177 51 OFFCURVE",
"164 30 CURVE",
"240 30 LINE",
"227 51 OFFCURVE",
"222 78 OFFCURVE",
"222 119 CURVE SMOOTH",
"222 581 LINE SMOOTH",
"222 622 OFFCURVE",
"225 649 OFFCURVE",
"234 670 CURVE",
"207 670 LINE",
"164 670 LINE",
"177 649 OFFCURVE",
"182 622 OFFCURVE",
"182 581 CURVE SMOOTH",
"182 119 LINE SMOOTH"
);
},
{
closed = 1;
nodes = (
"646 110 OFFCURVE",
"662 136 OFFCURVE",
"662 224 CURVE SMOOTH",
"662 413 LINE SMOOTH",
"662 481 OFFCURVE",
"677 498 OFFCURVE",
"718 498 CURVE SMOOTH",
"729 498 LINE",
"729 700 LINE",
"710 700 LINE SMOOTH",
"654 700 OFFCURVE",
"612 669 OFFCURVE",
"612 582 CURVE SMOOTH",
"612 97 LINE"
);
},
{
closed = 1;
nodes = (
"557 87 OFFCURVE",
"552 60 OFFCURVE",
"539 39 CURVE",
"570 39 OFFCURVE",
"597 59 OFFCURVE",
"597 128 CURVE SMOOTH",
"597 581 LINE SMOOTH",
"597 622 OFFCURVE",
"602 649 OFFCURVE",
"615 670 CURVE",
"539 670 LINE",
"552 649 OFFCURVE",
"557 622 OFFCURVE",
"557 581 CURVE SMOOTH",
"557 128 LINE SMOOTH"
);
},
{
closed = 0;
nodes = (
"423 0 LINE",
"519 5 OFFCURVE",
"542 48 OFFCURVE",
"542 137 CURVE SMOOTH",
"542 582 LINE SMOOTH",
"542 669 OFFCURVE",
"509 700 OFFCURVE",
"439 700 CURVE SMOOTH",
"430 700 LINE",
"430 498 LINE",
"441 498 LINE SMOOTH",
"482 498 OFFCURVE",
"492 481 OFFCURVE",
"492 413 CURVE SMOOTH",
"492 294 LINE SMOOTH",
"492 236 OFFCURVE",
"470 204 OFFCURVE",
"423 201 CURVE"
);
}
);
};
layerId = "97739396-C0BE-473D-A663-6DBDEFF9DADD";
paths = (
{
closed = 1;
nodes = (
"335 0 LINE",
"335 200 LINE",
"323 200 LINE SMOOTH",
"301 200 OFFCURVE",
"287 222 OFFCURVE",
"287 273 CURVE SMOOTH",
"287 413 LINE SMOOTH",
"287 455 OFFCURVE",
"297 468 OFFCURVE",
"311 468 CURVE SMOOTH",
"322 468 OFFCURVE",
"336 455 OFFCURVE",
"343 417 CURVE SMOOTH",
"406 98 LINE SMOOTH",
"420 29 OFFCURVE",
"447 0 OFFCURVE",
"480 0 CURVE SMOOTH",
"510 0 OFFCURVE",
"540 15 OFFCURVE",
"540 118 CURVE SMOOTH",
"540 582 LINE SMOOTH",
"540 669 OFFCURVE",
"507 700 OFFCURVE",
"437 700 CURVE SMOOTH",
"428 700 LINE",
"428 500 LINE",
"439 500 LINE SMOOTH",
"480 500 OFFCURVE",
"490 483 OFFCURVE",
"490 415 CURVE SMOOTH",
"490 281 LINE SMOOTH",
"490 243 OFFCURVE",
"478 232 OFFCURVE",
"461 232 CURVE SMOOTH",
"445 232 OFFCURVE",
"426 249 OFFCURVE",
"420 283 CURVE SMOOTH",
"361 592 LINE SMOOTH",
"348 662 OFFCURVE",
"331 700 OFFCURVE",
"296 700 CURVE SMOOTH",
"261 700 OFFCURVE",
"237 669 OFFCURVE",
"237 582 CURVE SMOOTH",
"237 138 LINE SMOOTH",
"237 42 OFFCURVE",
"264 0 OFFCURVE",
"330 0 CURVE SMOOTH"
);
},
{
closed = 1;
nodes = (
"69 0 LINE SMOOTH",
"131 0 OFFCURVE",
"167 42 OFFCURVE",
"167 138 CURVE SMOOTH",
"167 582 LINE SMOOTH",
"167 669 OFFCURVE",
"124 700 OFFCURVE",
"69 700 CURVE SMOOTH",
"40 700 LINE",
"40 500 LINE",
"51 500 LINE SMOOTH",
"99 500 OFFCURVE",
"117 483 OFFCURVE",
"117 415 CURVE SMOOTH",
"117 273 LINE SMOOTH",
"117 222 OFFCURVE",
"95 200 OFFCURVE",
"56 200 CURVE SMOOTH",
"40 200 LINE",
"40 0 LINE"
);
},
{
closed = 1;
nodes = (
"240 30 LINE",
"227 51 OFFCURVE",
"222 78 OFFCURVE",
"222 119 CURVE SMOOTH",
"222 581 LINE SMOOTH",
"222 622 OFFCURVE",
"225 649 OFFCURVE",
"234 670 CURVE",
"164 670 LINE",
"177 649 OFFCURVE",
"182 622 OFFCURVE",
"182 581 CURVE SMOOTH",
"182 119 LINE SMOOTH",
"182 78 OFFCURVE",
"177 51 OFFCURVE",
"164 30 CURVE"
);
},
{
closed = 1;
nodes = (
"570 0 LINE",
"590 29 OFFCURVE",
"595 60 OFFCURVE",
"595 122 CURVE SMOOTH",
"595 581 LINE SMOOTH",
"595 622 OFFCURVE",
"600 649 OFFCURVE",
"613 670 CURVE",
"537 670 LINE",
"550 649 OFFCURVE",
"555 622 OFFCURVE",
"555 581 CURVE SMOOTH",
"555 119 LINE SMOOTH",
"555 58 OFFCURVE",
"553 30 OFFCURVE",
"529 0 CURVE"
);
},
{
closed = 1;
nodes = (
"632 0 OFFCURVE",
"660 40 OFFCURVE",
"660 153 CURVE SMOOTH",
"660 415 LINE SMOOTH",
"660 483 OFFCURVE",
"678 500 OFFCURVE",
"726 500 CURVE SMOOTH",
"737 500 LINE",
"737 700 LINE",
"708 700 LINE SMOOTH",
"652 700 OFFCURVE",
"610 669 OFFCURVE",
"610 582 CURVE SMOOTH",
"610 127 LINE SMOOTH",
"610 61 OFFCURVE",
"607 30 OFFCURVE",
"588 0 CURVE"
);
}
);
width = 752;
},
{
anchors = (
{
name = bottom;
position = "{240, 0}";
},
{
name = top;
position = "{240, 700}";
}
);
layerId = "57E3185A-4375-48AC-BD50-0CEDF403F65C";
paths = (
{
closed = 1;
nodes = (
"203 0 LINE",
"183 200 LINE",
"151 200 LINE SMOOTH",
"119 200 OFFCURVE",
"105 216 OFFCURVE",
"105 275 CURVE SMOOTH",
"105 403 LINE SMOOTH",
"105 449 OFFCURVE",
"117 465 OFFCURVE",
"152 465 CURVE SMOOTH",
"185 465 OFFCURVE",
"200 451 OFFCURVE",
"208 397 CURVE SMOOTH",
"251 113 LINE SMOOTH",
"262 38 OFFCURVE",
"281 0 OFFCURVE",
"341 0 CURVE SMOOTH",
"401 0 OFFCURVE",
"425 48 OFFCURVE",
"425 123 CURVE SMOOTH",
"425 605 LINE SMOOTH",
"425 677 OFFCURVE",
"397 705 OFFCURVE",
"325 705 CURVE SMOOTH",
"277 705 LINE",
"297 505 LINE",
"329 505 LINE SMOOTH",
"361 505 OFFCURVE",
"375 489 OFFCURVE",
"375 432 CURVE SMOOTH",
"375 302 LINE SMOOTH",
"375 256 OFFCURVE",
"363 240 OFFCURVE",
"328 240 CURVE SMOOTH",
"295 240 OFFCURVE",
"280 254 OFFCURVE",
"272 308 CURVE SMOOTH",
"229 592 LINE SMOOTH",
"218 667 OFFCURVE",
"199 705 OFFCURVE",
"139 705 CURVE SMOOTH",
"79 705 OFFCURVE",
"55 657 OFFCURVE",
"55 582 CURVE SMOOTH",
"55 100 LINE SMOOTH",
"55 28 OFFCURVE",
"83 0 OFFCURVE",
"155 0 CURVE SMOOTH"
);
}
);
width = 480;
},
{
anchors = (
{
name = bottom;
position = "{240, 0}";
},
{
name = top;
position = "{240, 700}";
}
);
associatedMasterId = "57E3185A-4375-48AC-BD50-0CEDF403F65C";
layerId = "FC79365F-1677-4B54-9A1B-9D5FC840DE3E";
name = "Aug 27 20, 15:48";
paths = (
{
closed = 1;
nodes = (
"229 592 LINE SMOOTH",
"218 667 OFFCURVE",
"199 705 OFFCURVE",
"139 705 CURVE SMOOTH",
"79 705 OFFCURVE",
"55 657 OFFCURVE",
"55 582 CURVE SMOOTH",
"55 100 LINE SMOOTH",
"55 28 OFFCURVE",
"83 0 OFFCURVE",
"155 0 CURVE SMOOTH",
"173 0 LINE",
"173 200 LINE",
"151 200 LINE SMOOTH",
"119 200 OFFCURVE",
"105 216 OFFCURVE",
"105 275 CURVE SMOOTH",
"105 403 LINE SMOOTH",
"105 449 OFFCURVE",
"117 465 OFFCURVE",
"152 465 CURVE SMOOTH",
"185 465 OFFCURVE",
"200 451 OFFCURVE",
"208 397 CURVE SMOOTH",
"251 113 LINE SMOOTH",
"262 38 OFFCURVE",
"281 0 OFFCURVE",
"341 0 CURVE SMOOTH",
"401 0 OFFCURVE",
"425 48 OFFCURVE",
"425 123 CURVE SMOOTH",
"425 605 LINE SMOOTH",
"425 677 OFFCURVE",
"397 705 OFFCURVE",
"325 705 CURVE SMOOTH",
"307 705 LINE",
"307 505 LINE",
"329 505 LINE SMOOTH",
"361 505 OFFCURVE",
"375 489 OFFCURVE",
"375 432 CURVE SMOOTH",
"375 302 LINE SMOOTH",
"375 256 OFFCURVE",
"363 240 OFFCURVE",
"328 240 CURVE SMOOTH",
"295 240 OFFCURVE",
"280 254 OFFCURVE",
"272 308 CURVE SMOOTH"
);
}
);
width = 480;
}
);
leftKerningGroup = H;
leftMetricsKey = H;
rightKerningGroup = N;
unicode = 004E;
},
{
color = 4;
glyphname = Eng;
lastChange = "2020-09-01 16:41:16 +0000";
layers = (
{
layerId = "97739396-C0BE-473D-A663-6DBDEFF9DADD";
paths = (
{
closed = 1;
nodes = (
"461 -200 LINE SMOOTH",
"513 -200 OFFCURVE",
"540 -151 OFFCURVE",
"540 -80 CURVE SMOOTH",
"540 582 LINE SMOOTH",
"540 669 OFFCURVE",
"507 700 OFFCURVE",
"437 700 CURVE SMOOTH",
"428 700 LINE",
"428 498 LINE",
"439 498 LINE SMOOTH",
"480 498 OFFCURVE",
"490 481 OFFCURVE",
"490 413 CURVE SMOOTH",
"490 281 LINE SMOOTH",
"490 243 OFFCURVE",
"486 232 OFFCURVE",
"476 232 CURVE SMOOTH",
"464 232 OFFCURVE",
"459 242 OFFCURVE",
"451 266 CURVE SMOOTH",
"336 610 LINE SMOOTH",
"313 680 OFFCURVE",
"304 700 OFFCURVE",
"279 700 CURVE SMOOTH",
"252 700 OFFCURVE",
"237 669 OFFCURVE",
"237 582 CURVE SMOOTH",
"237 138 LINE SMOOTH",
"237 42 OFFCURVE",
"264 0 OFFCURVE",
"330 0 CURVE",
"330 202 LINE",
"299 202 OFFCURVE",
"287 221 OFFCURVE",
"287 275 CURVE SMOOTH",
"287 413 LINE SMOOTH",
"287 455 OFFCURVE",
"293 468 OFFCURVE",
"309 468 CURVE SMOOTH",
"324 468 OFFCURVE",
"330 454 OFFCURVE",
"343 417 CURVE SMOOTH",
"421 201 LINE SMOOTH",
"452 114 OFFCURVE",
"468 68 OFFCURVE",
"468 35 CURVE SMOOTH",
"468 12 OFFCURVE",
"456 0 OFFCURVE",
"438 0 CURVE SMOOTH",
"412 0 OFFCURVE",
"399 26 OFFCURVE",
"399 55 CURVE",
"356 55 LINE",
"356 -84 LINE SMOOTH",
"356 -152 OFFCURVE",
"379 -200 OFFCURVE",
"451 -200 CURVE SMOOTH"
);
},
{
closed = 1;
nodes = (
"69 0 LINE SMOOTH",
"131 0 OFFCURVE",
"167 42 OFFCURVE",
"167 138 CURVE SMOOTH",
"167 582 LINE SMOOTH",
"167 669 OFFCURVE",
"124 700 OFFCURVE",
"69 700 CURVE SMOOTH",
"40 700 LINE",
"40 498 LINE",
"51 498 LINE SMOOTH",
"99 498 OFFCURVE",
"117 481 OFFCURVE",
"117 413 CURVE SMOOTH",
"117 275 LINE SMOOTH",
"117 224 OFFCURVE",
"95 202 OFFCURVE",
"56 202 CURVE SMOOTH",
"40 202 LINE",
"40 0 LINE"
);
},
{
closed = 1;
nodes = (
"240 30 LINE",
"227 51 OFFCURVE",
"222 78 OFFCURVE",
"222 119 CURVE SMOOTH",
"222 581 LINE SMOOTH",
"222 622 OFFCURVE",
"224 649 OFFCURVE",
"231 670 CURVE",
"164 670 LINE",
"177 649 OFFCURVE",
"182 622 OFFCURVE",
"182 581 CURVE SMOOTH",
"182 119 LINE SMOOTH",
"182 78 OFFCURVE",
"177 51 OFFCURVE",
"164 30 CURVE"
);
},
{
closed = 1;
nodes = (
"571 -170 OFFCURVE",
"595 -149 OFFCURVE",
"595 -81 CURVE SMOOTH",
"595 581 LINE SMOOTH",
"595 622 OFFCURVE",
"600 649 OFFCURVE",
"613 670 CURVE",
"537 670 LINE",
"550 649 OFFCURVE",
"555 622 OFFCURVE",
"555 581 CURVE SMOOTH",
"555 -81 LINE SMOOTH",
"555 -130 OFFCURVE",
"550 -149 OFFCURVE",
"534 -170 CURVE"
);
},
{
closed = 1;
nodes = (
"642 -107 OFFCURVE",
"660 -72 OFFCURVE",
"660 5 CURVE SMOOTH",
"660 413 LINE SMOOTH",
"660 481 OFFCURVE",
"678 498 OFFCURVE",
"726 498 CURVE SMOOTH",
"737 498 LINE",
"737 700 LINE",
"708 700 LINE SMOOTH",
"652 700 OFFCURVE",
"610 669 OFFCURVE",
"610 582 CURVE SMOOTH",
"610 -56 LINE SMOOTH",
"610 -81 OFFCURVE",
"609 -103 OFFCURVE",
"605 -122 CURVE"
);
}
);
width = 752;
},
{
layerId = "57E3185A-4375-48AC-BD50-0CEDF403F65C";
paths = (
{
closed = 1;
nodes = (
"389 -200 OFFCURVE",
"425 -158 OFFCURVE",
"425 -62 CURVE SMOOTH",
"425 605 LINE SMOOTH",
"425 677 OFFCURVE",
"397 705 OFFCURVE",
"325 705 CURVE SMOOTH",
"307 705 LINE",
"307 503 LINE",
"329 503 LINE SMOOTH",
"361 503 OFFCURVE",
"375 487 OFFCURVE",
"375 430 CURVE SMOOTH",
"375 252 LINE SMOOTH",
"375 196 OFFCURVE",
"372 191 OFFCURVE",
"362 191 CURVE SMOOTH",
"353 191 OFFCURVE",
"349 199 OFFCURVE",
"336 238 CURVE SMOOTH",
"219 592 LINE SMOOTH",
"189 683 OFFCURVE",
"170 705 OFFCURVE",
"129 705 CURVE SMOOTH",
"79 705 OFFCURVE",
"55 657 OFFCURVE",
"55 582 CURVE SMOOTH",
"55 100 LINE SMOOTH",
"55 28 OFFCURVE",
"83 0 OFFCURVE",
"155 0 CURVE",
"155 202 LINE",
"151 202 LINE SMOOTH",
"119 202 OFFCURVE",
"105 218 OFFCURVE",
"105 275 CURVE SMOOTH",
"105 403 LINE SMOOTH",
"105 449 OFFCURVE",
"117 465 OFFCURVE",
"162 465 CURVE SMOOTH",
"195 465 OFFCURVE",
"214 447 OFFCURVE",
"235 383 CURVE SMOOTH",
"321 124 LINE SMOOTH",
"340 68 OFFCURVE",
"344 50 OFFCURVE",
"344 31 CURVE SMOOTH",
"344 9 OFFCURVE",
"335 0 OFFCURVE",
"311 0 CURVE",
"265 0 OFFCURVE",
"248 20 OFFCURVE",
"248 96 CURVE",
"198 96 LINE",
"198 -84 LINE SMOOTH",
"198 -152 OFFCURVE",
"241 -200 OFFCURVE",
"321 -200 CURVE SMOOTH"
);
}
);
width = 480;
},
{
associatedMasterId = "57E3185A-4375-48AC-BD50-0CEDF403F65C";
layerId = "CD3062F9-2B41-4972-87BF-E635891E789D";
name = "Aug 25 20, 15:30";
paths = (
{
closed = 1;
nodes = (
"375 -126 OFFCURVE",
"354 -150 OFFCURVE",
"315 -150 CURVE SMOOTH",
"286 -150 LINE SMOOTH",
"235 -150 OFFCURVE",
"218 -130 OFFCURVE",
"218 -84 CURVE",
"168 -84 LINE",
"168 -164 OFFCURVE",
"211 -200 OFFCURVE",
"286 -200 CURVE SMOOTH",
"327 -200 LINE SMOOTH",
"389 -200 OFFCURVE",
"425 -158 OFFCURVE",
"425 -62 CURVE SMOOTH",
"425 605 LINE SMOOTH",
"425 677 OFFCURVE",
"397 705 OFFCURVE",
"325 705 CURVE SMOOTH",
"307 705 LINE",
"307 503 LINE",
"329 503 LINE SMOOTH",
"361 503 OFFCURVE",
"375 487 OFFCURVE",
"375 430 CURVE SMOOTH",
"375 252 LINE SMOOTH",
"375 196 OFFCURVE",
"372 191 OFFCURVE",
"362 191 CURVE SMOOTH",
"353 191 OFFCURVE",
"348 199 OFFCURVE",
"336 238 CURVE SMOOTH",
"229 592 LINE SMOOTH",
"207 666 OFFCURVE",
"199 705 OFFCURVE",
"139 705 CURVE SMOOTH",
"79 705 OFFCURVE",
"55 657 OFFCURVE",
"55 582 CURVE SMOOTH",
"55 100 LINE SMOOTH",
"55 28 OFFCURVE",
"83 0 OFFCURVE",
"155 0 CURVE SMOOTH",
"173 0 LINE",
"173 202 LINE",
"151 202 LINE SMOOTH",
"119 202 OFFCURVE",
"105 218 OFFCURVE",
"105 275 CURVE SMOOTH",
"105 403 LINE SMOOTH",
"105 449 OFFCURVE",
"117 465 OFFCURVE",
"162 465 CURVE SMOOTH",
"195 465 OFFCURVE",
"214 447 OFFCURVE",
"235 383 CURVE SMOOTH",
"348 43 LINE SMOOTH",
"365 -8 OFFCURVE",
"375 -45 OFFCURVE",
"375 -75 CURVE SMOOTH"
);
}
);
width = 482;
},
{
associatedMasterId = "57E3185A-4375-48AC-BD50-0CEDF403F65C";
layerId = "C99992F6-C4DA-4643-A838-FD6209E1AAE4";
name = "Sep 1 20, 10:56";
paths = (
{
closed = 1;
nodes = (
"265 0 OFFCURVE",
"248 20 OFFCURVE",
"248 96 CURVE",
"198 96 LINE",
"198 -84 LINE SMOOTH",
"198 -152 OFFCURVE",
"241 -200 OFFCURVE",
"321 -200 CURVE SMOOTH",
"389 -200 OFFCURVE",
"425 -158 OFFCURVE",
"425 -62 CURVE SMOOTH",
"425 605 LINE SMOOTH",
"425 677 OFFCURVE",
"397 705 OFFCURVE",
"325 705 CURVE SMOOTH",
"307 705 LINE",
"307 503 LINE",
"329 503 LINE SMOOTH",
"361 503 OFFCURVE",
"375 487 OFFCURVE",
"375 430 CURVE SMOOTH",
"375 252 LINE SMOOTH",
"375 196 OFFCURVE",
"372 191 OFFCURVE",
"362 191 CURVE SMOOTH",
"353 191 OFFCURVE",
"348 199 OFFCURVE",
"336 238 CURVE SMOOTH",
"229 592 LINE SMOOTH",
"207 666 OFFCURVE",
"199 705 OFFCURVE",
"139 705 CURVE SMOOTH",
"79 705 OFFCURVE",
"55 657 OFFCURVE",
"55 582 CURVE SMOOTH",
"55 100 LINE SMOOTH",
"55 28 OFFCURVE",
"83 0 OFFCURVE",
"155 0 CURVE",
"155 202 LINE",
"151 202 LINE SMOOTH",
"119 202 OFFCURVE",
"105 218 OFFCURVE",
"105 275 CURVE SMOOTH",
"105 403 LINE SMOOTH",
"105 449 OFFCURVE",
"117 465 OFFCURVE",
"162 465 CURVE SMOOTH",
"195 465 OFFCURVE",
"214 447 OFFCURVE",
"235 383 CURVE SMOOTH",
"321 124 LINE SMOOTH",
"340 68 OFFCURVE",
"344 50 OFFCURVE",
"344 31 CURVE SMOOTH",
"344 9 OFFCURVE",
"335 0 OFFCURVE",
"311 0 CURVE"
);
}
);
visible = 1;
width = 480;
}
);
leftKerningGroup = H;
rightKerningGroup = Eng;
unicode = 014A;
},
